# .PCD v0.7 - Point Cloud Data file format
VERSION 0.7
FIELDS x y z
SIZE 4 4 4
TYPE F F F
COUNT 1 1 1
WIDTH 2640
HEIGHT 1
VIEWPOINT 0 0 0 1 0 0 0
POINTS 2640
DATA ascii
-2.374918 0.981316 -0.992699
-2.713658 0.465928 -0.995189
-2.637924 0.903944 -1.012711
-2.250579 -0.635805 -0.990252
-2.091425 0.262483 -0.993647
-2.793935 -0.340805 -0.973702
-2.847516 0.328238 -0.993829
-2.755310 0.868751 -0.990836
-2.606938 0.923416 -0.995407
-2.758508 2.079468 -1.011583
-2.431462 -1.997112 -1.007379
-2.408975 -1.644561 -0.986757
-2.810889 -1.055291 -0.999180
-2.440792 2.609936 -0.991041
-2.887528 0.882341 -1.015465
-2.523532 -2.233734 -1.015101
-2.113847 -1.149149 -0.999764
-2.264609 1.206951 -0.992277
-2.405542 -1.788191 -1.001415
-2.668407 1.495058 -1.003737
-2.738167 2.615415 -1.008144
-2.534853 2.584089 -1.000639
-2.669414 -0.072505 -0.985396
-2.206480 -0.954709 -0.993076
-2.733185 -1.935354 -1.008671
-2.668230 -2.130185 -1.000229
-2.266711 -2.621846 -1.015244
-2.666086 1.954314 -1.024037
-2.681139 -0.983519 -0.990831
-2.826856 -1.525930 -1.008271
-2.525444 2.278615 -0.991733
-2.698421 -2.176495 -1.023091
-2.198181 -2.187882 -0.995616
-2.663150 -1.418220 -1.004227
-2.290215 1.992936 -1.004532
-2.499759 -2.255692 -0.984082
-2.516427 -1.801130 -1.010675
-2.123002 2.556374 -0.982632
-2.179230 2.259894 -0.996257
-2.845664 1.154083 -0.997146
-2.725571 -2.166470 -0.985680
-2.747778 1.256813 -0.989106
-2.203684 2.978980 -0.983277
-2.440243 1.150806 -0.992951
-2.611591 0.247303 -1.006947
-2.236802 1.339749 -0.984505
-2.624364 2.370685 -1.007846
-2.362766 -0.484259 -0.997569
-2.729390 1.249762 -0.992831
-2.887875 0.717037 -0.995404
-2.338414 0.650910 -1.002704
-2.649961 -0.182033 -1.018686
-2.617129 -0.726724 -1.006017
-2.661275 -2.974320 -1.010195
-2.692031 1.892365 -0.991096
-2.439355 0.128359 -1.009091
-2.649298 0.764530 -1.000030
-2.560485 -1.344875 -1.007962
-2.749124 0.188505 -1.010837
-2.494467 -2.802778 -1.008675
-2.415920 -0.111176 -1.000134
-2.555486 0.124029 -1.006608
-2.581965 -1.251907 -1.009188
-2.128650 -1.375552 -0.998552
-2.864543 0.728403 -1.002001
-2.656122 -2.400696 -0.996969
-2.500239 -2.251765 -0.986635
-2.406597 -1.879970 -1.004994
-2.850694 -0.958267 -1.022195
-2.705117 2.790703 -0.997257
-2.851294 2.116925 -1.008214
-2.874297 -0.378998 -1.019580
-2.633766 1.140104 -1.013161
-2.566192 -0.534343 -1.008668
-2.214232 1.639282 -1.003953
-2.891516 1.202115 -0.997747
-2.327532 -2.932810 -1.009725
-2.521590 0.589336 -1.022136
-2.423853 -1.442348 -1.015769
-2.770270 2.554894 -1.013000
-2.281518 0.752102 -1.005375
-2.592881 2.396795 -0.988986
-2.562411 1.878458 -0.988007
-2.452647 -0.520221 -1.000786
-2.691102 2.376549 -1.000070
-2.555024 2.895919 -0.982233
-2.791161 -1.622960 -1.014346
-2.350559 -0.415663 -0.988038
-2.821530 -2.501963 -0.997494
-2.682179 0.000804 -0.994253
-2.706363 -0.285458 -0.995697
-2.779797 -0.095335 -0.988545
-2.472484 -2.178502 -0.997303
-2.728897 0.047063 -1.001436
-2.297189 -0.728818 -0.996805
-2.674759 -0.455597 -0.988215
-2.132618 1.599592 -0.987747
-2.450663 0.033788 -0.997423
-2.818276 -2.869785 -0.975723
-2.418874 -0.582762 -1.003524
-2.722343 2.370912 -1.002786
-2.597186 -1.214207 -0.993246
-2.736164 -2.066125 -1.002996
-2.650809 -2.935136 -1.017459
-2.412117 0.412254 -0.997818
-2.493260 -1.711039 -0.999604
-2.867637 -1.012128 -1.001655
-2.173021 1.669169 -1.017140
-2.707176 2.331831 -1.010949
-2.513037 -1.594856 -1.007545
-2.792677 -1.850077 -0.998550
-2.599626 -1.272758 -1.014196
-2.279805 2.739238 -1.008084
-2.707483 -2.926759 -0.991160
-2.241810 1.444260 -0.999110
-2.398849 2.672341 -1.000312
-2.384838 -0.922450 -0.991137
-2.180626 -1.880060 -0.997134
-2.493986 2.102117 -1.013094
-2.795407 -2.045832 -1.010792
-2.386570 1.351108 -1.007547
-2.401599 2.771644 -1.011492
-2.247367 -0.810318 -1.005409
-2.810524 -2.460149 -0.998202
-2.732068 0.153251 -1.029968
-2.168026 1.435425 -0.995290
-2.425483 -0.043616 -1.003082
-2.746699 -0.813385 -0.999510
-2.556391 -0.474869 -1.007457
-2.584173 1.236957 -0.991068
-2.790374 -1.545605 -1.005398
-2.432620 0.088456 -1.008900
-2.861872 -2.215389 -1.000705
-2.851003 1.421879 -0.997404
-2.685614 1.160828 -1.000281
-2.615402 -1.974626 -0.990714
-2.454130 -1.575380 -1.000838
-2.174098 -1.143378 -0.990611
-2.730718 -1.067198 -1.002169
-2.763734 -1.139293 -0.991713
-2.806561 1.640220 -1.001631
-2.847369 -2.781278 -0.989402
-2.781425 -1.807779 -0.999471
-2.726652 0.944118 -1.002172
-2.143899 -1.950937 -0.998273
-2.214588 2.133055 -0.985113
-2.782840 1.728347 -1.002079
-2.277663 1.795984 -1.000365
-2.890779 0.807376 -0.975307
-2.352040 -2.738756 -0.993663
-2.641923 2.781250 -1.004647
-2.635859 -2.243471 -1.002161
-2.711979 -2.781328 -1.006630
-2.444678 0.104032 -0.994888
-2.154025 2.501066 -0.989034
-2.229120 -0.973580 -1.002828
-2.228044 1.669783 -1.001650
-2.504788 -0.141866 -1.007632
-2.117851 -2.476554 -1.007823
-2.222529 0.848440 -1.008925
-2.389332 2.766654 -0.989268
-2.173937 1.161671 -1.014366
-2.819827 1.011953 -0.997868
-2.721157 0.557071 -0.991700
-2.175836 -2.403069 -1.002052
-2.758311 -0.550284 -0.987385
-2.829520 -1.730249 -1.008592
-2.600302 0.513967 -1.000476
-2.325996 0.117758 -0.998444
-2.411036 -2.702731 -1.000390
-2.470423 -0.295862 -0.979902
-2.310944 1.458641 -1.004431
-2.257399 -0.900223 -1.003092
-2.883159 0.759649 -0.988404
-2.184926 -0.935381 -0.982877
-2.419742 -2.565005 -0.992760
-2.199111 -2.277021 -0.982444
-2.498457 -2.899852 -0.992195
-2.625952 -2.773047 -1.000633
-2.789383 1.134127 -0.996085
-2.331977 -1.822981 -0.994841
-2.795688 2.173970 -0.982965
-2.238460 1.623484 -0.984156
-2.757455 1.403894 -0.993978
-2.852896 0.991638 -0.999495
-2.344555 2.570483 -0.995593
-2.482805 0.258426 -1.018794
-2.758786 -1.357933 -0.992145
-2.856523 1.208773 -1.009978
-2.685368 -2.220543 -1.002856
-2.203727 -1.215927 -1.002902
-2.596320 -2.912715 -0.997423
-2.285251 2.779375 -1.002729
-2.114831 -1.249731 -1.000226
-2.255671 2.140641 -0.986655
-2.129363 2.372674 -1.002664
-2.511238 0.019832 -1.010306
-2.137192 1.500483 -1.010114
-2.753868 -1.135659 -0.995944
-2.752869 -0.550710 -0.993065
-2.333583 2.433160 -1.004689
-2.147620 2.766011 -0.997099
-2.390423 -2.483677 -1.013574
-2.421904 1.882925 -1.005171
-2.198222 1.775591 -1.007418
-2.696809 -0.429906 -0.985619
-2.209177 -2.836597 -1.018528
-2.842225 -0.230551 -1.005378
-2.728206 0.925819 -1.008397
-2.224670 -2.111747 -1.009504
-2.450817 0.389139 -0.993183
-2.236773 2.444725 -0.978642
-2.602847 -2.111146 -1.015933
-2.859034 1.096963 -1.004936
-2.441358 -0.658498 -0.975933
-2.375908 1.606452 -0.994722
-2.814465 0.686745 -0.986672
-2.412090 -0.552126 -0.990601
-2.314996 -0.026884 -0.992391
-2.138644 -2.598670 -1.006040
-3.010581 -1.350526 -1.191766
-3.006105 0.943508 -1.310574
-2.992955 1.633463 -1.103171
-2.983541 1.152053 -1.133402
-2.982861 0.013717 -1.352310
-2.986111 0.125528 -1.109818
-2.987122 -2.131446 -1.305852
-2.995615 1.499446 -1.173989
-3.007992 -1.460822 -1.120661
-2.995586 0.209665 -1.314088
-3.009552 -1.202721 -1.323147
-3.003350 1.173999 -1.146819
-3.004817 -2.385489 -1.246546
-2.992245 -0.723287 -1.264969
-2.994526 -2.628751 -1.257811
-2.999856 -1.697951 -1.181789
-3.002345 -1.211878 -1.331756
-2.994565 0.824540 -1.396493
-2.998749 -2.278244 -1.313920
-3.008178 2.454046 -1.124597
-3.023677 -0.176044 -1.301444
-3.006393 2.044364 -1.316654
-2.993421 2.337776 -1.279030
-3.019713 -0.819188 -1.238329
-2.991761 -2.519266 -1.126446
-3.019572 -1.149531 -1.205458
-3.005931 -2.466273 -1.376620
-2.981306 2.588891 -1.154459
-2.998024 1.434537 -1.207483
-3.000551 1.644949 -1.253050
-3.019293 1.506417 -1.374885
-2.995108 -1.740964 -1.342477
-2.987972 2.134572 -1.206304
-2.997372 1.246855 -1.323560
-3.010212 0.288860 -1.147965
-2.973433 2.859314 -1.328586
-3.002127 2.361478 -1.184396
-2.996893 0.991744 -1.166532
-2.986069 2.665148 -1.305589
-3.006040 -0.952219 -1.238522
-2.996378 -2.082192 -1.121161
-2.980460 -0.056876 -1.313318
-3.002388 -0.977842 -1.147902
-2.998309 -1.323586 -1.224135
-2.998981 0.046955 -1.324741
-3.000481 -0.848727 -1.259872
-2.985805 -1.427416 -1.356880
-3.002127 2.746083 -1.222142
-3.010521 -1.760802 -1.212139
-3.012121 2.485595 -1.170693
-2.996612 -1.547771 -1.175082
-2.995534 0.276662 -1.364440
-2.986708 0.237226 -1.187582
-3.016922 2.547336 -1.315678
-3.001903 1.577577 -1.325690
-2.981238 2.933327 -1.125560
-2.995777 -1.961333 -1.116868
-2.991418 -1.647276 -1.312570
-2.992721 2.548517 -1.348321
-2.996998 2.513273 -1.259254
-3.004967 -2.092438 -1.300363
-3.008304 -1.463074 -1.101769
-3.013343 -1.576391 -1.327516
-3.011082 0.625223 -1.131237
-3.009005 -0.783311 -1.257218
-3.001177 -0.770695 -1.225778
-3.010592 2.402821 -1.135000
-3.011113 -2.860522 -1.265813
-2.998897 2.997529 -1.177999
-3.022593 -0.130922 -1.157819
-3.007816 -0.225047 -1.146844
-3.018923 2.001436 -1.243705
-3.004738 0.700778 -1.179619
-3.000758 0.725021 -1.341978
-2.996562 2.432947 -1.407751
-3.002344 0.719096 -1.130589
-2.999582 -2.237905 -1.388691
-2.986913 -1.496311 -1.384760
-2.992086 0.353631 -1.157491
-3.001314 0.311652 -1.355920
-2.987663 0.067846 -1.388921
-3.005791 -2.664291 -1.310852
-3.005144 -2.678159 -1.183869
-3.005420 -0.704773 -1.367342
-2.995894 2.096273 -1.164033
-2.998118 -1.444916 -1.080661
-3.004075 -1.705666 -1.196359
-2.984189 0.108688 -1.191221
-3.004064 1.600275 -1.340527
-2.995034 -1.157416 -1.210259
-2.992952 1.901904 -1.112154
-2.998949 -2.374677 -1.123376
-3.007741 -1.654340 -1.299186
-2.999781 2.171322 -1.193491
-3.004780 1.250401 -1.362264
-3.006868 -1.411934 -1.238398
-2.998592 0.556360 -1.231218
-2.999274 -1.215184 -1.316083
-2.985263 2.267198 -1.306382
-2.993225 -2.787234 -1.135006
-2.990333 -0.574953 -1.331394
-2.997069 2.572485 -1.331544
-2.995740 -2.169238 -1.249839
-3.004179 2.098465 -1.344594
-2.999544 2.961474 -1.245888
-3.004530 -0.526948 -1.290089
-3.005008 1.218380 -1.268994
-3.019115 -2.365642 -1.213985
-3.029755 -2.530600 -1.144181
-2.989505 -0.115358 -1.291248
-3.009289 2.658078 -1.248174
-3.000844 -1.834517 -1.375238
-2.987427 -2.174573 -1.148930
-3.000161 -2.698724 -1.273893
-3.007159 2.163432 -1.111956
-2.997365 2.650493 -1.188045
-2.991608 2.590971 -1.179963
-2.992696 -1.890307 -1.193739
-2.999888 -0.903734 -1.361357
-3.007026 1.080609 -1.157976
-2.978574 2.032561 -1.248247
-3.014649 2.625797 -1.200648
-3.007025 1.693179 -1.171421
-3.022531 1.868693 -1.379954
-3.002797 -0.283895 -1.139627
-3.025104 1.014229 -1.408004
-3.008864 0.173174 -1.153977
-2.999326 0.703316 -1.239549
-3.002225 1.054521 -1.294390
-3.008170 -2.713920 -1.177677
-2.986898 -0.330941 -1.198612
-3.017597 -1.617399 -1.169708
-2.989184 -1.270816 -1.190964
-2.996478 -0.748078 -1.206211
-2.997589 0.164666 -1.239477
-3.010808 2.154783 -1.186205
-2.993427 2.420186 -1.208937
-2.999707 -2.082132 -1.288781
-2.998275 1.334903 -1.162904
-2.998310 2.917356 -1.229780
-2.998754 2.057489 -1.158524
-2.985285 -1.146445 -1.207517
-3.003294 -1.614437 -1.115361
-2.991576 1.555785 -1.134276
-3.011116 -2.036344 -1.100715
-3.007631 1.213194 -1.298341
-3.007421 1.667537 -1.179997
-3.004455 0.143782 -1.106377
-2.992244 -2.496963 -1.145973
-3.004827 2.909217 -1.311023
-3.001533 1.528315 -1.245682
-3.008919 -1.117679 -1.323616
-2.999977 -1.643620 -1.219675
-3.007570 -2.302869 -1.137488
-2.998862 -2.263539 -1.136756
-3.000680 2.228090 -1.360846
-3.022427 2.586760 -1.214252
-2.999669 -1.696267 -1.244561
-2.985372 -2.522281 -1.312086
-2.990545 0.096772 -1.195602
-3.018007 2.665634 -1.201883
-2.991872 -2.622873 -1.342368
-2.994803 -0.279000 -1.150012
-2.998712 -2.172171 -1.271104
-3.008821 1.379902 -1.184378
-2.992430 -1.189612 -1.321454
-2.999356 -1.720316 -1.197541
-2.992207 -1.447654 -1.367921
-3.009242 2.045094 -1.129587
-3.013369 -0.444440 -1.221883
-3.015857 1.603194 -1.126139
-2.995755 -0.785711 -1.345265
-2.990072 -0.713685 -1.312905
-3.022726 2.480950 -1.197352
-2.988737 0.382006 -1.373187
-3.005989 -2.959659 -1.170818
-2.995707 -1.016068 -1.290044
-3.005365 -1.891709 -1.329766
-2.984293 2.429987 -1.340722
-2.996389 -2.314041 -1.393941
-3.002558 -2.712389 -1.162841
-2.997885 0.822259 -1.122876
-2.983654 0.480996 -1.238140
-3.001929 -1.951594 -1.201195
-3.003417 2.731738 -1.163802
-3.018062 2.528761 -1.351784
-2.997408 -0.063952 -1.246210
-3.019031 -0.759473 -1.265342
-2.982146 -1.947643 -1.350988
-3.001801 0.615571 -1.339977
-2.983526 -1.075695 -1.190317
-3.012793 1.690801 -1.216205
-3.005830 -2.222292 -1.176922
-3.001571 1.094893 -1.130336
-2.997195 2.665603 -1.362421
-2.990474 2.612038 -1.128122
-2.976672 2.374460 -1.144433
-2.995297 -2.760300 -1.211975
-2.994509 -2.850730 -1.391344
-2.997378 2.284394 -1.174689
-3.010795 -2.712903 -1.324124
-3.003515 2.554370 -1.134824
-2.983989 -0.994593 -1.206479
-2.987158 -1.362826 -1.266937
-2.998179 -1.630257 -1.373412
-3.006635 -0.563225 -1.209067
-2.995347 2.104371 -1.169953
-3.013525 -1.534188 -1.125404
-2.985071 0.613491 -1.382383
-2.999849 -0.951836 -1.204962
-2.991676 2.556213 -1.375267
-3.008429 1.976513 -1.151423
-2.982061 0.303953 -1.349996
-3.003227 -1.247754 -1.273343
-2.995025 0.175814 -1.202700
-3.010391 0.974101 -1.338451
-2.991772 -2.691090 -1.158673
-2.984576 2.868701 -1.369517
-3.017301 -2.362472 -1.287370
-2.986973 -2.536167 -1.376502
-1.214002 2.546731 -0.494566
-1.794550 -1.139542 -0.491362
-1.327898 2.480762 -0.489311
-1.318202 2.179592 -0.514862
-1.372424 -2.709023 -0.484752
-1.380491 0.832067 -0.502789
-1.433608 1.842030 -0.498079
-1.597234 2.221237 -0.502306
-1.577981 -0.169084 -0.506701
-1.281405 -1.467354 -0.495966
-1.597856 -0.560535 -0.505572
-1.823020 2.994148 -0.502504
-1.216583 1.390925 -0.502242
-1.157778 -0.138248 -0.502667
-1.543084 0.981077 -0.498657
-1.647979 2.671292 -0.495639
-1.222931 2.518122 -0.477929
-1.825846 -1.696922 -0.500730
-1.411842 2.522662 -0.504620
-1.380850 0.044576 -0.504022
-1.504764 -0.828827 -0.491555
-1.328404 -2.141915 -0.499016
-1.712256 0.590623 -0.506262
-1.127873 0.967693 -0.482832
-1.684540 -1.810894 -0.508582
-1.806552 1.169255 -0.506839
-1.385312 2.336930 -0.504036
-1.378111 2.612806 -0.501406
-1.380557 0.846199 -0.495941
-1.200865 -0.577699 -0.487977
-1.735072 2.937711 -0.497712
-1.428459 0.997287 -0.503575
-1.264141 0.330616 -0.477134
-1.612499 1.817239 -0.511125
-1.102106 0.202554 -0.484987
-1.130845 2.780558 -0.495383
-1.888135 1.173643 -0.511664
-1.133526 1.393121 -0.487550
-1.457659 -1.373104 -0.499378
-1.863952 0.917558 -0.491650
-1.139889 -1.603394 -0.496827
-1.634451 2.848100 -0.496398
-1.353821 1.576483 -0.482988
-1.806535 -1.793454 -0.498640
-1.099787 -2.443150 -0.488273
-1.435057 -1.792540 -0.509250
-1.182692 2.422145 -0.514501
-1.889181 -0.737812 -0.488028
-1.185492 -1.616463 -0.508101
-1.481510 -1.576151 -0.509891
-1.523187 0.956276 -0.495080
-1.613644 1.491982 -0.496296
-1.139160 2.380406 -0.497829
-1.545737 1.885862 -0.516372
-1.118925 -2.298280 -0.492706
-1.494980 1.950674 -0.500640
-1.389909 -1.303941 -0.494529
-1.264223 2.234023 -0.497861
-1.245213 -2.834646 -0.496768
-1.348348 1.883675 -0.491681
-1.640869 0.914984 -0.486722
-1.327726 -1.293489 -0.500246
-1.704432 1.127230 -0.495272
-1.577001 -1.916828 -0.492602
-1.675025 0.253497 -0.506449
-1.188610 1.495452 -0.511588
-1.217093 0.831586 -0.510451
-1.588776 -2.916793 -0.493807
-1.168965 -2.573698 -0.496025
-1.465366 -2.718041 -0.486996
-1.475013 -2.953552 -0.483411
-1.842709 -2.400521 -0.521913
-1.558204 1.791666 -0.509482
-1.290059 -2.982033 -0.503538
-1.216437 2.519466 -0.496991
-1.814157 0.716385 -0.501904
-1.310184 -1.815766 -0.491769
-1.199888 -2.687408 -0.491921
-1.234207 -0.695546 -0.509390
-1.877429 -1.564276 -0.499079
-1.400934 0.867097 -0.514944
-1.683504 0.659250 -0.501794
-1.383114 1.134300 -0.500053
-1.333546 1.217568 -0.499797
-1.718859 2.445045 -0.494607
-1.900730 -0.890900 -0.506846
-1.343699 2.597058 -0.501661
-1.251485 1.381104 -0.488482
-1.882557 0.448133 -0.476876
-1.522150 -2.820390 -0.485908
-1.692575 0.640128 -0.497688
-1.658283 -2.566377 -0.500308
-1.523163 -0.078028 -0.491952
-1.347638 0.991754 -0.500049
-1.179179 2.020180 -0.501215
-1.326222 -0.584140 -0.490768
-1.457273 -2.449721 -0.496312
-1.507372 0.726784 -0.496016
-1.254931 0.926289 -0.509570
-1.112040 0.304741 -0.506243
-1.091713 1.840651 -0.507051
-1.428389 -0.479768 -0.514754
-1.777605 -0.874605 -0.497377
-1.655835 -1.797083 -0.486537
-1.119932 2.925048 -0.512481
-1.866751 0.356974 -0.494990
-1.706168 -0.174193 -0.489462
-1.348968 -2.884632 -0.500557
-1.456255 0.678467 -0.491455
-1.642506 -1.578630 -0.496828
-1.532825 -1.827759 -0.511299
-1.454103 -1.081490 -0.497629
-1.139792 1.220086 -0.491226
-1.512802 2.081795 -0.506872
-1.824096 -1.428964 -0.494716
-1.706121 1.728928 -0.513532
-1.250883 0.576936 -0.491906
-1.163960 0.948175 -0.487306
-1.739806 -0.722395 -0.509448
-1.895441 -2.812846 -0.496366
-1.161665 1.393047 -0.498735
-1.823387 1.420416 -0.506409
-1.563325 0.394156 -0.501513
-1.521165 1.602352 -0.493915
-1.145304 1.685247 -0.491156
-1.323082 2.955764 -0.492684
-1.345549 -2.189410 -0.484483
-1.156623 -0.765550 -0.485573
-1.529104 1.535211 -0.493587
-1.537783 1.519789 -0.507110
-1.533651 -0.471141 -0.497346
-1.279091 0.861292 -0.519730
-1.173429 -2.195856 -0.513392
-1.451501 2.776038 -0.498978
-1.356529 -0.517479 -0.486777
-1.437508 1.603392 -0.494170
-1.668309 -2.785293 -0.498481
-1.377496 -0.340129 -0.505599
-1.817262 0.727169 -0.504819
-1.229954 -1.552887 -0.500323
-1.150527 2.642339 -0.503477
-1.744677 -1.311818 -0.507565
-1.288528 0.572885 -0.497291
-1.321434 -0.884008 -0.518372
-1.813635 2.897646 -0.505877
-1.721958 -1.627739 -0.499757
-1.507261 1.919616 -0.520536
-1.527308 -1.608757 -0.513568
-1.422118 2.107468 -0.494016
-1.703480 2.318348 -0.519673
-1.237827 -0.736686 -0.506908
-1.525086 1.995143 -0.495863
-1.119546 -0.151072 -0.480629
-1.412582 -0.592479 -0.497983
-1.265219 -0.919291 -0.488546
-1.245204 -0.050686 -0.486370
-1.458376 0.672595 -0.499607
-1.349477 -1.818764 -0.508054
-1.515079 0.034455 -0.498627
-1.430803 -1.527582 -0.511487
-1.522274 2.627002 -0.499042
-1.497289 2.622021 -0.512938
-1.365098 -0.869780 -0.501700
-1.190978 -0.058458 -0.499327
-1.814981 2.611461 -0.495623
-1.708109 2.798007 -0.511956
-1.600794 -1.240821 -0.503276
-1.280295 0.860700 -0.505413
-1.718946 2.661785 -0.502683
-1.473481 -2.120525 -0.466173
-1.384389 -0.257178 -0.485180
-1.382936 2.651709 -0.501544
-1.772159 2.187374 -0.493018
-1.708515 2.645770 -0.490454
-1.868586 -0.432106 -0.494243
-1.100586 -0.024573 -0.501988
-1.302744 2.519290 -0.497816
-1.483319 0.614838 -0.498650
-1.190443 -2.487988 -0.502803
-1.570345 1.876975 -0.507921
-1.347775 -2.290346 -0.495784
-1.876956 -2.394631 -0.488758
-1.470282 -2.510014 -0.503895
-1.607303 -0.177219 -0.504292
-1.789544 1.627296 -0.494372
-1.354412 0.476736 -0.508126
-1.802949 2.186638 -0.509738
-1.243023 -2.863664 -0.509977
-1.861913 2.386524 -0.500364
-1.089316 1.583074 -0.479646
-1.531192 1.870289 -0.502180
-1.439063 -0.844569 -0.505063
-1.786004 2.096435 -0.493336
-1.354240 -1.036546 -0.509929
-1.613808 1.480054 -0.492191
-1.331370 1.802461 -0.500323
-1.420566 1.772631 -0.492969
-1.826482 -0.196781 -0.487254
-1.699335 -0.388938 -0.489858
-1.566146 0.604551 -0.500148
-1.888971 2.369880 -0.511932
-1.491640 -0.422051 -0.515013
-1.647899 2.702693 -0.503086
-1.624202 2.960705 -0.504910
-1.875171 -0.826228 -0.495828
-1.222388 -0.499697 -0.501936
-1.703338 -1.784739 -0.492788
-1.668534 2.176746 -0.509185
-1.134632 -2.082415 -0.485136
-1.872902 2.283549 -0.489444
-1.525796 -0.247398 -0.504353
-1.576266 -0.775780 -0.511927
-1.831024 -0.323826 -0.514979
-1.476382 2.418428 -0.511753
-1.606710 -1.193317 -0.498549
-1.145810 -1.952793 -0.487407
-1.527427 1.755114 -0.488811
-1.257509 0.360311 -0.494194
-1.852555 -2.374392 -0.502633
-1.555292 -2.902802 -0.502425
-2.002297 0.686353 -0.639053
-1.992192 2.359451 -0.869985
-2.001287 -2.480847 -0.709053
-1.999199 -0.708963 -0.812410
-1.999229 0.070995 -0.625296
-2.001619 -2.232949 -0.790986
-1.987732 1.901863 -0.748000
-2.003289 2.397594 -0.729303
-2.012769 -1.405224 -0.725405
-2.006369 -0.183780 -0.852567
-2.000174 -0.384948 -0.682563
-2.002349 1.326299 -0.729541
-1.996850 0.256780 -0.679926
-2.001263 -1.233969 -0.714175
-1.992259 -2.158948 -0.849001
-1.994912 0.021459 -0.635983
-2.007954 2.711981 -0.702381
-2.025981 -1.852418 -0.729111
-2.002198 2.699269 -0.817245
-1.975920 -1.818364 -0.830007
-1.996772 1.091498 -0.754429
-1.991449 -2.837310 -0.831393
-1.978627 0.639768 -0.760348
-2.000074 -2.690868 -0.622108
-1.992586 -1.548301 -0.685449
-2.001870 -1.275290 -0.662485
-1.988771 2.668151 -0.858266
-1.992809 0.352269 -0.739944
-2.024667 -1.363085 -0.870314
-2.005383 -1.881234 -0.836594
-1.993785 2.894403 -0.823121
-1.990340 -1.727810 -0.860909
-2.002563 -0.464419 -0.874674
-2.015229 -0.473136 -0.747210
-2.002500 2.710239 -0.668790
-2.000721 -0.683821 -0.898990
-1.991279 0.422418 -0.805244
-1.988964 -2.316776 -0.790347
-1.998565 -2.657308 -0.611514
-2.002173 -0.738058 -0.684193
-1.990987 -1.925180 -0.854083
-1.984965 2.422202 -0.714554
-1.998849 -2.036932 -0.738795
-1.986345 -2.303424 -0.634210
-1.995568 1.504174 -0.781032
-1.976043 -0.603568 -0.629818
-1.993770 2.539133 -0.752299
-2.036207 -0.752584 -0.688602
-1.994437 -0.476775 -0.899399
-1.997743 0.391708 -0.687404
-2.004173 0.649651 -0.738483
-1.991493 -0.626941 -0.642486
-1.996107 1.081972 -0.712827
-1.995770 -1.159132 -0.854703
-2.010520 0.701623 -0.604171
-2.005269 -1.196419 -0.795517
-1.993101 1.435150 -0.690103
-1.989585 -2.673759 -0.889168
-1.995749 0.917394 -0.746665
-2.009392 0.631373 -0.624737
-2.021760 1.766263 -0.792874
-2.006162 0.968363 -0.742401
-1.998422 -0.139051 -0.613941
-1.995967 -2.192481 -0.687974
-1.997756 -0.517279 -0.706097
-2.002892 2.238503 -0.684951
-1.991835 0.108327 -0.620547
-1.993654 -1.143471 -0.630839
-1.982856 1.458585 -0.896259
-2.004844 2.584406 -0.798788
-1.987737 -1.290135 -0.843473
-2.001566 -1.084341 -0.832206
-1.998469 -0.527776 -0.663138
-2.016670 -1.110785 -0.681805
-1.992173 1.597717 -0.708117
-2.021527 0.989593 -0.786157
-2.021057 -0.522444 -0.646617
-2.010708 -0.824397 -0.643752
-1.995897 1.412576 -0.769273
-1.994163 -2.557890 -0.770423
-1.989128 1.222505 -0.744408
-2.012190 -1.393094 -0.634294
-2.000772 -0.629076 -0.690179
-1.999516 -2.932730 -0.766359
-1.984920 2.503870 -0.855570
-2.014717 1.971315 -0.658575
-2.011400 -0.417997 -0.867284
-1.984014 -0.803613 -0.781468
-2.016252 -2.369005 -0.675881
-1.993774 0.405334 -0.751189
-1.992444 -1.491127 -0.829741
-1.998289 0.104906 -0.894068
-2.015777 -1.035880 -0.893475
-2.000370 0.517957 -0.615551
-2.010504 2.565697 -0.721218
-2.012435 2.503011 -0.659523
-2.006511 1.919095 -0.738513
-2.000879 1.592289 -0.758998
-2.003475 -0.390446 -0.818319
-2.002487 1.682817 -0.677471
-2.002617 0.597976 -0.713249
-1.999155 1.358872 -0.816021
-2.001272 0.257083 -0.729227
-1.997661 -2.825536 -0.659263
-1.995355 0.870602 -0.750900
-2.011034 -0.204259 -0.644857
-2.013727 2.013145 -0.655633
-2.007963 -2.686656 -0.791887
-2.005248 -0.685227 -0.790737
-2.003389 -1.032891 -0.611169
-2.014729 0.270842 -0.908031
-1.997962 2.265932 -0.697002
-2.002031 2.468150 -0.787508
-2.007201 -1.024827 -0.792361
-2.000146 -0.509038 -0.691554
-2.007365 2.535782 -0.623190
-1.999662 2.364906 -0.678298
-1.980590 -1.643083 -0.811863
-2.016718 -2.569842 -0.631824
-2.006070 0.317158 -0.659527
-1.993055 -2.249553 -0.751547
-2.007843 -2.757565 -0.628175
-1.982646 1.963148 -0.701291
-1.996316 -2.620568 -0.765535
-2.003639 0.322470 -0.809707
-2.005370 -0.187193 -0.603154
-1.989010 -1.890124 -0.751040
-2.009824 -2.695188 -0.661687
-1.992128 -0.305842 -0.666305
-2.010883 -2.366113 -0.759168
-2.002647 0.167829 -0.655974
-2.001802 2.741563 -0.685381
-1.994378 2.849684 -0.659643
-2.014513 0.142164 -0.808582
-2.014808 -0.986388 -0.703676
-1.985658 2.302881 -0.667200
-1.993106 0.134655 -0.649724
-1.998385 0.927074 -0.894488
-2.010022 1.516022 -0.805533
-2.013700 -0.790417 -0.832056
-2.004617 -2.741729 -0.770833
-2.001913 -2.617357 -0.638007
-2.011071 -2.906588 -0.649118
-1.985563 2.050657 -0.833225
-1.997122 2.583079 -0.697443
-1.992618 -0.586154 -0.635691
-2.010963 -2.588812 -0.652278
-1.993953 -2.722070 -0.826526
-2.019115 2.953387 -0.712818
-2.010982 2.696366 -0.686435
-2.024554 -0.633946 -0.788115
-2.001834 0.724817 -0.637408
-1.990181 -0.132432 -0.747831
-2.006135 -0.773701 -0.740540
-2.002020 1.520054 -0.853916
-1.991316 -0.961273 -0.732742
-2.010622 2.659354 -0.823185
-1.989617 -0.372661 -0.676774
-1.998397 1.533595 -0.712846
-1.998650 0.471103 -0.842939
-1.989532 1.875768 -0.688262
-2.018137 -0.231429 -0.721128
-2.010097 1.196687 -0.736716
-2.001701 -1.712219 -0.687880
-1.997166 -2.222595 -0.899090
-2.017035 0.629033 -0.817493
-2.015293 -1.384503 -0.744718
-1.989777 2.935239 -0.879770
-2.013040 -1.697409 -0.747718
-1.998241 -1.873126 -0.793300
-1.993289 -0.743762 -0.674736
-1.989202 -0.530086 -0.648068
-1.988890 -2.099055 -0.740632
-1.997342 -0.145539 -0.639028
-2.009644 1.820148 -0.793123
-2.018525 -0.666891 -0.751851
-2.021301 -1.673251 -0.763122
-2.002161 -2.493767 -0.770623
-1.983554 -2.166764 -0.798911
-1.989525 -0.571684 -0.860256
-1.997851 -0.828913 -0.826401
-1.991720 -2.718524 -0.611098
-1.998399 2.627333 -0.900505
-1.997059 2.702202 -0.644809
-1.993547 -1.308404 -0.861321
-2.001147 1.551200 -0.823116
-2.010560 0.161700 -0.727075
-2.001725 2.214600 -0.684954
-2.003664 -1.045642 -0.699740
-1.986926 1.384538 -0.806888
-1.994951 0.944157 -0.890463
-1.987725 1.981915 -0.647891
-2.005497 2.294679 -0.903613
-1.989975 1.704313 -0.886258
-1.981663 -1.920545 -0.654500
-2.005639 1.891790 -0.718582
-2.000529 -0.651344 -0.792948
-2.001107 0.693656 -0.889058
-2.001752 -1.552222 -0.731621
-2.015302 -1.282191 -0.652840
-1.998583 -2.261788 -0.745105
-2.008496 -2.028013 -0.814155
-2.012896 -0.502006 -0.616443
-1.989312 2.119005 -0.726665
-1.992637 0.474608 -0.808344
-1.981802 -1.548504 -0.732372
-1.993947 -1.946155 -0.696111
-1.999178 0.649173 -0.659898
-1.999196 2.095642 -0.707425
-2.014485 1.156722 -0.892964
-2.013093 -0.640710 -0.762204
-1.985987 2.895660 -0.886368
-2.009379 0.081516 -0.709064
-1.990847 -1.393311 -0.877175
-1.997319 0.066507 -0.750218
-2.011342 0.186024 -0.827133
-2.011143 1.377833 -0.833813
-1.996099 2.835651 -0.691701
-1.983610 -0.839874 -0.694899
-2.000145 -1.477719 -0.871060
-0.577270 -2.095489 0.001722
-0.461096 -0.386051 0.002310
-0.754132 1.064162 0.016324
-0.474373 0.407941 0.011565
-0.712726 0.263470 0.002185
-0.729867 -0.421534 0.012795
-0.389358 1.873852 -0.016231
-0.249506 0.388284 0.009135
-0.363549 -2.000344 -0.003577
-0.142255 -0.722456 0.002519
-0.507415 1.105412 0.005326
-0.337391 2.786093 -0.003587
-0.778884 1.675293 -0.010768
-0.722390 2.948801 -0.008691
-0.185626 1.454533 -0.004050
-0.494603 0.906922 -0.003828
-0.522132 2.481371 -0.004185
-0.825965 0.919974 0.011863
-0.160148 1.807826 0.011238
-0.854604 -0.225015 0.011459
-0.690183 2.915028 0.002822
-0.656066 -0.560780 -0.008525
-0.856516 -2.522862 -0.006440
-0.765149 -0.213963 0.001946
-0.448997 2.141732 -0.008320
-0.259515 -0.205688 -0.012568
-0.699560 0.840522 -0.006482
-0.485791 0.593782 -0.002047
-0.469406 0.496596 -0.000087
-0.191400 2.129707 -0.007384
-0.441838 -0.298030 0.003504
-0.885542 2.142301 0.001180
-0.592997 -0.395131 -0.008900
-0.595243 2.757488 -0.006173
-0.680195 -0.638708 0.002639
-0.470227 -2.452411 -0.007392
-0.558170 -0.252609 -0.007101
-0.490655 0.666607 0.001563
-0.764278 -1.770133 -0.004523
-0.249849 1.118222 0.005476
-0.232891 -2.173162 -0.006489
-0.408773 -2.853275 0.002926
-0.105279 0.853052 0.000112
-0.786940 1.558759 0.014690
-0.858544 1.585719 -0.014720
-0.547348 -0.564849 -0.020812
-0.493216 -1.704105 0.002800
-0.549465 -0.109160 0.001374
-0.665170 0.162909 0.005015
-0.546691 -1.207712 0.006306
-0.738758 -0.425951 -0.003527
-0.388054 -0.932052 -0.012749
-0.163234 0.621248 0.020467
-0.342400 -0.004635 0.008007
-0.492483 -0.380048 0.002737
-0.809866 -1.875684 0.014565
-0.718912 -0.339069 0.010749
-0.756335 -0.486078 0.001127
-0.499119 -0.167445 -0.012770
-0.692524 1.272546 0.002470
-0.205445 -0.857934 -0.008123
-0.397630 -0.919611 -0.007130
-0.416429 2.691264 -0.006588
-0.452869 -0.156064 0.011116
-0.808459 2.091253 0.010847
-0.893493 0.924890 0.002878
-0.524413 -1.611864 -0.004963
-0.096052 -0.610671 -0.001922
-0.746350 1.047095 -0.017979
-0.663348 -0.926416 0.009289
-0.330072 2.960553 -0.008060
-0.165562 0.511685 -0.004158
-0.327506 1.397775 0.006221
-0.223304 -2.478032 -0.014787
-0.243071 0.812248 -0.012363
-0.222755 2.665860 0.004289
-0.459631 0.561744 -0.002081
-0.523468 0.828288 0.000554
-0.592095 0.103601 -0.010451
-0.370993 0.555601 -0.020749
-0.447903 0.313230 0.005680
-0.781453 0.689880 0.021044
-0.371293 -1.755708 -0.004093
-0.589419 1.346246 0.003400
-0.849288 -1.677582 -0.000320
-0.480540 -1.494439 -0.006425
-0.652494 0.663174 0.009450
-0.743218 -1.798356 -0.008789
-0.348788 -0.049360 0.012458
-0.694232 -0.150183 0.008762
-0.491883 -1.333624 -0.005618
-0.112429 -1.061251 0.013490
-0.771652 -0.764354 0.011587
-0.666733 0.294980 0.004466
-0.739558 -2.107469 -0.001181
-0.841064 1.321828 -0.000493
-0.795071 -2.323577 -0.002248
-0.326956 2.838798 0.005932
-0.451105 -2.187300 0.009096
-0.331016 -0.733149 -0.021944
-0.486289 2.782329 -0.004021
-0.706427 -1.884990 0.026157
-0.680429 -0.100322 -0.012421
-0.246742 0.944485 -0.002537
-0.129806 1.643687 -0.007033
-0.736090 -0.982493 0.000344
-0.756222 0.688804 -0.004314
-0.763951 0.070737 -0.000644
-0.648606 2.498434 -0.007971
-0.725982 -2.463592 -0.006176
-0.178464 -0.036317 -0.003225
-0.492778 1.184219 0.007970
-0.736280 -0.304551 -0.001109
-0.491371 2.265198 -0.003085
-0.357655 0.805953 -0.001115
-0.814538 1.986816 -0.001060
-0.094563 -0.925981 -0.012565
-0.551217 -1.329529 -0.006959
-0.499059 1.054934 -0.002926
-0.291380 -0.380266 -0.000734
-0.408315 0.181710 0.014729
-0.581003 -2.734339 0.005500
-0.345324 -0.679566 -0.000635
-0.400430 -0.683126 -0.008286
-0.229855 2.782209 -0.005525
-0.623307 0.381541 -0.001410
-0.144857 -0.089662 -0.000705
-0.446469 0.198937 -0.013971
-0.166665 -1.798651 -0.006464
-0.603541 -2.862696 -0.000950
-0.222240 1.380758 -0.018534
-0.201092 -0.494686 -0.005817
-0.875361 -1.368645 -0.002676
-0.454649 0.489097 -0.009956
-0.690652 2.043268 0.011186
-0.783244 0.581773 0.000022
-0.910381 2.842015 0.007052
-0.810261 0.110187 0.003532
-0.235514 -2.157496 -0.014857
-0.178149 -0.846668 0.004068
-0.708735 0.241296 -0.000866
-0.231275 0.309436 -0.013635
-0.783200 -1.740193 0.012595
-0.367786 -0.159982 -0.000773
-0.141318 -1.732952 -0.001975
-0.117460 2.271100 0.008321
-0.129940 2.667279 -0.009107
-0.278652 1.495386 -0.016027
-0.616636 2.062663 0.000937
-0.711372 0.575442 0.004820
-0.761378 -0.972841 -0.004033
-0.804791 -2.287565 -0.000581
-0.825317 1.447482 0.012400
-0.277762 -2.291787 -0.002097
-0.860772 -0.622886 0.013054
-0.508860 0.092143 -0.011114
-0.344284 1.345967 -0.009030
-0.343485 2.737994 0.010192
-0.552285 -0.801103 0.000501
-0.828484 -2.857967 -0.008834
-0.884428 -1.214422 0.010895
-0.448585 -2.069117 -0.020420
-0.562505 -0.035819 -0.008568
-0.351639 -0.009598 -0.003848
-0.860537 -2.759159 0.017374
-0.176325 2.983128 0.005440
-0.149014 2.779430 0.016176
-0.529081 1.952183 -0.010611
-0.250469 2.890158 0.004755
-0.883869 2.429113 0.016144
-0.570670 -0.949621 -0.002630
-0.325790 -0.014659 -0.002176
-0.448180 -2.373630 -0.000449
-0.669651 0.064785 0.016320
-0.264829 -2.217275 0.002565
-0.157684 -0.723440 -0.008803
-0.692670 0.863767 -0.001388
-0.280158 2.732690 0.003554
-0.177024 -1.632453 0.005548
-0.668921 2.028187 0.002268
-0.501254 0.991944 0.010402
-0.278788 1.371372 -0.001721
-0.555535 0.297062 0.007832
-0.197201 -2.786939 -0.009953
-0.832877 2.888332 0.001524
-0.256569 -0.054604 -0.003850
-0.167191 -0.267254 0.017087
-0.868456 -2.676810 -0.025033
-0.503564 0.889904 0.012940
-0.532993 -2.204054 -0.011285
-0.823866 1.674447 0.011274
-0.852873 1.631399 0.008427
-0.763169 1.680661 -0.008716
-0.195906 -2.307488 0.007878
-0.895642 0.842988 -0.015611
-0.148011 2.084002 0.017301
-0.402575 2.359925 0.010033
-0.347320 -2.908744 -0.015856
-0.377309 -0.157853 0.005988
-0.300761 -2.562486 -0.002488
-0.409912 1.403478 -0.013227
-0.730283 -2.288228 -0.006350
-0.180723 0.317500 -0.013058
-0.253536 -0.543651 -0.018866
-0.610703 2.872806 0.006077
-0.637374 -2.821223 0.005785
-0.648489 2.846525 0.010016
-0.196782 -2.350893 0.005395
-0.590699 -1.898993 0.003654
-0.375218 0.706834 -0.003505
-0.831699 -2.824766 -0.002961
-0.653785 1.298275 -0.019367
-0.273501 -2.518372 -0.017938
-0.376982 1.544222 -0.006004
-0.711455 1.172441 -0.007578
-0.213294 -2.145892 0.005950
-0.792212 -2.444416 -0.003978
-0.392017 -2.166721 0.020871
-0.264283 2.829222 0.004071
-0.109432 2.249954 -0.003428
-0.993002 -1.658243 -0.381115
-0.980331 -1.853301 -0.291639
-0.989710 -0.856983 -0.398598
-0.997923 -1.043229 -0.240454
-0.999006 -2.672807 -0.312966
-0.999364 -1.962517 -0.202076
-1.001407 1.579552 -0.305513
-0.984807 0.223132 -0.130512
-0.987650 0.143713 -0.124005
-1.002974 -2.039128 -0.373687
-1.013735 -2.115660 -0.292018
-0.988591 -1.411926 -0.230272
-1.000158 -2.931474 -0.222112
-1.011177 2.906948 -0.156154
-1.001287 -0.156510 -0.263483
-1.004971 -1.788187 -0.355443
-1.000409 -1.242855 -0.366905
-0.992130 0.093415 -0.242688
-0.990587 -1.192506 -0.156301
-0.982499 2.935169 -0.197438
-0.965072 -1.679999 -0.327354
-0.998032 0.482274 -0.223870
-0.992089 1.026839 -0.217240
-0.997635 -0.156687 -0.316440
-1.016656 2.168206 -0.243751
-0.986794 1.961527 -0.301517
-0.981602 -1.398398 -0.386210
-1.015971 -2.621285 -0.168763
-1.002554 -2.007545 -0.310993
-1.015013 -1.079523 -0.121360
-0.991362 -2.660438 -0.384465
-0.981709 -0.705409 -0.287009
-0.991556 -2.404144 -0.096141
-0.993386 2.602781 -0.369011
-0.994153 -0.977532 -0.132332
-0.994151 -0.743375 -0.378261
-0.997601 1.428420 -0.262106
-1.017869 -2.192693 -0.147817
-1.011808 0.876235 -0.311630
-1.008210 2.940562 -0.359899
-1.019382 -2.036681 -0.259902
-0.982108 -0.482739 -0.284630
-0.985184 1.412160 -0.160510
-0.981571 1.919991 -0.102370
-1.009650 -2.563683 -0.281019
-1.008153 1.658721 -0.135505
-1.016208 -2.100005 -0.353918
-0.996617 0.533769 -0.286441
-1.001649 0.732283 -0.316355
-1.001460 0.225212 -0.218772
-1.007653 0.707428 -0.382979
-0.989423 1.419852 -0.356331
-1.012044 0.087027 -0.113959
-1.003766 2.965870 -0.274197
-1.007510 0.802472 -0.156008
-0.989245 0.741600 -0.287818
-0.998637 2.402835 -0.269123
-0.990197 -1.852669 -0.266219
-1.001601 2.174401 -0.101854
-1.007800 -2.325151 -0.227969
-0.993839 -2.940642 -0.377234
-0.981493 -0.186841 -0.349110
-0.994243 1.273616 -0.237453
-1.000153 2.741074 -0.095189
-0.992747 -1.729380 -0.224245
-0.993581 -1.740731 -0.144240
-1.005632 2.775191 -0.269274
-1.006480 -1.727085 -0.397712
-0.991039 -0.153630 -0.141859
-1.034383 -1.251705 -0.389278
-0.996031 -1.323531 -0.131810
-0.999079 -1.421882 -0.247125
-0.993433 0.612436 -0.286760
-0.980470 2.293394 -0.169942
-0.990547 1.042251 -0.321803
-1.008686 3.005246 -0.101413
-0.991036 -2.386377 -0.363705
-0.991552 -2.035845 -0.298611
-0.987351 -0.333043 -0.257910
-0.991039 -1.408370 -0.154721
-0.984348 1.691383 -0.161136
-1.020391 2.910645 -0.374491
-0.995349 -2.323760 -0.186679
-1.009596 -0.256455 -0.264245
-0.994359 -1.148713 -0.172715
-0.996814 -2.390291 -0.351524
-1.004249 2.763504 -0.380010
-0.995766 2.253832 -0.190324
-0.989935 -0.669632 -0.182437
-1.003142 1.232717 -0.128081
-0.991928 2.624727 -0.263908
-0.990489 -1.782032 -0.346770
-1.012429 -2.867021 -0.267348
-1.006549 -1.362103 -0.311372
-1.002474 0.467659 -0.159351
-1.008023 -2.200608 -0.281814
-1.011076 -0.958103 -0.122406
-0.998557 -1.529082 -0.234004
-0.996882 1.847964 -0.156346
-1.008960 2.280607 -0.330144
-1.010089 1.380908 -0.118391
-0.991759 1.369887 -0.341350
-0.996202 2.722488 -0.172042
-1.009470 -0.173599 -0.247265
-1.005797 -2.388326 -0.110394
-1.005578 -1.516055 -0.309580
-1.002393 -0.904279 -0.176386
-1.001726 -0.250619 -0.322632
-0.999798 2.168859 -0.139808
-1.011736 -0.356525 -0.361902
-0.999955 -0.144105 -0.356402
-1.013716 -0.351592 -0.109634
-1.010318 -0.590573 -0.150430
-1.000680 -1.006604 -0.389256
-1.002005 -1.115495 -0.114899
-1.002749 2.447232 -0.344968
-1.000898 -0.266756 -0.328721
-0.978149 0.037177 -0.268223
-1.003563 -0.391535 -0.373438
-0.998082 0.774466 -0.270454
-0.992018 1.859587 -0.123990
-0.980370 -2.498005 -0.280977
-1.005704 -2.723342 -0.321946
-0.994884 -0.358229 -0.359953
-0.996461 -2.468096 -0.137122
-0.997815 -2.128301 -0.192372
-1.007739 1.735822 -0.335171
-1.000364 -0.023305 -0.152742
-1.008888 -1.800373 -0.385858
-1.004396 1.212214 -0.337251
-0.993777 -2.830926 -0.193376
-0.996475 0.112429 -0.308817
-1.010025 -2.756885 -0.147995
-1.005503 1.053936 -0.116932
-1.001929 -2.500750 -0.327514
-0.999744 -0.822977 -0.278962
-1.031892 -1.920110 -0.251692
-0.984991 2.660785 -0.184037
-1.005137 0.473370 -0.348713
-0.990355 -0.289142 -0.226139
-0.993995 1.157451 -0.306337
-0.992220 0.432948 -0.221408
-1.020589 -1.911982 -0.258466
-0.995203 0.518649 -0.153508
-0.991151 2.549698 -0.195751
-0.989757 -2.554806 -0.299499
-0.998600 -2.929103 -0.245124
-0.984092 1.453343 -0.141140
-0.993343 1.957849 -0.162052
-1.005500 -2.679317 -0.377177
-0.999830 -0.607391 -0.250730
-0.973566 2.456515 -0.222156
-0.996922 -2.280683 -0.185785
-1.014858 -0.224235 -0.243428
-0.985943 0.319256 -0.257418
-0.990877 2.754781 -0.310521
-1.000494 1.160860 -0.123162
-1.001300 0.614810 -0.166787
-0.995588 -0.735557 -0.268052
-0.985843 0.068834 -0.120402
-1.002513 1.969740 -0.249984
-1.008825 -1.594448 -0.242003
-0.997188 -1.839513 -0.294021
-0.993458 -1.360699 -0.356941
-0.987686 1.526210 -0.136136
-1.009786 -1.028184 -0.208264
-0.995562 -2.844778 -0.135696
-0.985695 -1.949040 -0.182182
-0.986762 -1.362700 -0.201359
-0.993307 1.194410 -0.295696
-0.982725 -1.870824 -0.102421
-1.004706 -1.670480 -0.341930
-1.023090 -2.640593 -0.249838
-1.005605 -0.857330 -0.379859
-1.011809 2.833552 -0.126539
-0.987162 1.116155 -0.179007
-0.997576 1.788185 -0.339023
-1.007658 1.857640 -0.263218
-0.991787 -2.590671 -0.283360
-1.008589 1.512968 -0.176243
-1.021200 1.180578 -0.130554
-1.004687 -2.911148 -0.344115
-0.999298 -1.429996 -0.397790
-1.011926 1.487297 -0.252085
-1.001376 2.158484 -0.372699
-1.013263 1.046987 -0.303581
-0.988359 -2.200354 -0.147844
-1.000616 1.116380 -0.278167
-0.998559 -0.204905 -0.288466
-0.997675 2.711999 -0.217948
-1.023575 -2.031478 -0.347152
-0.992989 -0.408364 -0.119148
-0.988207 -2.096789 -0.402275
-0.985884 -0.033321 -0.313388
-0.998690 -0.058863 -0.279284
-0.999213 0.068300 -0.216077
-0.988112 0.022714 -0.397795
-1.002557 2.128492 -0.236274
-0.998606 -2.788964 -0.120504
-1.012547 2.047433 -0.297469
-1.003213 -0.670035 -0.252731
-1.000308 1.309538 -0.134631
-0.991760 -1.671402 -0.357651
-0.998829 -1.534105 -0.184260
-0.994547 1.912982 -0.223277
-1.008482 -2.186068 -0.254944
-1.000339 -2.725967 -0.246018
-0.995963 -2.626405 -0.327365
-0.987892 -0.313420 -0.214484
-0.996963 1.435643 -0.211436
-0.991452 -2.794245 -0.196145
-1.004377 -0.495711 -0.152776
-0.994934 1.967552 -0.371822
-0.990093 -0.564386 -0.310177
-0.992149 -1.822936 -0.280262
-0.990035 1.199457 -0.159056
-1.012247 0.414350 -0.121205
-0.990519 2.517352 -0.116166
-1.014979 2.813555 -0.365608
-0.983354 -2.813072 -0.243375
0.705853 -1.934955 0.499704
0.235189 0.159825 0.505293
0.517313 2.892503 0.500837
0.216057 -0.028640 0.516364
0.659896 2.923536 0.514881
0.865212 1.644754 0.492708
0.357844 0.606478 0.489407
0.318542 1.008915 0.489192
0.461850 -2.422069 0.494574
0.105071 1.540551 0.481315
0.874032 0.904259 0.488872
0.756998 1.054827 0.503772
0.447580 0.886797 0.509510
0.517205 1.866088 0.516596
0.213649 -0.994654 0.499638
0.427815 1.063425 0.495988
0.699133 -0.394934 0.512479
0.503594 -2.757256 0.507461
0.548947 0.990162 0.515757
0.693912 -0.623692 0.494374
0.783404 -1.996405 0.494772
0.502437 1.886650 0.491724
0.112422 1.676660 0.508414
0.799797 -1.344853 0.493332
0.656423 -1.671914 0.485777
0.457085 -2.519648 0.507172
0.759417 -0.453820 0.501535
0.796309 1.450515 0.489960
0.860969 0.114416 0.512592
0.176437 -2.197814 0.513119
0.441679 -0.228490 0.501223
0.586107 1.121747 0.494455
0.596369 0.749077 0.481119
0.352392 0.235759 0.478393
0.792705 1.570102 0.502613
0.243022 -0.834593 0.504557
0.239517 2.451273 0.511945
0.300390 -0.937538 0.497097
0.875351 -2.103817 0.499749
0.710213 -2.494485 0.509021
0.418098 -1.801046 0.501358
0.707885 2.885677 0.507141
0.221368 0.357372 0.496489
0.584530 2.869616 0.498583
0.236000 2.345487 0.489960
0.590214 -1.653630 0.483017
0.211724 1.004196 0.495287
0.139899 0.182151 0.502082
0.109725 1.825110 0.496621
0.650383 -0.723779 0.489286
0.172649 2.059520 0.500768
0.313510 -1.191747 0.492637
0.815386 -2.053618 0.513100
0.777197 2.497335 0.485429
0.754620 1.312595 0.499564
0.543832 -0.377176 0.509359
0.867033 -2.524035 0.497787
0.765717 0.966487 0.501658
0.547667 0.750014 0.502802
0.570230 -0.448975 0.507859
0.700408 2.634039 0.482722
0.250234 -1.058810 0.501231
0.806748 -2.681596 0.486544
0.313783 2.045341 0.501958
0.656255 -0.084665 0.493457
0.818997 2.230775 0.505130
0.324851 -2.987886 0.490847
0.280868 2.464011 0.485151
0.245590 -0.656231 0.492127
0.305192 0.244838 0.494850
0.542028 -0.016213 0.486250
0.109241 1.460123 0.490768
0.615582 -1.117285 0.494813
0.177087 0.319041 0.515937
0.610732 1.040119 0.507441
0.711389 -2.348225 0.505717
0.722904 1.680136 0.496063
0.159825 1.812722 0.485107
0.915244 1.841362 0.501354
0.168583 0.627865 0.485172
0.584300 -0.060245 0.508154
0.795618 -1.623886 0.498217
0.401118 -2.461650 0.503815
0.528014 -1.074532 0.499656
0.400748 -2.435142 0.478246
0.607281 0.322846 0.499902
0.856228 2.067557 0.502684
0.503857 2.686717 0.508594
0.099520 -1.671358 0.483272
0.830726 2.418121 0.483527
0.672164 -2.132316 0.510187
0.203739 -0.106001 0.490978
0.694946 2.229259 0.522331
0.391283 2.775438 0.487306
0.707687 0.094997 0.495985
0.839780 1.652550 0.498855
0.734316 0.555263 0.506759
0.647236 -0.649979 0.493985
0.526551 -2.496789 0.510950
0.442679 0.548118 0.492194
0.806682 0.868840 0.499780
0.360747 1.307298 0.492956
0.114863 0.877820 0.477159
0.871536 2.342960 0.496147
0.329773 0.323365 0.495430
0.198172 -2.082546 0.509191
0.841109 0.740387 0.488673
0.228226 1.873144 0.503121
0.724775 -2.633219 0.499599
0.145587 -2.973838 0.508240
0.416269 -2.862799 0.500194
0.554373 0.432926 0.507058
0.496570 -2.188921 0.488494
0.238118 1.035193 0.499555
0.445826 1.248770 0.495427
0.682524 -2.022800 0.500562
0.240871 1.693873 0.494576
0.568944 1.845109 0.477336
0.626762 -0.772241 0.494195
0.550812 -2.610340 0.491118
0.617857 2.634247 0.487517
0.834807 -1.900204 0.500479
0.427969 -2.162457 0.491683
0.498865 0.885199 0.491690
0.573834 2.873261 0.497282
0.366253 2.699264 0.493988
0.816960 -2.864195 0.504309
0.302496 0.135629 0.486304
0.347686 -2.441742 0.502051
0.304536 -0.003239 0.479839
0.870645 -1.589810 0.501651
0.153977 -2.786388 0.493013
0.224935 0.507397 0.495834
0.403910 -2.053552 0.500123
0.831890 -2.882846 0.489110
0.617512 -0.252002 0.489857
0.648272 0.759083 0.494102
0.879843 -2.439339 0.499101
0.860335 2.644171 0.494201
0.217323 1.071345 0.512256
0.832802 -2.810792 0.496531
0.184147 -0.480202 0.517262
0.523409 1.025872 0.501461
0.370102 1.135601 0.499100
0.305321 2.415594 0.513906
0.127659 -1.679555 0.511842
0.543255 -1.945748 0.507790
0.361703 1.421975 0.495395
0.477638 -2.919861 0.505744
0.770553 2.875370 0.507315
0.445647 -0.600649 0.498671
0.272720 -1.721876 0.499215
0.630697 1.470655 0.497704
0.661582 -1.388527 0.509063
0.550608 -1.414666 0.504185
0.317430 -2.089457 0.498016
0.413244 -2.747134 0.487685
0.674219 1.543690 0.485670
0.445328 2.741681 0.484797
0.362953 2.492223 0.513431
0.180362 2.067100 0.517366
0.453662 2.938139 0.495859
0.181553 -2.238428 0.508485
0.615665 -1.011168 0.495393
0.903698 2.249024 0.506229
0.657179 -1.868450 0.504414
0.596389 -0.265326 0.487252
0.123647 0.609026 0.508081
0.856009 -0.286939 0.508476
0.496791 -0.618287 0.496137
0.326679 1.978170 0.502067
0.254796 2.733104 0.499312
0.204642 -2.883303 0.490463
0.404665 0.719724 0.486554
0.386674 0.126092 0.514568
0.344081 -0.406399 0.505536
0.521134 -2.041198 0.500969
0.510076 0.832242 0.514331
0.403146 -0.613361 0.498314
0.732364 -2.665000 0.503565
0.635125 -0.844008 0.507795
0.606178 -0.153911 0.505225
0.737343 0.593434 0.512375
0.191006 0.641002 0.501545
0.833954 -0.507221 0.511066
0.315415 0.911912 0.490012
0.723591 1.073347 0.494458
0.773449 0.812051 0.504231
0.704692 -0.631119 0.513111
0.751644 -2.454470 0.496426
0.161091 -2.353246 0.493206
0.242957 2.875953 0.482763
0.408593 0.691245 0.501079
0.575008 -2.858556 0.489617
0.405429 1.004151 0.493531
0.898895 -0.662016 0.494690
0.121451 -2.748582 0.504747
0.271766 -2.696318 0.499855
0.205270 -0.609192 0.507408
0.843144 0.061873 0.492002
0.460160 2.715794 0.513666
0.535636 -2.275764 0.500384
0.778684 1.420108 0.509809
0.743748 -2.761453 0.495782
0.814096 -0.684612 0.500287
0.628916 1.819196 0.519237
0.791879 2.373810 0.514909
0.234442 -0.362107 0.501897
0.742868 2.458812 0.501333
0.365032 1.038806 0.486418
0.460320 -1.389673 0.497385
0.392903 -1.939574 0.503752
0.896230 1.169330 0.509531
0.616687 2.264946 0.516057
0.157959 0.992474 0.502963
0.856208 2.885815 0.509370
0.161753 2.632183 0.510773
0.674472 1.181538 0.483833
0.289329 -0.946441 0.496833
0.318734 -1.878189 0.488031
-0.006224 0.931466 0.355875
0.013384 -2.823187 0.142838
-0.008364 2.132576 0.105064
-0.016907 -0.120083 0.156334
-0.010789 2.426208 0.397793
0.003914 0.642929 0.246932
-0.000521 1.535686 0.121130
-0.007719 1.428854 0.273238
-0.014101 -1.539559 0.110486
-0.003164 1.306463 0.125806
0.021088 -1.738436 0.228138
0.001875 -2.410186 0.258273
-0.007303 1.452840 0.097075
0.016564 2.679445 0.218551
-0.005131 -1.484480 0.258736
0.006867 -2.508116 0.151798
0.004841 1.845285 0.399637
0.008965 1.888900 0.182930
-0.007558 2.950562 0.144353
-0.004471 0.238940 0.336127
0.005695 -2.239317 0.228060
-0.004391 -0.774895 0.275208
-0.000320 0.746262 0.378987
0.007064 0.487924 0.160152
-0.007143 2.421104 0.161271
-0.016229 -0.956210 0.220705
-0.006536 0.489673 0.300379
-0.018631 -1.506862 0.092913
-0.007235 -1.542605 0.193758
0.009382 1.631281 0.349463
-0.009957 1.240151 0.257198
0.007622 -1.707670 0.217197
-0.012177 -1.814083 0.216034
0.008779 -2.426639 0.124104
0.005960 -0.226196 0.155741
0.001766 -1.457129 0.255326
-0.018136 1.019918 0.251692
-0.004600 0.897869 0.157414
-0.004631 -0.752678 0.366212
0.020878 -0.470494 0.237127
0.011470 1.175020 0.341473
-0.014914 1.132812 0.219226
0.002407 1.208733 0.383601
-0.001664 1.671603 0.183811
-0.006143 1.921920 0.102519
0.004258 -2.485734 0.147919
-0.002978 -2.498114 0.197170
0.011604 1.993543 0.364202
0.019190 2.817586 0.258399
-0.001425 -2.262572 0.310272
-0.003692 -2.324768 0.336094
0.007518 0.866983 0.108206
-0.010021 0.104485 0.288295
-0.001628 2.219832 0.187335
-0.009422 1.872791 0.213769
0.003580 1.027164 0.271245
-0.002028 -0.740788 0.226276
-0.010808 0.168015 0.121440
0.004259 -2.581458 0.304607
-0.005023 2.898536 0.398554
0.009826 -1.679790 0.305603
0.005945 2.341319 0.126078
-0.007791 -1.954705 0.180458
0.007369 -2.823694 0.371554
0.003609 1.581465 0.272924
0.012460 -0.368939 0.251188
-0.006544 -1.683576 0.233743
0.009652 -0.956225 0.176191
0.009651 2.240341 0.236123
-0.005426 1.803392 0.274962
-0.012036 2.719205 0.263960
0.004181 -1.274347 0.312759
0.001375 1.608345 0.288866
0.011431 -1.641621 0.175843
-0.009443 1.047258 0.298178
-0.014042 -0.240398 0.138965
0.005050 1.844144 0.182301
0.007694 0.400361 0.387521
-0.004190 1.838957 0.129201
0.003564 0.724073 0.221935
0.001388 2.277819 0.144218
0.018027 0.168452 0.227093
0.014400 -1.861896 0.171530
-0.009668 2.261450 0.210846
0.023816 1.773662 0.337230
0.001814 -0.603939 0.216154
0.004987 0.809038 0.171922
0.022873 -1.112545 0.385914
-0.005985 -1.800056 0.151085
0.002089 1.876289 0.274120
0.000413 1.980832 0.131723
-0.003565 -0.387985 0.327464
-0.001896 1.508712 0.211872
0.010888 2.391306 0.295032
0.015067 -2.018096 0.179049
-0.005783 -1.343789 0.291663
0.010359 -0.251005 0.355582
-0.015924 -2.961066 0.368527
0.016011 -0.093154 0.108719
-0.009464 -1.798471 0.128572
0.000508 1.631937 0.158491
-0.011413 -2.614004 0.310056
0.003868 -0.259096 0.138747
0.007942 -0.481643 0.147866
0.003706 -0.807954 0.172596
0.001461 2.119212 0.151364
-0.001786 -0.470942 0.330926
-0.004751 0.813646 0.233363
0.001241 -1.422200 0.259975
0.004692 1.893466 0.338286
-0.008212 0.107440 0.144493
-0.011327 2.010541 0.219459
0.002280 -1.963514 0.176883
0.007031 0.313635 0.215779
-0.015872 0.741003 0.119717
-0.004420 2.246953 0.300641
0.003986 -2.336717 0.217157
-0.013257 -0.737156 0.171781
0.012183 2.087359 0.243186
-0.001064 2.425672 0.281208
0.001380 -2.452360 0.183699
-0.005317 -2.578091 0.389241
0.010926 -0.405317 0.188133
-0.005962 -2.629279 0.385624
-0.011259 2.569593 0.312457
0.006033 -0.106472 0.227924
-0.014013 2.665240 0.358002
0.001434 1.822516 0.110672
0.008671 0.850285 0.229806
0.009337 2.656569 0.217822
-0.004675 -1.134453 0.349207
0.009066 -0.202746 0.322113
-0.006860 2.995525 0.135994
0.001997 -2.977182 0.380859
-0.012033 0.829755 0.362120
-0.007958 -1.624371 0.225056
0.006721 -1.250839 0.384117
-0.002952 2.074467 0.228520
-0.005335 -2.541143 0.342104
-0.010975 -2.600845 0.307140
-0.005473 -2.073507 0.325681
-0.006645 -2.957643 0.259163
0.000506 0.889403 0.352331
0.005678 -0.631207 0.171363
0.002684 -2.849301 0.146446
0.012297 0.940287 0.165268
0.001368 -1.795052 0.210257
-0.023022 1.263741 0.123497
0.017110 0.261571 0.355578
-0.010267 0.517549 0.260637
0.013402 -0.739909 0.167806
-0.008665 1.798023 0.405541
0.009236 1.143602 0.341622
-0.005278 -2.329872 0.241237
-0.013413 0.354837 0.342276
0.002553 1.114920 0.202849
0.005920 -0.072939 0.327864
-0.001007 -0.314499 0.380935
-0.000006 -2.544570 0.394486
-0.001667 -1.967376 0.117031
0.018762 -1.537946 0.277163
0.011228 2.872084 0.325709
-0.014063 -2.238392 0.141448
-0.011806 -0.278452 0.261778
-0.001231 -1.787251 0.144341
-0.007569 -2.705222 0.372206
-0.006319 -0.340428 0.397235
-0.000230 -1.852468 0.182528
0.002020 -1.850401 0.326923
-0.002061 -0.222415 0.293431
0.009670 0.010559 0.159993
-0.010120 -2.305643 0.325817
-0.003423 1.364854 0.392598
-0.003597 -0.986296 0.216600
0.014079 -1.823459 0.137310
0.005616 1.558011 0.403883
-0.010822 0.650369 0.309259
-0.001372 -2.142383 0.302763
-0.000853 -1.612958 0.309419
-0.009208 2.229113 0.139854
0.004543 -0.810154 0.299174
0.007244 0.004146 0.125133
-0.009816 2.671879 0.118758
0.005273 1.837952 0.241123
-0.000529 1.066227 0.220166
0.010831 0.098272 0.116526
-0.014975 -1.274175 0.210320
0.004536 1.663470 0.312570
0.000123 -2.841588 0.331719
-0.003009 -2.449423 0.248857
0.020443 -0.113429 0.134821
-0.006205 0.756055 0.289086
-0.003837 -1.314273 0.140937
0.008344 -0.319271 0.293190
-0.000200 -1.992325 0.304762
-0.004642 -1.352782 0.288909
0.020872 -2.235278 0.248090
-0.010649 0.511524 0.214118
-0.001114 1.404919 0.269563
-0.005214 1.381796 0.340212
0.002958 1.477477 0.111260
-0.001798 0.667305 0.209568
0.006078 0.424171 0.280455
0.029476 -1.620333 0.253711
-0.010728 1.960282 0.258633
0.001372 2.853216 0.257544
-0.007922 -1.158972 0.131077
0.010377 -1.269910 0.139689
-0.000398 -2.209783 0.273176
-0.004513 -1.549647 0.131487
0.007265 1.456934 0.246642
-0.000271 -1.053961 0.368513
0.016934 -1.717154 0.162908
0.004348 0.540653 0.199891
-0.003239 -1.039176 0.134250
0.009059 0.254729 0.206720
-0.026409 -0.703844 0.340649
-0.004195 0.273137 0.196434
0.015026 -1.788923 0.101928
0.003581 -0.296463 0.390110
1.341817 -2.458961 1.000863
1.697441 -0.043015 1.001058
1.223813 -2.953293 0.999946
1.117144 -0.946849 0.993581
1.371258 -3.001634 1.001384
1.771311 -1.115862 0.994592
1.347522 -2.055875 0.996234
1.384399 -2.694621 0.996099
1.293081 -0.210455 1.004885
1.285731 2.772167 1.000859
1.693348 2.039903 0.988882
1.412339 -2.068889 1.009665
1.612032 -1.283961 1.008774
1.870481 -2.918741 1.004787
1.728413 -0.130887 0.990416
1.534742 0.635813 0.993873
1.818317 -0.319073 1.003633
1.496778 2.816821 0.986351
1.676639 -1.560084 1.009129
1.458267 1.206419 1.012741
1.447287 -0.742646 1.018529
1.779145 2.713652 1.003672
1.650222 -2.549619 0.986330
1.219554 2.156572 0.995523
1.700862 -2.329675 0.985821
1.098386 -1.210206 0.997091
1.294708 3.001151 0.981509
1.767914 -2.063579 0.992034
1.256927 0.030687 0.979512
1.330155 0.360842 1.006007
1.651473 1.070711 0.998748
1.367993 -1.871087 1.015588
1.380534 -2.244681 1.019328
1.266325 2.494333 1.003069
1.378728 1.346450 0.999703
1.496359 0.122655 1.006723
1.737501 1.968545 0.988643
1.614744 -0.195400 1.000473
1.564667 1.691875 0.992718
1.870821 1.233853 1.000311
1.784711 -2.983941 0.980338
1.256046 -2.153740 0.994811
1.151384 -0.307494 0.988521
1.564762 -1.212503 0.991979
1.253472 -2.893115 1.001297
1.247826 0.036905 1.009304
1.353127 0.702513 1.002425
1.579197 -0.003862 0.999098
1.698044 -2.831211 0.985901
1.716974 0.248336 0.994737
1.663457 -2.874210 0.990543
1.819809 -2.347616 1.027788
1.556573 -0.372374 0.992760
1.737573 1.754573 1.005982
1.235621 1.998879 0.989075
1.409806 -1.013902 0.997229
1.741163 0.858934 0.986059
1.314413 2.383747 0.976905
1.566537 -0.070940 1.003914
1.489742 2.197463 0.993874
1.509566 0.449553 0.984378
1.709548 -0.532462 1.002253
1.202423 -2.720308 1.004176
1.557264 1.537662 1.006411
1.100243 2.109818 0.991117
1.810991 -0.359795 1.009423
1.596148 0.229316 0.992370
1.361387 -0.283880 0.989125
1.178650 -1.708327 0.993900
1.343463 -0.214976 1.001369
1.701236 -2.947969 1.005520
1.444520 0.076218 0.986725
1.228488 2.684250 1.006557
1.597959 -0.014466 1.011262
1.750352 2.632785 1.000223
1.781559 1.247704 1.008730
1.767670 2.069130 1.013411
1.118424 2.867020 1.011744
1.711672 -1.296128 0.990424
1.825577 -2.207327 1.004167
1.111533 2.679329 1.023210
1.857604 -2.331430 1.015267
1.839418 -0.375585 1.004282
1.668671 0.002161 0.993479
1.188193 -0.942785 1.006656
1.168686 -2.367006 1.005695
1.286492 -1.036645 1.001368
1.792721 -2.834921 1.004814
1.507772 1.617076 1.009460
1.581309 0.417258 1.023030
1.493571 1.597928 0.994587
1.879832 -1.344924 1.007512
1.514535 -1.938645 1.001377
1.465662 -0.751053 0.992065
1.114103 -1.652497 1.018009
1.687426 2.132127 1.005129
1.297155 1.828210 1.008577
1.325769 -0.234214 0.990253
1.526797 -0.836901 0.995161
1.637783 -2.888142 1.012399
1.876490 -2.637580 1.003263
1.253000 0.823442 1.002210
1.318537 2.575500 0.994005
1.519494 -1.058247 1.015582
1.804489 -0.968538 0.993184
1.489724 0.644976 1.014931
1.694671 -0.817287 0.989524
1.899867 -1.190977 0.997308
1.842387 2.151032 0.999842
1.138354 -0.760860 1.004328
1.369740 -1.282379 0.997705
1.470965 2.068911 1.019858
1.548683 -0.205368 0.993461
1.724421 -0.177368 0.981772
1.843973 -2.187232 0.983803
1.841477 0.715299 0.994484
1.545707 2.089717 0.997568
1.804686 1.485931 1.008742
1.475355 2.373541 0.990587
1.848313 1.637501 0.981218
1.511802 -2.610634 1.009024
1.615686 -1.449551 1.005324
1.428815 -0.590409 0.989669
1.556723 -0.323445 0.993413
1.524765 -2.107313 0.993953
1.717552 2.110220 0.992979
1.405283 -0.877637 0.983616
1.553426 0.129553 0.987049
1.781273 -0.403242 0.997043
1.785532 1.476789 1.002315
1.873743 -2.260461 0.995597
1.412299 -0.981370 0.986526
1.410702 1.694219 1.003087
1.703122 0.848890 1.004226
1.463351 2.660841 1.001041
1.101274 -0.983931 0.988473
1.818862 0.064704 0.979639
1.199090 -2.236171 1.002482
1.766486 -2.568051 0.993005
1.458767 -1.760316 1.008287
1.580263 -1.687417 1.000726
1.737626 1.687833 0.993449
1.467180 -2.310711 1.015696
1.616330 2.384191 0.992045
1.274593 1.697712 1.008476
1.327968 -0.283977 1.008808
1.766380 -0.330314 0.991398
1.316200 2.296262 0.991389
1.896329 -0.314712 0.987771
1.759215 -2.815681 0.993709
1.214536 2.538339 1.008399
1.548211 -1.566140 1.004468
1.188415 -2.252202 1.002344
1.420115 -1.435774 0.998407
1.886282 2.393779 1.023467
1.827820 -1.833832 1.013394
1.633717 1.900805 1.015685
1.250646 0.093019 0.979665
1.428258 -0.206009 1.001687
1.115158 1.130889 0.992135
1.131388 1.198962 1.010503
1.419257 2.234717 1.006273
1.626413 -1.540277 1.015766
1.490156 0.998355 1.007509
1.487895 0.741756 1.011527
1.842986 1.473148 1.004783
1.297589 2.905495 1.006625
1.731638 0.975101 0.994235
1.665347 2.686616 1.008794
1.640856 1.177240 0.985354
1.509797 1.547577 0.996412
1.713792 1.672106 1.008835
1.582033 1.188869 0.997463
1.379585 1.585026 0.996458
1.300642 1.472861 1.004560
1.186795 0.865890 1.005240
1.702924 -1.912582 1.002845
1.240518 2.221617 0.986943
1.720507 -1.356604 0.989394
1.847786 -2.685642 0.993405
1.103798 -1.364520 1.006629
1.163128 0.336887 1.013587
1.599729 -1.249632 0.977445
1.805825 0.003117 0.993335
1.762339 -2.549332 1.008934
1.725370 2.647818 1.011302
1.223576 0.687455 0.996592
1.191788 2.824109 1.003257
1.729735 -1.200150 0.998307
1.618359 0.200784 1.001583
1.108168 -2.455936 0.989661
1.326242 -0.245603 1.010486
1.159195 1.518735 0.997300
1.303723 0.470710 0.989778
1.780175 -2.798146 1.003648
1.547462 -1.027021 1.007601
1.499244 0.074877 0.988406
1.213258 1.884299 1.001980
1.638814 0.407679 0.995549
1.402783 -2.467671 1.004945
1.151524 -0.093378 1.011814
1.642544 0.872560 1.005450
1.531741 -2.497442 0.997121
1.651516 0.762813 0.990924
1.315542 1.817263 1.018076
1.676254 -1.520190 0.990830
1.282619 1.516636 0.999837
1.451730 0.741670 0.997169
1.752113 -0.883498 0.988288
1.669061 -0.223267 0.985896
1.138230 2.875012 0.987438
1.774498 -0.611498 0.992379
1.414436 0.111523 0.989080
1.703739 -0.603514 1.010180
1.792111 -2.076799 0.999584
1.602130 -1.620148 0.990425
1.421199 -1.421399 0.987287
1.276878 -0.348152 0.985202
1.743432 -0.514712 0.997203
1.594417 -1.009993 1.002538
1.006358 -1.462809 0.696999
0.989039 -2.541277 0.759001
1.012728 1.947463 0.614007
0.983533 -1.793012 0.853843
1.006890 2.356084 0.768531
1.000791 -0.283888 0.828020
1.000562 2.616741 0.634932
1.000237 1.097423 0.891500
1.010158 1.484774 0.900501
1.010493 0.127503 0.855403
0.993832 -2.880677 0.813776
0.980979 -2.765083 0.697277
0.994569 -2.104259 0.726139
0.988506 -1.145821 0.697596
0.984370 0.642345 0.620919
0.984308 -0.459720 0.764944
1.002780 2.381597 0.674620
0.978493 -2.443431 0.854337
1.004002 1.299858 0.900486
1.005462 -2.139612 0.744380
1.001384 -2.014623 0.742310
1.010080 -0.238596 0.763179
0.972918 2.965750 0.735517
0.988896 -1.273632 0.619276
0.992024 1.001712 0.630923
0.990673 -0.525374 0.791537
1.000493 0.424040 0.745590
1.005221 0.557030 0.642556
1.001271 1.381853 0.671569
1.011748 0.018240 0.692876
0.984653 -2.007304 0.747397
0.995186 1.258168 0.673174
0.999181 2.535136 0.723753
1.014836 1.383654 0.653977
1.002473 -2.860923 0.720308
0.996410 2.326532 0.701893
0.997528 1.297099 0.881493
0.996693 0.305277 0.769731
1.011752 -1.670587 0.620784
1.002210 -1.765774 0.858659
1.010745 1.574802 0.638043
0.997296 1.425409 0.788541
1.007708 -1.636058 0.648822
0.990633 -0.590761 0.711139
0.984736 -1.410454 0.814362
1.009606 -2.848492 0.694690
1.006713 -0.698112 0.752983
1.013133 -2.735673 0.639846
1.002382 2.112025 0.776082
1.007300 0.352355 0.737831
1.005906 -2.579393 0.807542
1.012533 2.896868 0.910977
1.004303 1.394220 0.790721
0.996896 0.599454 0.790881
0.992563 -0.713641 0.717467
0.978909 -2.890362 0.732692
1.010158 -2.538803 0.607282
0.997686 -1.838980 0.828660
1.003565 -2.571982 0.705033
0.995994 2.774742 0.826907
1.018209 3.011204 0.619480
0.992613 -2.198163 0.655012
1.001970 2.072142 0.763558
1.010639 2.314788 0.669417
0.999023 2.784928 0.601867
0.998665 -1.125980 0.674006
1.018198 0.119379 0.741555
1.000520 0.558008 0.789146
0.995282 -0.447981 0.743646
0.994005 -0.727615 0.752902
1.003544 -0.250894 0.630878
1.000834 2.858145 0.764716
0.995088 0.228348 0.716852
0.996334 1.829814 0.853036
0.993790 1.138429 0.779791
0.976715 -1.537606 0.728406
0.995060 0.884780 0.653871
1.006142 1.523547 0.679205
1.001140 -0.877298 0.723308
0.989858 2.675503 0.611934
0.996651 -2.058608 0.858299
1.008524 -2.024158 0.616784
1.000786 -2.180685 0.797728
0.994333 2.811111 0.631603
1.006842 0.658233 0.852606
0.998456 1.720865 0.792236
1.000363 1.189220 0.834073
0.994586 0.392498 0.775558
0.989427 -1.303836 0.801270
1.007900 0.355401 0.885212
1.020443 0.084968 0.775955
0.981234 1.333992 0.591304
1.002321 -1.901921 0.651261
0.999640 0.904809 0.897284
1.004560 -1.499149 0.641335
1.002153 0.330782 0.667229
1.004367 2.894669 0.812853
0.988580 -0.344462 0.744592
1.009109 -0.293280 0.651205
1.009607 0.932517 0.771335
0.990979 -0.560050 0.784249
0.994216 2.378417 0.635502
1.003468 1.689935 0.819099
1.002112 2.244885 0.712153
0.993367 -1.913293 0.859043
1.012853 1.212253 0.698314
0.994936 -0.897140 0.822928
1.003861 1.063882 0.847148
1.006765 -2.234729 0.762698
0.988961 -0.612087 0.809962
1.004672 1.620551 0.851475
1.006719 2.996639 0.824917
0.994865 -1.773508 0.776226
0.997933 1.154881 0.859370
0.999627 -2.820851 0.873547
0.984609 0.309777 0.819633
0.980194 1.225035 0.644400
0.999469 0.622150 0.850730
1.002319 2.254596 0.628602
1.005354 -2.373073 0.761820
1.004878 1.461529 0.806882
1.007895 2.529084 0.729975
1.012150 0.909192 0.765507
1.001166 -1.542979 0.841348
0.993074 -1.759434 0.721724
0.989321 -2.573759 0.736875
1.013710 0.694887 0.883054
0.981920 -0.030263 0.698436
0.995386 0.031386 0.815401
1.000081 -2.202590 0.688071
1.010970 0.573732 0.665219
1.013489 -1.166149 0.645325
1.001620 -0.651362 0.901475
0.976512 0.013516 0.591848
0.994979 1.733358 0.791348
1.002788 -2.464727 0.730987
1.010429 2.492323 0.673252
1.026675 2.282654 0.834055
1.006610 -2.165014 0.857092
0.992604 0.253440 0.803888
1.000781 2.496045 0.774040
1.000928 -1.143290 0.637374
1.013819 2.122721 0.725362
0.990631 -0.985807 0.807490
1.017551 1.983927 0.894396
1.002844 -1.286848 0.779211
1.012438 -0.116765 0.767408
1.028618 -1.291090 0.727249
0.992438 -1.266257 0.791892
0.979578 0.102078 0.812895
1.006033 2.921909 0.633829
1.006585 -1.564254 0.604522
1.020506 -2.417226 0.646245
0.988839 -2.898824 0.649382
1.003103 2.852254 0.629833
0.980385 2.798817 0.896818
0.990451 -0.409929 0.852802
0.999879 1.461664 0.846529
1.016353 -2.419413 0.727398
1.003360 1.441787 0.714275
0.996498 -0.800543 0.717637
0.999887 0.285287 0.739097
0.987177 0.420628 0.851686
1.017068 -1.413269 0.668133
1.000445 2.278466 0.742301
1.000400 2.905781 0.739902
0.996945 2.372754 0.865072
0.998078 0.059997 0.766074
0.990952 -1.099540 0.803246
0.993807 -0.576146 0.650904
0.995190 2.569028 0.754765
1.000186 -0.259061 0.653470
1.002830 -2.574871 0.876904
1.004079 -0.365225 0.687533
1.006716 1.947048 0.858513
0.976870 2.503663 0.715227
1.000414 0.190472 0.834749
1.013624 -2.565716 0.693485
0.992155 -2.855250 0.815087
1.008220 -1.344780 0.675030
0.974159 -1.158337 0.742684
0.994417 -1.525550 0.885156
1.008668 -2.367676 0.773012
1.006653 -0.287757 0.895611
0.996787 -1.651453 0.610991
0.999767 0.574659 0.593085
0.981025 -2.121706 0.895199
1.001199 -0.900062 0.637535
1.013778 1.897226 0.891848
1.000906 0.426926 0.802193
1.002956 -2.643572 0.722988
0.996998 -1.890330 0.708267
0.982754 -2.619029 0.813273
0.994491 -0.122446 0.811078
0.994544 -0.966805 0.686573
1.000402 0.396254 0.620107
0.992745 2.530447 0.711771
1.009418 1.053911 0.643478
1.003179 0.694241 0.659610
1.010057 -1.206092 0.895318
1.002015 -1.209626 0.585744
0.992493 1.481746 0.692129
1.008109 1.645694 0.604418
0.995880 -0.849746 0.852817
0.996607 1.427698 0.807297
1.002549 -1.802649 0.665603
0.997296 -0.681243 0.608756
1.001824 0.202004 0.751708
0.992254 2.846520 0.851616
0.990858 2.449728 0.683595
1.016132 -1.658236 0.707394
1.001563 -2.005949 0.776704
1.007818 0.857195 0.655702
1.000981 2.621904 0.871596
0.996940 -2.335850 0.714208
0.986688 0.310071 0.665942
0.993689 1.317146 0.590849
1.007495 0.231542 0.858663
0.979344 0.685478 0.836573
0.994340 -0.283104 0.593283
2.572127 -0.096998 1.491953
2.196507 -1.107677 1.477391
2.829964 -2.293896 1.511704
2.663029 -1.605888 1.514372
2.864842 -1.565922 1.498319
2.646062 -1.010541 1.495862
2.112336 -2.010690 1.516465
2.169611 -0.136961 1.487686
2.430964 2.826756 1.494183
2.323463 -0.542076 1.489280
2.712127 1.503608 1.505568
2.434737 2.877909 1.504261
2.885201 2.966856 1.514488
2.567177 -1.018221 1.474066
2.780650 2.869593 1.485843
2.199430 2.601178 1.496273
2.768546 1.203355 1.506686
2.379878 -2.385242 1.496956
2.572943 -0.035988 1.495235
2.552972 -2.374037 1.498392
2.235941 0.487938 1.494527
2.543634 -2.579421 1.502428
2.175285 0.036674 1.508940
2.191123 0.360585 1.489000
2.296802 0.627806 1.496942
2.597528 -1.598077 1.500054
2.603039 2.254529 1.507554
2.245121 -1.216247 1.489032
2.779249 0.195273 1.498372
2.759517 -1.421168 1.495488
2.700748 -1.371060 1.495087
2.278922 -1.830228 1.500090
2.806760 -1.916122 1.491433
2.601048 1.207655 1.498939
2.871881 -0.924743 1.496126
2.423283 0.900392 1.497184
2.578372 -1.645552 1.505065
2.605167 1.909976 1.489179
2.716343 -1.924304 1.490658
2.847703 0.889222 1.501566
2.351478 -1.291428 1.519350
2.700058 -2.942797 1.512138
2.233157 2.564653 1.491370
2.846298 2.535423 1.500121
2.472770 -1.217061 1.504158
2.678771 1.858233 1.497513
2.132312 1.108521 1.501886
2.705727 2.888825 1.484375
2.653009 -2.992065 1.497331
2.238634 -1.682824 1.493183
2.712046 -2.219172 1.494083
2.394259 1.771772 1.506955
2.307065 1.797743 1.483409
2.814782 2.353959 1.495660
2.563860 -1.862976 1.514094
2.799931 0.697490 1.494614
2.409325 -0.239111 1.505540
2.334954 -1.662734 1.496051
2.423845 2.820762 1.500415
2.576504 -0.280150 1.505263
2.768805 2.001830 1.504038
2.611934 -1.053046 1.484818
2.756269 -1.084520 1.490118
2.528728 1.364405 1.479832
2.314744 -0.410547 1.497304
2.540828 -0.329778 1.497416
2.537140 2.426524 1.498301
2.319529 -1.467768 1.503247
2.164542 -0.805464 1.501894
2.743616 0.255603 1.494226
2.663019 -0.328483 1.515657
2.748227 1.986877 1.512680
2.140923 0.571530 1.503996
2.154606 1.210653 1.501666
2.437332 -1.730110 1.499698
2.257735 -1.475617 1.495115
2.695890 -1.521001 1.488245
2.320454 -1.360588 1.481139
2.819390 -2.959232 1.494347
2.208405 1.631440 1.472094
2.284304 -0.765171 1.499424
2.663721 2.340653 1.510257
2.436802 2.689589 1.490200
2.454586 -2.628699 1.499360
2.472675 -0.941549 1.498599
2.640786 0.437360 1.494542
2.705564 -2.393545 1.501774
2.538996 1.873777 1.512030
2.703835 -2.900559 1.499568
2.712891 0.341905 1.501085
2.542997 1.826497 1.491711
2.500985 2.080140 1.505820
2.350894 -0.163870 1.503097
2.448930 0.017787 1.512244
2.652095 1.313983 1.491777
2.382164 -1.386421 1.514805
2.125494 -2.733436 1.497603
2.874635 0.305278 1.474653
2.473710 -2.092685 1.494149
2.742010 -1.003865 1.493173
2.651261 0.435916 1.496241
2.253792 1.935237 1.500950
2.162428 2.529010 1.498420
2.395017 0.296131 1.504650
2.717806 0.354458 1.498109
2.582432 -1.861143 1.480561
2.230305 0.124864 1.496751
2.365363 -0.702654 1.489869
2.597478 2.793044 1.508559
2.211110 -1.535244 1.498086
2.398868 -1.168692 1.498527
2.576809 0.245990 1.503809
2.638980 2.464565 1.499009
2.765808 1.014408 1.499971
2.623433 2.537878 1.480714
2.504807 0.772871 1.486583
2.252014 1.435688 1.494183
2.347868 -1.696028 1.485285
2.516644 0.475635 1.500931
2.124474 -2.053328 1.496083
2.174226 2.498671 1.515979
2.152184 1.838470 1.511511
2.300027 -1.421995 1.498134
2.676876 -2.177740 1.506149
2.282776 -2.352044 1.487999
2.692731 0.489380 1.502537
2.819437 2.061711 1.493856
2.868314 -0.791958 1.485036
2.673784 0.205815 1.492133
2.708391 0.717697 1.502148
2.217572 -0.035159 1.508658
2.674868 0.327132 1.485470
2.764642 1.934921 1.507986
2.311117 0.252788 1.517003
2.168539 -0.931304 1.511808
2.448269 2.705078 1.493859
2.525975 -0.324246 1.510953
2.184263 -0.378258 1.500929
2.594990 0.934871 1.504158
2.776135 1.371905 1.510387
2.703656 -2.844610 1.500637
2.865945 -2.406339 1.512057
2.707725 0.171108 1.518786
2.477020 -0.714640 1.504249
2.493379 -0.714527 1.494030
2.550133 -1.751227 1.493041
2.331199 -0.155968 1.479438
2.798316 2.113656 1.492946
2.717399 0.528780 1.493043
2.702650 1.720999 1.494577
2.216910 1.187280 1.481176
2.327876 1.411577 1.508248
2.784754 -0.723036 1.502782
2.427028 0.242971 1.507331
2.732496 1.254412 1.505189
2.319557 0.383964 1.501713
2.262147 -0.080161 1.504771
2.894807 -0.180993 1.496898
2.546896 -2.055442 1.495676
2.489940 1.460575 1.513822
2.706629 -0.071464 1.494159
2.474564 1.826168 1.521556
2.330488 -0.526394 1.497099
2.774922 -0.209205 1.501923
2.196685 1.097320 1.495395
2.408092 1.475991 1.481943
2.308787 1.616890 1.510908
2.789749 2.423266 1.491921
2.888591 -0.077551 1.505276
2.533462 -2.170359 1.491953
2.416584 -1.488109 1.503630
2.840398 -1.709490 1.500681
2.217088 2.107848 1.500980
2.276076 -1.604139 1.502616
2.725821 -1.641349 1.493546
2.151487 2.834680 1.497902
2.729147 1.296147 1.512036
2.755425 2.540138 1.491758
2.738419 -2.921656 1.507840
2.263865 2.586297 1.489402
2.388456 -0.274981 1.489065
2.324885 1.006555 1.476066
2.585575 -0.800997 1.513307
2.861388 2.656932 1.485023
2.333526 2.073592 1.497144
2.196972 -2.752907 1.498289
2.258911 0.389438 1.479180
2.478850 -2.420601 1.503961
2.597810 -0.992656 1.510414
2.317388 1.355847 1.482919
2.132584 -0.955172 1.487784
2.209125 -2.695455 1.493583
2.415049 -1.590353 1.492501
2.516616 2.221599 1.495383
2.210687 -0.723171 1.490448
2.782017 1.691610 1.484822
2.520896 -0.603497 1.505745
2.127801 -1.703284 1.494439
2.433320 -2.080698 1.502559
2.393263 -1.596793 1.501670
2.436901 1.558175 1.499419
2.693539 2.198881 1.497845
2.289330 -0.057924 1.506097
2.798362 2.705921 1.481879
2.707342 -2.774206 1.501345
2.107164 -0.455743 1.483978
2.263100 2.917872 1.514711
2.149700 2.102695 1.497908
2.153504 1.661011 1.482753
2.127811 -1.427408 1.498435
2.788505 0.018363 1.514502
2.452123 -2.014303 1.499255
2.139781 0.299393 1.502283
2.808854 0.241326 1.505989
2.575714 -2.080773 1.486660
2.714822 -2.497743 1.501866
2.325562 -1.868923 1.497219
2.270052 -2.015624 1.472098
2.619978 -1.335489 1.507237
2.723791 -0.722097 1.475978
1.990697 -2.112242 1.274328
1.990067 -0.414571 1.102057
1.985684 -0.286811 1.265905
1.995009 -0.846189 1.135350
1.985201 0.633810 1.375003
1.987620 0.881214 1.331646
1.987944 0.761309 1.224633
2.000512 2.511284 1.141313
1.988430 1.720672 1.232083
2.002637 1.405383 1.258759
1.991358 2.759364 1.292651
1.994589 0.375168 1.164672
2.027220 -1.453623 1.274922
2.004261 2.532422 1.118398
2.012493 2.053077 1.117368
2.002459 -2.145127 1.358957
1.992592 -1.481405 1.121294
1.983402 2.072772 1.337028
1.972669 1.097379 1.110081
1.991808 0.370078 1.217193
2.021164 -0.138984 1.289027
2.000318 2.165640 1.195070
2.021030 2.154041 1.201838
1.999875 -0.688403 1.200405
1.990192 0.879491 1.145656
1.991487 1.252379 1.381952
2.001703 -0.609060 1.343342
2.006316 2.448652 1.123975
2.004649 -0.363354 1.125793
2.001717 0.263580 1.355762
2.005985 1.937316 1.103098
2.018484 0.965515 1.347224
2.002517 0.095169 1.297784
2.003424 -0.156427 1.167598
2.006487 0.743005 1.286019
2.021262 -1.069480 1.133512
1.977536 -1.238695 1.212378
1.998209 -2.553921 1.252782
1.988871 -1.564540 1.249091
2.010818 -2.294540 1.318688
1.991726 2.283725 1.121264
2.011572 0.979847 1.280758
2.006625 -1.096357 1.138724
2.011014 -2.138421 1.186334
2.006315 2.317471 1.368461
2.010493 -2.919627 1.237568
2.004216 1.990093 1.153486
1.999098 -0.665143 1.303630
1.992749 -2.027101 1.187736
1.988212 -2.202717 1.182715
2.000279 0.707431 1.300229
2.005342 -2.439723 1.227008
1.990049 -2.323183 1.099474
1.992568 1.289635 1.206503
1.997538 1.217794 1.145344
2.010147 2.191759 1.392651
1.988514 -1.560496 1.271540
1.997705 0.524686 1.221979
2.014350 -1.897613 1.167238
2.002844 -0.977414 1.187571
1.988029 -1.844995 1.259746
2.000465 -2.355084 1.107711
1.978487 1.020345 1.142240
1.997863 -2.378763 1.134463
1.992813 0.957733 1.138928
1.986527 1.631515 1.353394
2.012777 0.092446 1.262760
2.014454 2.509539 1.100611
1.987861 1.847254 1.133337
2.001967 -2.944869 1.156975
2.011337 2.647018 1.207699
1.996238 1.315067 1.242487
1.985044 1.153260 1.210522
1.991377 1.075955 1.200942
2.004027 2.952631 1.206617
1.999466 -1.260743 1.175354
1.981006 -0.542845 1.277174
2.006039 0.431315 1.299359
1.999703 1.434282 1.267795
1.999052 1.722000 1.316608
1.990244 -0.299052 1.206904
1.978208 0.650276 1.199659
2.003185 0.766652 1.325438
1.992305 1.375329 1.140988
2.009053 -2.618058 1.137534
1.997928 0.401856 1.155541
2.004662 0.770117 1.241745
1.987358 0.787420 1.167725
1.983666 -1.811855 1.390259
1.995942 -1.486708 1.119823
1.999605 -1.715912 1.095989
1.988729 2.104576 1.365700
1.993060 -1.154851 1.269732
1.991609 1.431255 1.259913
2.000117 -0.069365 1.132088
2.000773 0.903524 1.332777
2.002925 -1.128328 1.384634
2.024507 -0.943802 1.186434
1.992086 -1.645906 1.199168
1.987080 1.684810 1.264407
1.993375 1.611124 1.256092
1.987912 -1.281529 1.273248
1.998682 -1.051261 1.318478
2.001531 -0.383059 1.164145
1.996270 0.903227 1.277635
2.002137 -1.639615 1.186373
2.005123 -2.836939 1.325288
1.990120 1.343198 1.106655
2.005718 -0.229097 1.243189
1.996032 -1.559454 1.230476
2.003507 -1.521555 1.371493
2.002892 -1.972430 1.345111
2.004460 -2.593265 1.384534
2.003398 -2.288970 1.191771
1.991109 -0.528126 1.297038
2.002588 -1.995213 1.089192
1.992990 0.809973 1.114174
1.997821 0.846233 1.293102
2.006516 -1.793087 1.193884
2.004790 -2.811849 1.144329
2.001857 1.695285 1.194358
1.997637 0.208469 1.379639
1.990932 0.600504 1.298990
1.996776 -2.791289 1.247780
2.009551 0.877428 1.371274
2.007880 -2.613631 1.340102
2.007925 -1.586641 1.244086
2.013652 -1.663568 1.239904
2.005823 -0.155530 1.387691
1.992792 2.263087 1.145395
2.009197 0.318811 1.171831
2.000652 -1.540014 1.392953
2.020876 -0.673843 1.155579
1.990316 0.255398 1.116906
2.004428 -1.108876 1.212363
2.004254 2.574077 1.331737
2.003498 -2.090328 1.309547
2.000208 -0.626781 1.167452
1.998176 -0.401795 1.303132
1.999969 -2.799059 1.364500
2.014499 -1.808150 1.288153
2.018661 1.936327 1.365550
1.997617 -2.086513 1.195213
2.005032 0.853945 1.119819
1.996487 0.534704 1.155033
2.001989 -0.735709 1.345509
2.004674 -0.917139 1.369143
1.996616 1.232013 1.233544
2.014327 -2.841114 1.394432
1.999460 1.060422 1.132382
2.006832 -1.573315 1.155443
1.990758 2.576801 1.146574
1.998928 1.973507 1.294588
2.005667 1.983561 1.377822
2.008146 1.699154 1.238243
1.972307 -1.938183 1.286841
2.010693 2.922285 1.239570
2.005926 -1.119098 1.287077
1.998097 -2.906156 1.283826
1.988253 1.829100 1.120222
1.999923 1.958465 1.309953
1.999971 2.927922 1.282557
2.001639 2.542028 1.306572
2.012707 2.000655 1.258395
2.013142 -1.627753 1.312660
1.998460 -2.893723 1.195132
1.998355 -0.022986 1.237157
2.016236 1.761420 1.158786
2.000774 -0.074919 1.221259
2.005656 -2.599507 1.363388
1.998646 2.648953 1.191420
2.004024 -1.192943 1.293457
1.995809 2.054165 1.141615
1.999729 1.423789 1.219046
1.993380 -0.790886 1.163245
2.011103 0.438105 1.219620
2.006305 1.086830 1.286098
2.009109 -1.313866 1.318421
2.018933 -0.389654 1.230760
2.010486 1.423610 1.208073
1.996886 -1.134757 1.234166
2.001959 -0.481773 1.153753
2.006553 -2.776562 1.122190
2.007933 -1.439853 1.158489
1.991823 1.082260 1.337847
1.981327 0.954157 1.359077
2.000764 2.372900 1.210521
1.986792 -1.675519 1.138940
1.986674 -2.654263 1.391120
1.990524 0.446307 1.159070
1.984164 -1.505564 1.298876
1.985436 1.636604 1.191723
2.026628 -0.890013 1.226285
2.008240 0.464622 1.356103
2.006887 -1.012169 1.373242
1.998085 -2.327667 1.169331
2.010811 2.788725 1.271455
2.023335 -0.545596 1.394083
2.011365 -0.041638 1.319646
1.997192 -0.289974 1.133364
2.008788 -0.574032 1.258376
1.972125 -2.341797 1.309576
2.007621 -0.824434 1.249036
2.014514 0.705540 1.328406
2.002272 -0.219396 1.289043
1.985111 2.782229 1.120968
2.000896 2.089022 1.352306
2.010242 1.178910 1.198828
2.006305 0.155769 1.131825
2.003427 0.734242 1.168973
1.986779 2.253292 1.145141
2.009944 -1.811976 1.293446
1.997299 2.849812 1.366450
2.000712 -1.037375 1.379441
1.991347 -0.696258 1.254531
2.000772 -2.325963 1.363902
1.999656 -2.769844 1.119601
1.999561 1.633230 1.216365
1.993777 2.329260 1.255472
1.998147 1.883778 1.206178
