# .PCD v0.7 - Point Cloud Data file format
VERSION 0.7
FIELDS x y z
SIZE 4 4 4
TYPE F F F
COUNT 1 1 1
WIDTH 2640
HEIGHT 1
VIEWPOINT 0 0 0 1 0 0 0
POINTS 2640
DATA ascii
-2.275886 -1.200549 -1.021172
-2.549430 -0.083298 -0.983837
-2.211354 0.968134 -1.006986
-2.361000 2.722745 -0.989837
-2.802340 -1.274059 -1.000920
-2.123822 2.539286 -0.979402
-2.292976 -2.829687 -0.986065
-2.288557 0.324529 -1.006691
-2.798308 0.803248 -0.970038
-2.550463 -2.362326 -0.993835
-2.603377 -2.156861 -1.010448
-2.157523 -0.480200 -0.996724
-2.379206 2.811517 -0.990630
-2.241078 0.564538 -1.006000
-2.547465 2.600663 -1.004783
-2.727566 1.814283 -1.016512
-2.458682 -0.210407 -1.010005
-2.852885 1.695222 -0.996202
-2.230493 -2.898474 -1.004370
-2.389294 -2.352276 -1.007827
-2.281565 1.985414 -0.993985
-2.607123 1.761130 -0.986462
-2.119521 -1.594048 -0.996128
-2.185014 0.181864 -0.996329
-2.280411 0.644774 -1.015865
-2.749705 2.226882 -1.006261
-2.529010 0.609817 -0.996642
-2.872320 -0.526427 -0.991511
-2.783556 -0.747010 -0.991778
-2.343011 -0.443302 -0.967587
-2.293645 0.914835 -1.008759
-2.126963 2.219207 -0.982905
-2.624557 -0.268767 -1.012557
-2.598761 -1.525377 -1.014875
-2.521964 -1.574794 -0.990966
-2.743452 1.481402 -1.009847
-2.797112 1.884341 -1.020034
-2.512030 -2.375863 -0.991275
-2.707389 -2.606840 -0.994097
-2.370760 0.548143 -0.998767
-2.554987 -2.127362 -0.980247
-2.249116 1.951814 -1.009948
-2.330705 -1.135008 -0.996207
-2.659556 -2.144424 -0.990727
-2.216484 2.530626 -1.008974
-2.252799 -1.982535 -0.998976
-2.575399 -1.299083 -1.000421
-2.663142 -2.074346 -1.007664
-2.362099 -2.297177 -0.988084
-2.773077 -2.855072 -0.998654
-2.743186 -2.654118 -0.992869
-2.903935 -1.962488 -0.995081
-2.272233 -2.679973 -0.989275
-2.360529 0.560162 -1.019315
-2.333334 1.091234 -1.015266
-2.281966 -0.646622 -0.999783
-2.516589 -1.071828 -1.008143
-2.439741 0.032745 -0.996124
-2.784173 2.253067 -0.983124
-2.797351 2.096188 -0.992043
-2.356354 -2.736000 -0.988686
-2.521242 -1.909005 -0.998788
-2.467993 -1.580335 -1.006683
-2.299865 -1.489334 -0.994958
-2.392524 0.421748 -0.997038
-2.447222 -0.510695 -1.000048
-2.443954 -2.723835 -1.000576
-2.661133 -0.759653 -1.005016
-2.873970 0.161754 -1.003239
-2.547709 -2.370021 -1.005500
-2.710186 2.000805 -0.982181
-2.565675 -2.685158 -1.000656
-2.223518 2.549809 -0.991026
-2.712980 -2.408487 -1.002508
-2.843433 2.073701 -1.006672
-2.681579 2.419713 -0.984725
-2.653665 2.864906 -1.002641
-2.379773 1.809480 -0.983956
-2.468600 1.660677 -1.008286
-2.270008 0.861107 -0.995625
-2.356792 1.656347 -0.988117
-2.578012 -2.185372 -1.013234
-2.248734 0.218771 -0.988442
-2.782274 0.085645 -1.010852
-2.876775 2.153205 -0.987128
-2.833312 -0.213932 -0.986391
-2.338545 -0.683340 -0.990415
-2.533086 0.825272 -0.990570
-2.782978 -1.403004 -1.000401
-2.492009 -2.167656 -1.006846
-2.777161 -0.122672 -0.977126
-2.358018 -0.495510 -1.010865
-2.532887 -1.613966 -1.006747
-2.601076 -0.795691 -0.996768
-2.653953 -0.801703 -1.013299
-2.388496 -1.035556 -0.988383
-2.617627 -0.739238 -1.000340
-2.816921 1.116069 -1.001997
-2.814299 -1.201164 -1.010296
-2.137736 2.698848 -1.018560
-2.160389 2.504330 -0.991008
-2.334653 -0.116149 -1.010631
-2.688705 -1.039585 -0.995138
-2.116591 0.227377 -0.996282
-2.267754 2.088392 -1.004783
-2.321751 0.911659 -0.997308
-2.551123 1.817535 -0.993646
-2.673340 0.186477 -0.993294
-2.828215 0.797671 -0.985831
-2.169843 -1.263108 -0.980912
-2.542418 1.399500 -1.007221
-2.740654 -1.809118 -1.002074
-2.660680 1.176626 -0.996476
-2.442631 2.170214 -0.992767
-2.766267 -2.212313 -1.022254
-2.225615 0.678854 -0.999258
-2.302638 -2.434560 -1.012253
-2.322718 1.358551 -0.995976
-2.554202 -2.508451 -1.006199
-2.402226 2.611606 -0.999250
-2.418466 -2.167431 -1.009875
-2.373339 2.759685 -1.008061
-2.823956 1.803701 -1.014099
-2.562802 0.564262 -1.002277
-2.867083 1.688554 -0.993899
-2.505242 1.772354 -0.996429
-2.647657 2.667220 -1.022099
-2.778733 -1.491822 -0.998674
-2.813568 0.546479 -1.012040
-2.430536 -2.413002 -0.982857
-2.753652 0.700369 -1.010051
-2.152718 -1.973832 -0.994395
-2.441479 0.387974 -0.998359
-2.620041 0.439520 -1.005792
-2.440701 -0.187841 -0.975107
-2.877283 0.122551 -1.007732
-2.128062 1.596951 -1.012129
-2.515401 1.797428 -0.991354
-2.277248 -0.062719 -0.993788
-2.822568 0.596735 -0.995948
-2.515418 2.578960 -0.989736
-2.503559 -2.276695 -0.984979
-2.160287 -2.302899 -0.998421
-2.448261 -2.465914 -1.001874
-2.531134 0.947837 -0.998297
-2.677073 -0.484419 -0.995389
-2.631542 1.644046 -1.007162
-2.480574 1.024057 -0.983102
-2.535449 -0.991845 -0.996215
-2.883590 2.377588 -1.002162
-2.237952 1.577487 -0.995305
-2.173858 -1.383712 -1.006831
-2.773292 -0.807138 -1.003908
-2.457843 -1.114387 -0.999684
-2.808413 -2.028980 -0.998102
-2.355582 -2.130165 -1.004849
-2.662725 2.620788 -1.043891
-2.365722 -0.353394 -1.019959
-2.303210 -0.727801 -0.990620
-2.285168 1.354614 -0.995539
-2.802299 0.321597 -0.994152
-2.171307 2.598226 -0.993081
-2.698331 1.693105 -1.019879
-2.885219 -0.132242 -1.015930
-2.455676 -0.737909 -1.014302
-2.595491 2.925800 -1.005482
-2.237893 1.287063 -1.003323
-2.253325 2.708855 -0.996211
-2.643847 -2.291772 -0.997138
-2.127660 2.102247 -0.996824
-2.669127 0.815976 -0.994771
-2.493507 -2.264608 -0.999717
-2.698267 0.526267 -1.005081
-2.167623 1.120407 -0.997685
-2.759817 -2.931499 -0.981046
-2.867869 -0.282843 -1.009937
-2.569262 1.967723 -0.986289
-2.100092 -1.236807 -0.981887
-2.190175 -0.251402 -0.985627
-2.294524 -0.324104 -0.997513
-2.191336 -1.194554 -1.018470
-2.188029 2.522097 -0.994012
-2.484710 1.677815 -0.997731
-2.637129 -2.332162 -0.998333
-2.290360 2.990880 -1.031319
-2.366843 2.300903 -1.015084
-2.603487 -1.296628 -1.004626
-2.814063 2.026104 -0.998477
-2.294595 -2.361315 -0.968201
-2.688518 2.996581 -1.017105
-2.155984 1.005582 -1.013355
-2.728799 0.901073 -0.986293
-2.801370 -2.460717 -1.018585
-2.230587 2.388813 -1.017817
-2.766027 -2.818346 -0.988677
-2.750750 -1.548495 -0.994793
-2.411809 -2.160056 -1.015011
-2.207711 1.659309 -0.996119
-2.739605 -1.799604 -0.988515
-2.660465 2.466215 -1.008478
-2.279958 0.940832 -1.034087
-2.098426 -2.777360 -1.005957
-2.480133 -2.970895 -0.998675
-2.789753 -2.673532 -1.001050
-2.887356 0.647589 -0.994149
-2.716819 1.819995 -0.974615
-2.791368 -1.567515 -0.998294
-2.344769 2.090461 -1.002783
-2.817909 -2.668447 -1.005178
-2.495495 1.823474 -0.994640
-2.353711 2.559493 -0.986252
-2.423841 1.632932 -1.004425
-2.728930 1.178791 -0.996080
-2.233974 2.029935 -1.007756
-2.323571 -2.763792 -1.013941
-2.301802 -1.778129 -1.003109
-2.798926 -2.260074 -1.001499
-2.806621 0.017076 -0.981078
-2.153285 1.476853 -0.991166
-2.574227 0.775940 -0.997274
-3.002690 -1.346665 -1.141244
-3.003827 2.306052 -1.351974
-3.002043 -1.893342 -1.174537
-2.990347 -2.465847 -1.345999
-3.005387 -0.959533 -1.316686
-2.997977 1.297722 -1.188778
-3.019787 1.853853 -1.113645
-3.000347 2.978193 -1.222360
-3.002796 -1.221941 -1.378853
-2.985609 -0.545021 -1.205486
-2.985539 -2.173375 -1.387662
-2.989909 0.459962 -1.128271
-3.014546 2.977066 -1.189875
-2.992204 1.205073 -1.336693
-2.986848 0.583269 -1.360428
-3.010370 -0.640959 -1.351015
-3.016491 2.488918 -1.092744
-2.995393 0.001678 -1.260659
-2.975522 -2.192023 -1.164551
-3.012794 -0.796624 -1.214099
-3.006470 -2.584188 -1.216694
-2.988679 -1.791748 -1.356971
-3.000598 -2.886162 -1.100657
-2.996319 -0.260572 -1.300625
-3.002348 0.815529 -1.209535
-2.980017 -0.928376 -1.189811
-3.002167 -0.471949 -1.188490
-2.995662 2.759801 -1.117308
-3.003279 1.510157 -1.354114
-2.982819 0.242743 -1.246968
-3.008654 -1.285588 -1.265123
-2.983755 2.384014 -1.252006
-3.001535 -1.584137 -1.361095
-2.999417 -1.046566 -1.355252
-3.002942 2.451964 -1.299504
-2.972894 0.165209 -1.321183
-3.009572 1.452875 -1.262671
-2.994087 0.546189 -1.211414
-3.006921 0.918194 -1.209812
-3.015842 -1.215313 -1.287672
-2.992359 -1.549314 -1.271254
-3.018397 -1.079882 -1.328079
-3.027787 -2.055104 -1.241741
-2.991567 2.237000 -1.294399
-2.967918 -1.323250 -1.382228
-3.018082 0.373204 -1.276548
-2.998702 1.742730 -1.249955
-3.014484 1.715361 -1.336415
-3.014027 -0.353733 -1.228936
-2.980924 -0.130243 -1.238250
-3.000850 2.969421 -1.174136
-2.995625 1.049348 -1.207614
-3.000506 1.900877 -1.204233
-3.003950 2.409679 -1.310673
-3.014021 1.718035 -1.148786
-3.002066 -1.881880 -1.260044
-2.994317 0.371411 -1.275389
-2.998190 -2.393593 -1.233435
-2.990777 0.919963 -1.294942
-3.009662 2.717398 -1.243939
-2.983865 0.078424 -1.192816
-2.997749 -0.402698 -1.125439
-2.993933 -2.814802 -1.118230
-3.010035 2.744430 -1.250795
-2.995890 -2.398391 -1.236872
-2.992367 -2.753056 -1.168715
-3.009794 -1.513341 -1.320777
-2.989355 -2.608469 -1.149744
-3.017081 -0.270760 -1.245622
-3.013364 0.101513 -1.364353
-3.006438 -1.116034 -1.400405
-2.996533 -2.678043 -1.133003
-2.996102 -2.333415 -1.389688
-3.003029 -0.687536 -1.323889
-2.992426 -2.615498 -1.300380
-3.013444 1.175691 -1.340336
-3.000597 -1.749108 -1.311168
-2.991694 -1.189154 -1.184517
-3.004010 -0.647216 -1.375702
-3.000964 -0.493897 -1.157217
-3.010519 -2.992375 -1.132024
-3.005207 -2.336283 -1.286767
-2.995010 2.193016 -1.350379
-2.993560 -2.985409 -1.231278
-3.009633 0.038165 -1.377420
-2.992045 -0.060087 -1.289729
-3.025927 -0.980880 -1.121414
-2.979482 -0.426530 -1.109485
-3.022028 1.687108 -1.179381
-3.010730 2.033497 -1.298938
-2.992885 -1.419788 -1.200558
-2.997812 -1.077951 -1.191728
-3.005188 -1.540458 -1.273477
-2.990089 -0.129248 -1.197749
-3.000441 1.096304 -1.403867
-3.005599 -1.613060 -1.334209
-2.998254 -1.018208 -1.218014
-2.986950 2.575097 -1.353611
-3.002142 -2.707125 -1.357240
-2.995612 -0.220861 -1.162245
-3.011281 1.264517 -1.107628
-2.980015 -2.087259 -1.223766
-3.002644 -2.718619 -1.162796
-2.992182 -2.165857 -1.090044
-3.002108 2.511521 -1.355821
-2.991081 -2.959143 -1.258166
-3.000205 -1.880655 -1.303074
-3.001365 -2.797822 -1.359238
-2.996446 -2.316603 -1.173830
-2.990467 0.716383 -1.275012
-3.006775 -1.570772 -1.246331
-3.006416 0.407258 -1.366598
-3.002043 0.558807 -1.324784
-3.016609 2.093067 -1.138212
-2.990117 -2.968686 -1.392971
-2.999274 2.115443 -1.314002
-2.994530 0.721413 -1.339051
-3.000668 -2.002707 -1.239679
-3.018471 1.634490 -1.236082
-2.982889 2.135392 -1.259691
-2.999658 -1.500493 -1.385615
-2.999635 2.521219 -1.346313
-3.003812 -0.263159 -1.161438
-2.997708 0.621206 -1.191580
-3.002301 2.906181 -1.196706
-3.013263 -0.832992 -1.203496
-3.001389 1.887440 -1.165587
-3.007487 -1.088238 -1.367663
-3.008314 1.796733 -1.291949
-3.000630 0.588097 -1.224034
-3.007744 -1.691605 -1.304677
-3.006255 -0.503712 -1.136717
-2.997913 -1.086575 -1.258114
-3.000084 -2.537966 -1.160371
-3.006934 -2.806140 -1.147554
-2.999795 -0.913541 -1.248324
-3.002979 -2.886095 -1.118196
-3.006629 -2.008336 -1.223760
-2.991354 1.350101 -1.126835
-3.001565 1.246171 -1.299533
-3.013166 1.421115 -1.255662
-2.988642 -1.097412 -1.245423
-2.987735 2.355628 -1.355952
-3.008531 0.558031 -1.262297
-2.997589 -2.246518 -1.117615
-2.989927 -2.143403 -1.208556
-2.990734 1.146970 -1.346625
-3.011144 -1.972172 -1.303974
-2.995229 0.040536 -1.349003
-2.999485 2.939177 -1.388265
-2.988686 -2.976746 -1.123788
-2.996266 -2.920806 -1.260170
-2.968981 2.957281 -1.308931
-2.992564 0.524286 -1.210707
-3.021556 -2.232906 -1.372086
-2.993776 2.372267 -1.313775
-3.012807 2.294610 -1.198649
-2.999258 0.208625 -1.215334
-2.985138 0.731787 -1.111050
-3.011452 -1.379594 -1.226406
-2.998880 -2.687079 -1.262352
-2.984295 0.560231 -1.173950
-3.010796 -1.221561 -1.108027
-3.017618 0.978265 -1.171143
-3.014469 2.023138 -1.098822
-2.999218 -2.885534 -1.147789
-2.980516 0.573663 -1.145283
-3.009200 -1.602547 -1.379487
-3.002526 2.244358 -1.185306
-2.997202 -1.452368 -1.269189
-3.004354 0.674774 -1.231673
-2.985607 0.322892 -1.206254
-3.017837 -0.639198 -1.127412
-2.996207 1.052102 -1.092071
-2.999697 1.352176 -1.321970
-2.993778 0.393582 -1.189728
-2.988117 1.554080 -1.177354
-2.993586 2.900592 -1.292222
-3.008168 -0.463662 -1.368635
-2.984440 0.085610 -1.379645
-2.992658 -2.913712 -1.175203
-2.989244 1.794636 -1.255677
-2.999653 0.116146 -1.107802
-2.982886 -0.562274 -1.269929
-2.983891 -2.429323 -1.085421
-3.004504 2.339201 -1.283134
-2.998567 -0.647698 -1.155046
-2.996765 1.094914 -1.378458
-3.008948 -2.096478 -1.245072
-2.994881 2.790042 -1.144527
-3.015051 -1.934717 -1.118375
-3.000703 -1.816742 -1.149372
-3.000100 2.173040 -1.391441
-2.988320 2.462826 -1.298469
-2.992783 -1.716278 -1.394964
-2.999759 -0.195010 -1.369027
-2.991631 1.396620 -1.199899
-3.011298 2.263711 -1.168441
-2.999271 -0.735707 -1.171031
-3.015974 0.091975 -1.126760
-3.001425 1.469206 -1.179124
-3.000360 1.393225 -1.186464
-2.997951 1.697271 -1.370450
-2.990353 0.408266 -1.317218
-3.002623 -2.381354 -1.211460
-3.002028 2.439224 -1.139156
-2.997943 2.202442 -1.387721
-2.992164 1.802779 -1.239524
-2.998323 -2.388433 -1.197723
-2.999668 -1.756400 -1.374899
-3.000082 1.457067 -1.264962
-2.991996 -2.858004 -1.134528
-2.996683 2.875131 -1.205160
-2.998710 -0.734478 -1.332456
-2.990962 1.328763 -1.134467
-3.002763 2.332985 -1.294811
-3.012357 -0.625493 -1.142535
-2.974065 -1.070632 -1.303205
-2.997508 0.654084 -1.232941
-3.017390 0.477211 -1.281395
-1.593743 -2.960401 -0.502476
-1.420734 -0.989837 -0.503415
-1.134456 1.791686 -0.505603
-1.526571 2.034760 -0.507680
-1.750298 -2.159920 -0.504198
-1.609182 1.645584 -0.498820
-1.604441 -2.306182 -0.491320
-1.790601 -0.637326 -0.487489
-1.755213 3.019658 -0.492418
-1.350720 -1.834718 -0.505592
-1.627341 -2.082696 -0.496020
-1.142600 -0.470067 -0.495865
-1.706500 0.698736 -0.514556
-1.832333 2.588575 -0.495856
-1.295007 2.895580 -0.492472
-1.184452 -2.576072 -0.497903
-1.666516 -2.162821 -0.496239
-1.725619 1.720970 -0.502905
-1.754445 -1.364680 -0.484286
-1.496892 2.323206 -0.511714
-1.536679 0.978377 -0.503182
-1.708032 -2.322433 -0.493206
-1.853321 1.990841 -0.500396
-1.515111 -1.924982 -0.528342
-1.142104 -0.458972 -0.510856
-1.380568 0.311849 -0.506577
-1.502950 0.010878 -0.502363
-1.815978 1.115320 -0.500074
-1.715454 0.920736 -0.504510
-1.651565 2.958163 -0.488299
-1.298267 2.992818 -0.512425
-1.205683 0.111277 -0.485125
-1.190168 -2.433388 -0.500762
-1.106489 1.349462 -0.516030
-1.109210 2.840494 -0.504468
-1.135980 -1.085885 -0.501417
-1.846200 -0.224301 -0.497148
-1.796235 -0.450961 -0.496168
-1.639244 -2.683622 -0.487854
-1.463787 1.028345 -0.502354
-1.823853 -0.890054 -0.487341
-1.214529 1.721726 -0.493583
-1.404366 1.999919 -0.513443
-1.467565 1.926804 -0.493764
-1.774035 -0.525003 -0.510817
-1.698006 -1.070087 -0.483163
-1.765923 1.493740 -0.500324
-1.207412 1.802436 -0.501403
-1.443510 -0.038266 -0.496075
-1.318972 2.357042 -0.494904
-1.665681 -2.141892 -0.506543
-1.599608 2.270832 -0.504538
-1.589477 -2.422652 -0.501812
-1.295205 -2.076859 -0.492520
-1.275102 0.208567 -0.502407
-1.740219 -2.605328 -0.505932
-1.146572 -2.691020 -0.499039
-1.813130 -3.013497 -0.491806
-1.187846 -0.390470 -0.510938
-1.815453 1.661492 -0.504031
-1.690524 -2.780254 -0.518104
-1.203148 0.937987 -0.527063
-1.757381 1.931574 -0.502648
-1.573329 -1.983877 -0.501126
-1.549222 -2.120539 -0.494852
-1.715630 2.148344 -0.480073
-1.338228 1.937374 -0.503978
-1.213451 0.251379 -0.494201
-1.215523 1.901358 -0.503990
-1.631225 -2.460683 -0.491807
-1.486183 -0.618178 -0.481794
-1.703757 1.431175 -0.512319
-1.697926 -1.460270 -0.510872
-1.773890 1.509316 -0.503252
-1.138488 0.017219 -0.482650
-1.202860 1.517750 -0.510165
-1.278123 -0.216824 -0.503437
-1.477857 -0.777576 -0.488095
-1.511562 -1.683022 -0.507821
-1.486119 -1.761187 -0.504376
-1.468250 1.489827 -0.500464
-1.537189 -2.275319 -0.505852
-1.808565 -2.479508 -0.523174
-1.788367 -1.944388 -0.481687
-1.155470 -1.938739 -0.501005
-1.517686 1.924947 -0.494043
-1.130674 -0.591109 -0.489919
-1.775077 2.932292 -0.513685
-1.441735 -2.184514 -0.485198
-1.728575 0.924538 -0.503069
-1.690846 -0.307778 -0.503692
-1.868996 -0.643931 -0.507983
-1.798839 2.249865 -0.495111
-1.171060 2.841483 -0.482649
-1.627308 2.245992 -0.503878
-1.416500 -1.832373 -0.503538
-1.534314 -1.656490 -0.500477
-1.561955 0.922459 -0.494818
-1.453780 -1.265201 -0.502640
-1.761886 1.419174 -0.507701
-1.110065 0.386179 -0.484431
-1.233805 0.305137 -0.511541
-1.291349 1.967622 -0.511052
-1.542614 1.256737 -0.514546
-1.783926 -2.833089 -0.503754
-1.159910 -2.710479 -0.499348
-1.607681 0.605866 -0.496156
-1.875570 -0.067646 -0.504772
-1.615572 -1.440124 -0.493884
-1.257724 -0.492588 -0.489081
-1.409423 1.555241 -0.503902
-1.295834 1.955049 -0.499500
-1.275839 0.369814 -0.499558
-1.735838 -0.688333 -0.498660
-1.167137 -1.377107 -0.510056
-1.526151 0.142102 -0.497269
-1.377068 -1.131295 -0.525577
-1.902146 0.370785 -0.502366
-1.103249 1.069118 -0.511383
-1.671287 -2.603381 -0.496525
-1.855547 -2.979764 -0.501035
-1.515649 -1.734241 -0.492572
-1.797373 2.363791 -0.493677
-1.781130 0.851125 -0.530629
-1.381450 -1.955935 -0.481127
-1.585833 2.328657 -0.504196
-1.162404 -0.190335 -0.483514
-1.622280 -0.138667 -0.500109
-1.332006 2.628716 -0.499237
-1.534012 -2.638268 -0.505857
-1.370570 -1.723355 -0.489129
-1.421288 0.526216 -0.502011
-1.523135 -1.839204 -0.492402
-1.148710 1.072298 -0.499990
-1.624617 -1.732507 -0.502308
-1.750259 -2.408842 -0.502247
-1.355901 -1.759349 -0.510305
-1.223557 -0.453655 -0.510512
-1.871542 -1.956987 -0.490586
-1.541217 -2.200350 -0.499077
-1.198046 2.151356 -0.514601
-1.310973 -1.064043 -0.507331
-1.101892 -0.843811 -0.492405
-1.485130 -2.667985 -0.499471
-1.348725 -0.849478 -0.505929
-1.651165 -1.389775 -0.516296
-1.150396 0.660541 -0.504171
-1.610259 -1.780701 -0.485960
-1.323418 2.328191 -0.489542
-1.577790 2.568206 -0.513487
-1.452845 -2.408584 -0.497948
-1.338189 -2.347452 -0.498845
-1.490954 -2.293631 -0.504378
-1.181589 0.711938 -0.501925
-1.565469 -2.276493 -0.520231
-1.387952 2.117892 -0.498637
-1.614115 1.545184 -0.492407
-1.559649 1.926521 -0.482901
-1.529451 0.165875 -0.492936
-1.801407 2.979650 -0.503378
-1.820409 -2.742153 -0.501911
-1.389560 -0.575179 -0.502205
-1.371030 -1.041802 -0.496997
-1.355229 2.679456 -0.476026
-1.873316 0.463258 -0.485749
-1.650449 1.834260 -0.485557
-1.760423 -1.972348 -0.494678
-1.257787 2.855975 -0.483904
-1.217090 -0.012633 -0.512220
-1.713534 -0.033932 -0.511123
-1.358318 2.818679 -0.512130
-1.801788 -0.712239 -0.502774
-1.679536 -0.607888 -0.489176
-1.792177 0.498074 -0.499239
-1.668477 -2.246292 -0.508906
-1.367403 -1.075565 -0.507610
-1.164668 -1.856801 -0.515797
-1.741321 -2.382056 -0.514546
-1.472404 2.192857 -0.503933
-1.337368 0.529371 -0.485222
-1.132780 -0.856034 -0.499055
-1.410711 -0.535837 -0.506004
-1.688241 -0.410467 -0.485084
-1.386709 0.800865 -0.502623
-1.638541 2.558812 -0.483197
-1.118313 2.592621 -0.504596
-1.592389 -0.645483 -0.508200
-1.340676 -1.037355 -0.498728
-1.869916 -0.315243 -0.479817
-1.584204 0.409016 -0.494285
-1.192653 -0.226354 -0.490026
-1.406627 0.970129 -0.494777
-1.525199 0.335405 -0.518058
-1.125139 -1.081450 -0.485045
-1.216545 -0.915004 -0.506885
-1.635970 -0.730975 -0.484210
-1.459975 -2.422802 -0.521641
-1.508996 -1.999519 -0.497764
-1.384626 1.335024 -0.499512
-1.620899 -0.688207 -0.494107
-1.707975 -1.721889 -0.496635
-1.157588 0.386426 -0.501351
-1.152143 1.541918 -0.500874
-1.232273 -1.461818 -0.491621
-1.117858 1.950277 -0.516849
-1.295689 2.559561 -0.496696
-1.275869 0.571278 -0.500451
-1.291635 1.017483 -0.487608
-1.528808 -2.678846 -0.489685
-1.536702 2.671745 -0.495816
-1.704371 -0.639268 -0.494387
-1.393964 2.553305 -0.488332
-1.666683 0.458924 -0.501147
-1.691809 -2.983733 -0.503601
-1.445325 -2.762675 -0.498340
-1.588472 1.086028 -0.500565
-1.719751 0.372093 -0.508015
-1.254864 -2.846187 -0.499812
-1.210065 1.458853 -0.504233
-1.769354 2.137949 -0.507707
-2.005580 1.956281 -0.746865
-2.013800 -1.547055 -0.769373
-1.990909 -0.837246 -0.902756
-1.983908 -1.936203 -0.654275
-1.995651 -0.199537 -0.794672
-1.987908 -0.646293 -0.618354
-1.991495 -1.552318 -0.785567
-1.998628 1.498172 -0.731377
-1.997788 -1.121080 -0.815521
-1.999787 -1.355437 -0.845192
-1.998328 -2.228330 -0.649620
-2.001419 -0.367879 -0.754448
-2.004884 -1.166772 -0.725193
-1.995556 -0.785438 -0.604184
-1.999262 -1.585919 -0.607545
-2.004411 1.581456 -0.641265
-1.993971 2.573829 -0.836616
-2.009063 -0.018135 -0.727007
-2.010720 0.868147 -0.646246
-2.006989 2.215588 -0.793367
-2.001881 2.982857 -0.861339
-1.991533 0.688488 -0.651336
-1.999264 2.333433 -0.763621
-1.987101 2.459297 -0.737615
-1.999602 1.745708 -0.616639
-1.998224 -0.238567 -0.727362
-2.014791 -2.528714 -0.776220
-2.000851 -2.913920 -0.782497
-2.000655 -0.131027 -0.776543
-2.007871 -0.032972 -0.877107
-1.994606 -0.565197 -0.652393
-2.003385 0.419629 -0.659911
-2.006778 0.316786 -0.802976
-1.983334 2.020092 -0.790484
-2.002897 -2.337070 -0.647122
-1.995798 -1.672351 -0.904025
-1.995333 1.744905 -0.739593
-1.990935 2.082008 -0.770587
-2.004742 2.959287 -0.693974
-1.998979 2.234412 -0.834239
-2.007194 2.353308 -0.709913
-1.999272 -1.102081 -0.775666
-2.004203 -0.584480 -0.710174
-2.005399 -1.385330 -0.869347
-1.995283 0.643460 -0.754760
-2.014610 2.637434 -0.753492
-2.005899 -0.910535 -0.838235
-2.007402 0.353537 -0.867590
-2.004474 -1.209712 -0.843030
-2.015616 -1.975760 -0.800722
-1.984601 -1.834949 -0.860445
-1.982243 -2.660837 -0.617736
-1.996114 2.687188 -0.775799
-2.002249 -0.585173 -0.656820
-1.999287 2.006364 -0.613663
-2.005552 1.086791 -0.876227
-2.004389 -1.845234 -0.722647
-2.007305 -1.950026 -0.647138
-1.983708 1.872118 -0.707962
-2.004832 -1.411888 -0.783445
-2.001698 2.470341 -0.773451
-2.025599 -2.170948 -0.874591
-1.991696 1.079442 -0.725743
-1.993270 1.882315 -0.612310
-1.988533 -1.587816 -0.587448
-2.003651 -1.323027 -0.889448
-1.986639 2.804080 -0.698490
-2.004850 -1.422744 -0.821770
-1.993329 -0.422224 -0.628580
-1.994438 -0.423480 -0.873598
-2.003491 -1.476467 -0.613031
-1.986292 1.653698 -0.669994
-1.999429 1.633103 -0.875091
-1.998525 -0.733702 -0.895480
-1.993285 2.005117 -0.653651
-2.004626 -1.709196 -0.853682
-1.999209 -2.978572 -0.734902
-1.986507 0.433483 -0.618408
-1.993938 2.950664 -0.738527
-2.002050 -2.775393 -0.791475
-2.018722 -1.765477 -0.769060
-2.000694 0.105557 -0.880276
-2.004338 1.870550 -0.610991
-1.993037 -2.463716 -0.820824
-2.000906 -0.640948 -0.844272
-2.007451 1.486274 -0.827609
-1.999853 -0.765017 -0.601612
-2.007642 -1.866804 -0.869873
-1.984529 -1.841838 -0.648920
-1.971955 -0.542438 -0.706557
-2.005826 -0.151186 -0.648585
-1.991902 2.161770 -0.611938
-1.990763 0.836012 -0.660569
-2.002281 1.134888 -0.619924
-2.012638 2.900066 -0.863412
-1.994508 -0.526935 -0.659197
-2.014463 -0.574948 -0.739606
-2.001666 2.550565 -0.744146
-1.986488 -1.510302 -0.622796
-2.009806 1.357029 -0.597670
-1.998886 1.519987 -0.676813
-2.008615 -2.417514 -0.749870
-2.011136 -0.191706 -0.752187
-1.997889 -1.784151 -0.772762
-1.999923 -1.911116 -0.802578
-1.992367 -0.232534 -0.785815
-1.996615 -1.248726 -0.878824
-2.006435 1.775838 -0.873260
-2.001543 2.456122 -0.674030
-1.998798 1.820776 -0.770180
-1.991603 -1.402325 -0.612906
-1.998059 -1.351430 -0.722658
-2.006308 -1.459386 -0.883092
-2.010230 -2.187963 -0.876481
-2.005739 2.672400 -0.839505
-1.998821 -0.617877 -0.611202
-1.996617 -1.647210 -0.824765
-2.002103 2.078370 -0.758594
-2.002045 -0.617444 -0.637626
-2.010852 -2.774212 -0.609548
-1.997801 -2.033486 -0.846997
-1.990639 0.813780 -0.890813
-2.000546 1.699737 -0.861184
-2.018380 -1.742405 -0.888489
-2.007731 2.514074 -0.853599
-1.996990 2.107566 -0.719825
-2.001331 2.098196 -0.627988
-1.995656 -1.649063 -0.765217
-1.996225 -2.692472 -0.707448
-2.005249 2.219439 -0.844039
-1.995791 -1.159252 -0.642637
-2.003170 0.706966 -0.729645
-1.984476 1.564015 -0.636228
-1.968833 -2.226990 -0.628370
-2.001959 1.675282 -0.799588
-2.004026 2.625199 -0.886759
-1.984075 1.373238 -0.834476
-1.992424 -0.347953 -0.765891
-1.993150 2.261408 -0.609590
-1.992469 0.166373 -0.788711
-1.984696 1.463847 -0.664855
-1.995861 1.916940 -0.745935
-2.003539 1.491195 -0.859739
-2.006515 -1.270208 -0.791120
-1.994456 -2.318932 -0.697629
-2.005582 -1.565438 -0.698285
-2.001927 0.016227 -0.769796
-1.986556 0.031465 -0.820551
-1.990601 0.502537 -0.701294
-1.988834 -0.633968 -0.842181
-2.009725 1.709498 -0.599235
-2.009570 2.490384 -0.842445
-2.004201 -1.520098 -0.880817
-2.000138 1.408312 -0.754660
-1.990747 1.070373 -0.758957
-1.991485 0.138472 -0.752964
-1.992533 -1.870491 -0.780656
-1.981522 1.771221 -0.602369
-2.004051 2.775557 -0.759365
-2.015450 1.324231 -0.743348
-1.991679 2.504610 -0.759738
-1.992521 2.902446 -0.881611
-1.996707 -0.896015 -0.722068
-1.996915 0.812472 -0.833503
-2.003031 -0.146123 -0.727162
-2.003815 2.914955 -0.875149
-2.000435 -2.419192 -0.598962
-2.004102 -0.523354 -0.762839
-1.991406 2.239912 -0.639210
-1.995443 -1.283435 -0.779351
-1.986255 1.725356 -0.900739
-2.030017 -0.718595 -0.653533
-2.000659 2.886203 -0.711040
-2.011081 2.297048 -0.665137
-1.997692 -1.199970 -0.762535
-2.006214 1.612462 -0.714043
-1.989252 -0.980189 -0.650076
-1.990739 0.659605 -0.708584
-1.987662 0.961245 -0.801754
-1.999734 1.964747 -0.703291
-2.006262 -2.857324 -0.705943
-2.002871 -1.673730 -0.613019
-2.018644 1.264046 -0.803920
-1.997559 0.386173 -0.769910
-2.007874 -0.023901 -0.661064
-2.011382 -2.661321 -0.740091
-1.990511 -0.916428 -0.667234
-2.004936 2.197136 -0.767196
-2.002240 -2.838855 -0.838371
-1.999089 -0.625483 -0.658877
-2.011625 2.665254 -0.869702
-2.005638 -2.684402 -0.825645
-2.007008 1.491004 -0.723524
-1.986937 -1.443114 -0.676879
-2.013961 2.186586 -0.629887
-1.994507 1.455746 -0.821437
-1.983817 2.312056 -0.851886
-1.993510 -1.715294 -0.616113
-2.001287 0.178231 -0.863372
-1.984932 1.665846 -0.829916
-2.004365 -1.526058 -0.806983
-2.005985 -1.609843 -0.761647
-1.995603 -2.861593 -0.637421
-1.991458 2.757315 -0.684820
-2.011697 1.253215 -0.685691
-2.020319 0.813230 -0.844332
-2.002830 1.469222 -0.790458
-2.005417 0.170316 -0.755144
-2.009531 -0.148980 -0.850981
-1.985827 -0.303187 -0.812430
-2.014445 0.845091 -0.808099
-1.987708 -1.796195 -0.864233
-1.989412 2.327432 -0.746017
-1.974484 1.859728 -0.689139
-1.996533 -0.899942 -0.880918
-2.001848 0.469306 -0.766822
-1.978498 -2.156036 -0.659367
-2.003346 2.830530 -0.680157
-2.015498 2.415750 -0.659548
-1.988285 2.519418 -0.771299
-0.643254 2.171792 -0.008694
-0.759069 -0.721095 -0.001461
-0.744350 2.096692 0.008598
-0.840605 -1.545882 0.001143
-0.800140 0.716680 -0.009337
-0.852712 2.567172 -0.006293
-0.135643 -1.446148 -0.010363
-0.836083 1.171488 0.000168
-0.784009 2.925414 0.015874
-0.248817 -2.096493 0.006732
-0.437712 -2.458064 -0.004320
-0.259773 1.066393 0.002821
-0.389744 -0.949668 -0.011872
-0.207380 -2.559969 0.002740
-0.391491 -0.148055 -0.023860
-0.484206 1.515094 0.009181
-0.319850 -1.283499 0.003955
-0.557059 -0.983812 0.006294
-0.610697 2.095378 -0.016926
-0.529763 0.113009 0.001725
-0.764095 2.054051 0.010276
-0.273757 -0.332074 -0.010242
-0.695040 2.705565 -0.000486
-0.778830 0.896902 0.008738
-0.703513 -2.293980 -0.001950
-0.226586 2.304930 -0.000070
-0.628717 -0.068522 0.005184
-0.359288 -2.142576 -0.005799
-0.206355 -2.083249 0.015210
-0.849345 1.110442 -0.006162
-0.301827 -2.729592 0.006216
-0.653909 -1.285234 -0.003870
-0.732674 -2.144771 -0.007355
-0.362100 -0.345575 -0.002158
-0.151775 -0.519139 0.008460
-0.653163 0.126045 -0.007429
-0.437519 -1.316433 -0.014106
-0.679417 -2.833103 0.005954
-0.459190 0.684695 -0.016914
-0.413491 -0.762472 -0.006723
-0.410553 0.913845 0.022696
-0.401363 -2.336844 -0.008300
-0.808686 -2.920859 -0.015977
-0.345021 -1.518039 -0.019543
-0.342839 -0.266092 -0.016376
-0.344948 -0.642854 0.010902
-0.848077 1.856406 0.003448
-0.536597 -0.725289 -0.000897
-0.567486 0.190103 0.002006
-0.832057 0.546641 0.005992
-0.721684 -2.873148 0.012778
-0.561508 0.107241 -0.000223
-0.302500 -0.934963 -0.016671
-0.711746 -0.468972 0.006762
-0.238180 -2.420201 -0.015417
-0.442841 1.685998 0.014270
-0.301004 2.652601 0.006252
-0.530157 -2.850465 0.000757
-0.496036 0.605560 0.006587
-0.388437 1.581752 0.017297
-0.163739 -1.283514 0.004891
-0.517236 1.727472 0.000074
-0.485606 0.797710 0.001463
-0.419128 2.574290 -0.000900
-0.313665 2.887427 -0.006439
-0.815952 -2.760017 -0.005847
-0.492507 -0.309969 -0.013201
-0.510468 0.284411 0.003336
-0.150289 -2.107382 -0.004510
-0.503255 -1.000926 0.000991
-0.533283 2.924021 -0.016854
-0.126191 -2.919583 0.001483
-0.551804 -0.293449 0.011547
-0.749413 2.067420 0.015597
-0.734195 -1.041603 -0.014655
-0.816389 -0.126142 -0.009303
-0.893401 2.877724 0.009153
-0.552295 -0.149419 0.005269
-0.281568 -2.209059 0.002040
-0.304799 -2.705943 -0.001313
-0.888119 2.675267 0.016419
-0.448755 -1.403871 0.007565
-0.797251 0.019162 0.003645
-0.176109 -2.465558 0.011009
-0.756078 -0.454326 0.008822
-0.396538 2.586187 -0.003157
-0.637851 0.008154 0.012635
-0.371535 2.840610 -0.004081
-0.579731 -1.434216 0.005439
-0.289000 0.020935 0.004257
-0.726309 2.163525 0.013789
-0.159056 -0.303401 -0.013820
-0.497859 -1.301679 -0.008686
-0.295717 2.146987 0.006171
-0.195414 -0.667992 -0.009898
-0.088696 0.172381 -0.001968
-0.721500 2.869522 0.006143
-0.665915 -1.885125 0.012150
-0.659395 -1.184683 0.000997
-0.702682 -2.819957 -0.002137
-0.439390 -0.649135 0.017780
-0.092710 -1.800488 -0.012083
-0.094404 1.079719 -0.017265
-0.471457 -1.901814 -0.024259
-0.397024 1.047772 0.007345
-0.217181 -1.427469 0.007272
-0.158336 -0.863272 -0.011115
-0.750435 -0.899283 0.002525
-0.467942 1.295185 -0.007951
-0.220123 -0.216174 0.012515
-0.644233 -0.823606 -0.006878
-0.556318 2.113636 -0.012950
-0.121120 0.438151 0.006493
-0.122458 -1.710254 0.004543
-0.160016 2.406239 0.010586
-0.256471 -0.934299 -0.012871
-0.685913 -2.766514 -0.002437
-0.638881 -0.026055 0.003923
-0.463943 -2.263729 0.010972
-0.447881 -1.579387 -0.001937
-0.513031 1.483019 -0.001984
-0.396408 -2.199643 -0.011562
-0.566278 1.863532 0.010773
-0.300976 2.610103 -0.013621
-0.637276 0.632323 -0.007195
-0.638722 1.261133 0.004852
-0.810597 1.274697 -0.001597
-0.750985 2.975212 0.002322
-0.235719 -0.946589 0.005457
-0.544225 -2.034995 0.017581
-0.728405 0.121611 0.002001
-0.286519 0.216567 0.005616
-0.462402 -1.921465 -0.006311
-0.881440 0.665726 -0.010333
-0.646397 -2.911571 -0.017024
-0.753426 2.557816 0.012797
-0.378821 -1.423791 0.000758
-0.689138 -2.749949 0.000005
-0.849559 -2.344585 -0.010049
-0.868944 -1.554423 -0.010997
-0.445618 -1.348195 0.005251
-0.895160 -2.809331 -0.009037
-0.203203 -1.314811 -0.004208
-0.769920 -1.855911 -0.006726
-0.413698 -0.723752 -0.000975
-0.541769 -0.688210 -0.001636
-0.548680 -0.970216 0.002319
-0.838454 -1.030473 -0.011786
-0.267787 -2.457623 0.014717
-0.184034 -2.852887 0.002243
-0.902555 -1.774225 0.001866
-0.763811 1.538229 -0.005270
-0.163760 2.942836 0.001554
-0.454668 2.563749 0.001937
-0.777224 0.009775 0.002527
-0.738225 0.192243 0.000356
-0.369419 -1.099137 -0.011795
-0.323568 1.650303 0.004809
-0.415864 1.616076 0.006141
-0.126172 2.062563 -0.009929
-0.507892 2.380147 0.004068
-0.655750 -0.396048 -0.003738
-0.520012 1.608498 0.008407
-0.622329 1.846016 -0.006507
-0.715778 -1.151162 0.015658
-0.867410 2.577240 0.006066
-0.626970 -2.434680 -0.002666
-0.336011 2.961218 0.011120
-0.891235 1.626208 0.003146
-0.562627 -2.435183 -0.014135
-0.378512 0.932306 0.000084
-0.424620 -2.793700 0.009270
-0.286751 1.615050 0.004546
-0.246788 1.770996 0.020154
-0.325350 0.621431 -0.001435
-0.836315 2.147910 -0.005652
-0.514543 -2.414888 0.002380
-0.425025 -1.335813 -0.011884
-0.681091 -0.492555 0.016327
-0.853204 -2.746098 0.011665
-0.722090 -0.326239 0.015032
-0.524796 -1.409033 -0.012252
-0.574718 -0.661801 0.009451
-0.774700 -0.446516 -0.008437
-0.254735 2.278854 -0.003338
-0.151069 -1.390630 -0.007573
-0.762798 2.340615 0.017982
-0.135506 -0.443247 -0.008238
-0.888696 -1.024418 -0.005144
-0.157654 0.014945 -0.005688
-0.143719 -0.490607 -0.009769
-0.885841 -1.460482 0.001274
-0.275745 0.014394 0.009198
-0.141759 -2.093893 0.000277
-0.156045 -0.908020 -0.000962
-0.108865 0.386891 -0.002128
-0.456424 -0.517705 0.015658
-0.832990 1.956752 -0.003600
-0.227574 -1.461927 -0.011591
-0.404102 2.814771 -0.006718
-0.403224 1.696895 0.007705
-0.570980 2.817149 -0.003927
-0.436207 2.030615 0.007439
-0.776037 -2.164011 0.010088
-0.309061 0.166656 0.006902
-0.847719 -1.989277 0.006554
-0.319208 1.918728 -0.001782
-0.210583 0.509206 0.002880
-0.525765 -1.416980 0.011929
-0.492678 2.582906 0.000464
-0.648983 -2.291650 0.012017
-0.123639 0.385319 -0.007019
-0.315230 1.329337 0.008506
-0.597317 -2.658001 0.009770
-0.761042 0.577266 0.013364
-0.709704 1.898045 0.007088
-0.521188 -2.580878 0.007281
-0.159222 0.093556 0.010657
-0.317778 -1.458953 0.005048
-0.730588 0.980847 0.007434
-1.005664 -2.268099 -0.360539
-1.005334 -1.810655 -0.132318
-1.002522 1.599077 -0.125522
-1.007884 -2.430075 -0.344050
-0.994390 2.405720 -0.308142
-0.997022 1.369229 -0.221658
-1.016331 -2.586243 -0.164142
-1.012874 1.151380 -0.269467
-0.999041 0.791714 -0.341713
-0.999152 1.556869 -0.369931
-1.003501 1.962495 -0.118241
-0.997242 1.330643 -0.258812
-0.993133 0.512927 -0.140684
-0.990154 -1.045133 -0.240408
-0.991948 1.183993 -0.121196
-1.007535 2.727348 -0.384940
-0.999502 0.522211 -0.380489
-1.000373 0.982885 -0.132839
-1.003702 -0.380441 -0.121918
-0.990733 1.517696 -0.325443
-0.999967 2.986966 -0.289408
-1.005390 -2.046843 -0.264338
-1.004416 -1.770058 -0.278394
-1.000532 0.261381 -0.344934
-0.994438 -0.105285 -0.123173
-0.997105 0.431357 -0.323004
-1.005760 -2.702301 -0.168132
-0.987893 -0.571302 -0.371295
-1.008692 0.495264 -0.378896
-0.985128 0.503439 -0.208717
-0.978186 0.944966 -0.280062
-0.997931 1.323758 -0.206417
-0.990574 0.862861 -0.382144
-1.003525 1.750610 -0.116340
-1.004934 0.758659 -0.164411
-1.004496 0.227170 -0.149205
-1.008955 0.638420 -0.358745
-1.009669 -2.400000 -0.314602
-0.995449 -1.380737 -0.299613
-1.018629 0.168589 -0.256876
-0.999683 2.254318 -0.294205
-1.018059 1.077293 -0.391700
-1.011931 -2.458686 -0.277054
-0.994003 0.546498 -0.316585
-1.022437 -1.677101 -0.292463
-0.999217 1.402071 -0.342327
-1.001747 1.964869 -0.316030
-0.998507 0.557894 -0.207897
-0.991739 0.542615 -0.284148
-0.988381 -0.979479 -0.278338
-1.013391 -0.325954 -0.249330
-0.978121 2.179617 -0.173450
-1.003708 1.340878 -0.289624
-1.001329 0.083230 -0.223173
-0.999822 -0.780220 -0.097049
-1.001877 -2.689559 -0.254422
-0.992327 -2.147680 -0.138908
-1.001856 -1.827844 -0.160088
-0.985035 -0.767186 -0.371906
-1.006522 2.667115 -0.269103
-0.993385 0.033428 -0.197896
-0.991197 -1.573642 -0.109824
-1.018352 -2.360506 -0.265799
-1.001311 -0.964605 -0.376728
-1.002689 1.893383 -0.216700
-0.999699 -0.712300 -0.373990
-0.998608 1.623741 -0.190167
-0.993645 1.823075 -0.251378
-0.997063 -2.333194 -0.176946
-0.993953 0.625901 -0.141596
-0.994821 2.750472 -0.210954
-0.992493 -0.586362 -0.201189
-0.988730 -2.695521 -0.175609
-1.028503 2.536551 -0.160796
-0.997788 2.303526 -0.132325
-0.986033 0.132586 -0.366267
-0.997675 0.300417 -0.238764
-1.003727 -1.723632 -0.344592
-1.002980 1.915094 -0.146377
-0.991886 -0.001987 -0.193815
-1.003310 -2.784708 -0.287573
-1.013884 1.085952 -0.343477
-0.987976 2.696956 -0.303060
-1.002160 1.980631 -0.193643
-1.005334 -1.350265 -0.344409
-0.988225 -2.679140 -0.379324
-0.987639 2.636256 -0.119392
-0.985964 2.622936 -0.185722
-0.977105 0.198365 -0.343300
-0.990439 0.860928 -0.299197
-1.006624 -0.221215 -0.120238
-0.993337 -0.481637 -0.184735
-1.001464 -2.285819 -0.225526
-0.992096 -2.404586 -0.313278
-0.994465 -1.599285 -0.310181
-1.015266 2.006829 -0.395953
-1.021390 -2.110926 -0.177778
-1.000300 -1.661711 -0.405286
-1.000023 0.311389 -0.405529
-0.991362 -1.714012 -0.180599
-0.987853 -2.024220 -0.122239
-0.985819 0.380353 -0.162137
-1.006853 -0.777374 -0.255772
-0.995652 0.758272 -0.259241
-1.000017 2.468806 -0.259564
-1.002031 -2.109006 -0.319401
-1.017267 2.486782 -0.255001
-0.996999 2.416306 -0.271302
-0.995616 1.976109 -0.247647
-1.003236 0.791967 -0.114161
-0.983135 0.707248 -0.104994
-1.015661 0.850475 -0.366248
-0.996494 1.144634 -0.270789
-0.987887 -2.889526 -0.341221
-1.003492 2.756227 -0.286203
-1.001906 0.510110 -0.302425
-0.983359 1.681301 -0.350273
-0.996491 -0.731443 -0.176001
-0.981165 -2.921396 -0.245800
-0.982411 0.053917 -0.125111
-1.012533 0.041417 -0.405112
-0.992522 -0.373864 -0.382677
-1.001004 -0.954083 -0.290376
-0.997958 -1.494048 -0.393740
-0.993151 0.148529 -0.322357
-1.011634 -0.734019 -0.115762
-1.016502 2.820925 -0.341449
-1.015046 -1.957178 -0.360480
-1.010362 -1.087759 -0.219886
-0.987045 -1.225209 -0.252133
-1.024273 0.263764 -0.211163
-0.987662 0.000311 -0.298874
-1.005253 0.881781 -0.166139
-1.011478 2.709436 -0.362737
-1.011818 -1.273394 -0.266872
-1.003818 1.145172 -0.172597
-1.000244 -2.835785 -0.130593
-1.005209 -1.430799 -0.274665
-0.985375 -0.236451 -0.224179
-1.001212 -2.824364 -0.376641
-1.013496 0.701352 -0.356889
-1.004998 1.069149 -0.389414
-0.984268 1.485323 -0.163690
-1.001601 0.093959 -0.295998
-1.005781 0.621885 -0.175676
-1.012377 -0.616496 -0.374247
-0.987307 -2.743581 -0.128236
-1.001104 -2.408916 -0.128241
-1.015267 0.915710 -0.367670
-0.983750 2.975227 -0.382880
-1.019958 -2.910176 -0.401853
-0.992196 0.330029 -0.156689
-0.994860 1.516671 -0.331179
-0.994298 1.966027 -0.237672
-1.010947 0.276878 -0.265996
-0.991060 0.722617 -0.173027
-0.993097 1.180336 -0.258158
-1.002946 2.146895 -0.240913
-1.014181 -2.276198 -0.106560
-0.983863 2.567636 -0.371370
-0.986487 -2.830401 -0.162529
-1.025215 2.016476 -0.373251
-0.984087 -2.548266 -0.239186
-1.022279 -1.835911 -0.138272
-0.988477 -2.963652 -0.190894
-1.013505 -0.319834 -0.189345
-1.016712 -1.014515 -0.310625
-1.001801 -2.016894 -0.276509
-0.996360 -0.294288 -0.305546
-0.981144 -0.575733 -0.246921
-1.002951 1.609561 -0.272628
-0.996773 2.345474 -0.302636
-1.011686 0.904223 -0.291899
-0.999408 -2.251464 -0.344858
-1.005970 -1.223043 -0.288544
-1.021540 2.481981 -0.351352
-0.987162 -2.474145 -0.160789
-1.009968 -0.569836 -0.211997
-1.027167 2.650544 -0.345606
-0.999928 2.712952 -0.208260
-1.016020 -0.518409 -0.144688
-0.998967 0.993200 -0.327731
-1.011459 -0.247658 -0.327542
-0.995161 1.514414 -0.422751
-1.016845 -2.794963 -0.396117
-1.003708 -2.128504 -0.156502
-1.001996 0.681146 -0.103128
-1.006276 -1.610425 -0.382417
-0.998147 1.017630 -0.171190
-0.988489 -0.903375 -0.373190
-1.007230 2.323828 -0.215475
-0.999501 1.939630 -0.158898
-0.988228 -0.035330 -0.274605
-1.014370 1.651073 -0.406632
-1.005643 -1.367559 -0.209111
-1.011536 -0.039567 -0.101651
-1.001864 -1.806567 -0.288355
-0.995807 2.157965 -0.356118
-1.003253 1.929003 -0.358147
-0.995480 2.408266 -0.213574
-1.007354 2.263668 -0.214675
-0.991079 2.770353 -0.158034
-0.989491 -1.636634 -0.164897
-0.990953 2.606075 -0.148922
-1.009072 0.435511 -0.184782
-0.995080 -0.454431 -0.331584
-1.004302 0.351502 -0.238452
-1.004926 -0.951214 -0.318153
-1.002710 -1.271513 -0.282323
-1.003942 -1.548672 -0.126186
-1.005896 -2.522476 -0.211145
-1.012070 -0.018774 -0.096861
-1.017867 2.321079 -0.288595
-1.002643 0.791669 -0.243238
-1.000475 0.140406 -0.249286
-1.007601 -0.426853 -0.376089
-0.995795 -0.208437 -0.342661
-0.998249 -1.745512 -0.236262
-0.991687 1.942390 -0.382820
-0.990667 -1.818433 -0.133767
0.641345 -0.514138 0.491785
0.711966 0.131987 0.493528
0.564598 -1.103964 0.504093
0.784771 -2.374827 0.505952
0.342368 -0.509963 0.491860
0.800713 -2.250489 0.489787
0.681748 -0.541210 0.498966
0.728907 0.323083 0.505207
0.641305 2.566345 0.503689
0.787906 -2.776707 0.495833
0.885044 0.729560 0.502478
0.437088 -0.255390 0.489173
0.755359 -2.873725 0.502008
0.696774 -1.485918 0.493756
0.475110 -2.296429 0.511090
0.853893 -1.702166 0.516610
0.420231 -1.361351 0.496258
0.563700 -0.582931 0.489420
0.183361 0.176272 0.494924
0.304198 -2.991723 0.499382
0.784465 -2.032436 0.510074
0.400565 -2.443138 0.510491
0.430969 0.290307 0.491102
0.302459 -1.031781 0.497314
0.502052 0.284945 0.480346
0.731643 -1.668961 0.481366
0.813160 -2.868545 0.516399
0.177743 2.637619 0.502568
0.550253 -2.353245 0.518035
0.469152 -2.241708 0.490575
0.602887 -2.153352 0.495572
0.457362 2.881048 0.508635
0.430936 0.691841 0.520935
0.463272 0.674626 0.501498
0.560562 2.916095 0.499665
0.502871 -2.478569 0.497661
0.470009 2.834855 0.491827
0.742769 -1.780123 0.504325
0.697725 0.758172 0.477895
0.377796 -0.479434 0.508157
0.747626 -0.697939 0.501727
0.775480 2.593597 0.481211
0.230562 -2.104865 0.495129
0.563821 2.980822 0.512973
0.360585 -0.713051 0.494347
0.697636 0.899383 0.490748
0.278420 2.806808 0.508077
0.621005 -2.661603 0.505727
0.304517 2.551349 0.485886
0.532437 0.391488 0.479708
0.858328 1.215037 0.499612
0.404309 -2.106853 0.491576
0.804917 0.197151 0.511037
0.887752 1.031436 0.483123
0.798160 -0.275208 0.486500
0.237967 -2.087866 0.514122
0.757324 -1.535724 0.489652
0.133363 2.126328 0.493139
0.416640 -2.810002 0.483647
0.785385 1.256668 0.499967
0.661492 2.987140 0.505747
0.525054 -2.964532 0.503853
0.409631 -2.040017 0.500420
0.748542 1.043329 0.495874
0.654597 -2.639307 0.491973
0.464521 0.536333 0.507340
0.815844 1.098689 0.494287
0.290317 0.504911 0.507974
0.217573 -0.823046 0.494857
0.635944 1.200468 0.507065
0.881161 0.547144 0.501568
0.292313 -1.762344 0.501548
0.295025 0.387506 0.480640
0.212349 2.282652 0.495904
0.791497 0.989827 0.501642
0.278995 -0.175857 0.495294
0.500997 -1.078174 0.500071
0.889916 -2.490796 0.515898
0.113865 -1.536064 0.501459
0.534921 -2.937247 0.496799
0.497363 2.923629 0.494944
0.742403 -1.670794 0.529591
0.377599 1.868569 0.484001
0.435866 -1.974766 0.493182
0.247140 -1.290977 0.498105
0.690048 -0.488527 0.508775
0.731740 -1.060334 0.498258
0.229143 1.792617 0.508693
0.420164 2.748894 0.501087
0.823298 2.258953 0.502639
0.095228 -2.074677 0.499330
0.335925 1.686920 0.484609
0.553619 -2.120945 0.501312
0.392961 2.470663 0.492761
0.317461 0.098799 0.508841
0.462685 -0.975173 0.486708
0.227150 -2.060137 0.484315
0.538883 -2.944443 0.489623
0.669493 -1.518182 0.484816
0.580636 2.474104 0.498037
0.172396 1.790676 0.504624
0.767259 2.815504 0.497731
0.247472 -2.407114 0.520181
0.704258 0.552985 0.488400
0.375470 -1.465841 0.490295
0.722067 0.247861 0.506956
0.257188 -1.086209 0.496070
0.259258 -1.297058 0.499003
0.483290 0.431645 0.487216
0.139417 -1.894785 0.491384
0.274594 -0.193452 0.491141
0.683813 0.901998 0.520812
0.782410 -2.217813 0.506714
0.160402 2.589544 0.496512
0.821965 0.038391 0.502624
0.739285 1.934571 0.485662
0.814130 0.921571 0.485939
0.651221 1.243498 0.506537
0.628940 1.298472 0.511342
0.513354 2.247918 0.486966
0.618346 0.707373 0.507779
0.832640 -1.336814 0.499574
0.181718 -2.407133 0.505301
0.343077 0.627920 0.503702
0.146278 -2.594593 0.499857
0.837565 -1.551144 0.483149
0.463146 -2.638244 0.518511
0.650989 0.282719 0.479793
0.765345 -2.050184 0.518257
0.892697 0.671778 0.497150
0.227629 1.744864 0.511065
0.742726 1.920711 0.516225
0.807010 -1.147294 0.471705
0.145444 0.294737 0.500999
0.699244 0.372312 0.496304
0.388412 -0.156286 0.497690
0.628367 0.929894 0.494958
0.513223 -1.753071 0.502327
0.292372 2.865182 0.479813
0.206426 -2.395425 0.498829
0.199994 1.998850 0.504041
0.175006 0.558300 0.500007
0.603903 -1.536452 0.509853
0.391390 1.457581 0.491818
0.268667 -2.487124 0.511431
0.680528 1.641850 0.495843
0.655365 0.533089 0.498590
0.527184 -2.361715 0.501232
0.846143 -2.510254 0.500055
0.395784 1.502437 0.479089
0.756581 -1.236030 0.497527
0.169337 2.316142 0.497575
0.687110 1.581997 0.506728
0.897180 1.204556 0.496319
0.790629 -1.338806 0.489191
0.571259 1.238620 0.505728
0.602426 2.699605 0.499406
0.383192 -2.445548 0.493374
0.636526 -1.038280 0.499707
0.712243 -1.592794 0.515946
0.894153 -0.645219 0.482926
0.493547 1.460565 0.508362
0.150125 -0.144986 0.507312
0.587816 0.434227 0.515700
0.193522 -1.128341 0.506637
0.303618 -2.136564 0.512813
0.382479 -1.392200 0.502288
0.670974 2.161163 0.494475
0.249162 0.615047 0.504717
0.231629 -0.722718 0.472768
0.137871 1.751461 0.518700
0.805912 -2.596406 0.501689
0.654833 -1.471359 0.499968
0.124134 -1.624534 0.488878
0.127918 2.912301 0.496397
0.541273 1.241642 0.507804
0.314722 0.693839 0.509545
0.563630 -2.964615 0.516169
0.463876 -1.886761 0.507088
0.861169 0.789904 0.495357
0.338732 -0.725057 0.512398
0.642923 2.547000 0.497253
0.138018 1.582874 0.502712
0.856943 -0.306164 0.506532
0.895600 1.485801 0.483005
0.691218 2.881414 0.512662
0.466626 -0.229870 0.507276
0.262311 0.868852 0.498326
0.749106 2.512226 0.511445
0.681531 -1.525022 0.503230
0.257127 2.316336 0.511869
0.466763 -2.404308 0.506204
0.494343 0.884807 0.503981
0.756747 1.706597 0.499384
0.664264 0.682329 0.514071
0.620465 -0.027116 0.505424
0.622475 0.707642 0.497931
0.309360 -2.093369 0.483169
0.405788 -1.718927 0.497824
0.143010 -1.372210 0.482253
0.728634 0.591273 0.500520
0.459839 -0.356812 0.479510
0.458694 -1.538516 0.482415
0.294700 2.309162 0.487367
0.290902 -0.764848 0.500870
0.558066 -0.323394 0.498663
0.271147 -0.513535 0.495047
0.146422 -1.898652 0.518143
0.725270 1.377750 0.502139
0.382362 -0.300233 0.483648
0.396156 -2.902489 0.504450
0.442445 2.799273 0.507232
0.758483 1.882288 0.516994
0.348639 1.358732 0.520222
0.711556 2.224871 0.469171
0.849686 2.451865 0.509245
0.616497 -0.977999 0.474636
0.449475 0.646919 0.511305
0.710059 0.648103 0.505213
0.464147 -1.393783 0.488527
0.006225 2.638644 0.148286
-0.001219 -1.087069 0.136895
-0.006495 -1.445509 0.299400
0.002329 2.998426 0.344305
0.005760 1.316558 0.335646
-0.018246 -2.733686 0.194122
-0.001977 -2.622889 0.161778
0.005819 -2.859447 0.235977
-0.013411 0.601582 0.245261
0.003483 -2.585303 0.371891
0.008949 2.602604 0.345990
-0.006724 2.606426 0.357870
0.001177 0.281927 0.359485
0.006026 0.699714 0.386640
-0.010731 -1.253034 0.226437
-0.008452 -2.615275 0.113064
0.030647 1.411305 0.123818
-0.014237 -2.393162 0.213612
0.008449 -2.491151 0.175393
-0.004303 -1.146672 0.144461
-0.003819 -2.924468 0.391551
-0.002346 -0.398308 0.141418
0.005397 1.239126 0.395285
0.013164 1.806214 0.318019
-0.000167 0.629331 0.289129
-0.005640 2.086880 0.307781
-0.003463 -0.577527 0.204006
-0.007673 2.094776 0.295440
-0.018889 0.039651 0.161153
0.006372 -1.660610 0.361540
0.012771 2.668984 0.178505
-0.007878 -1.347862 0.183354
-0.004880 -2.834536 0.295421
-0.010425 -1.564599 0.287961
0.015081 -0.779297 0.237736
-0.006384 -0.894118 0.294467
-0.015630 0.142280 0.162197
-0.010457 2.291271 0.302130
0.002831 -1.252221 0.181953
0.006079 0.144238 0.180588
-0.000413 -0.943892 0.143162
-0.013244 1.933141 0.210475
0.003610 -2.055361 0.184891
-0.000584 -2.366607 0.223913
-0.002447 0.014097 0.150149
0.002479 1.035759 0.162231
-0.009768 1.756691 0.265145
-0.005059 0.556132 0.157508
0.019907 1.633698 0.312363
0.008710 -0.636156 0.379640
0.012792 -2.802789 0.229320
-0.015378 -2.296957 0.367727
0.004648 -2.765313 0.131304
-0.000457 -1.018472 0.110898
-0.014552 -0.021362 0.308321
-0.013243 -0.872318 0.331140
-0.000965 0.342270 0.349081
0.011692 -0.120858 0.115391
0.010430 1.075612 0.343290
-0.027726 1.019108 0.219326
0.024615 -1.099438 0.173367
0.000072 -0.925467 0.158444
0.010749 0.510014 0.396398
0.005227 0.576032 0.115699
0.010371 -1.099203 0.358942
-0.001682 -1.039491 0.290366
-0.007580 1.162973 0.313813
-0.000207 0.874072 0.300708
0.012227 -2.199392 0.357534
0.009545 -0.344606 0.163086
0.003029 2.363477 0.113978
0.004250 -2.800538 0.274273
0.006964 2.124713 0.222359
-0.000632 -2.020079 0.148384
-0.001828 0.045255 0.164833
-0.014723 -0.456834 0.207816
0.000656 -2.924551 0.105311
-0.016900 2.500078 0.125732
-0.001933 -0.266445 0.382260
-0.008139 2.718541 0.195528
0.009041 -1.291196 0.392690
-0.002442 2.201834 0.389223
-0.005459 2.546823 0.137379
-0.002921 0.325080 0.307341
0.005161 -1.780727 0.286237
0.005510 1.132362 0.299716
-0.016194 0.283363 0.121821
-0.009743 2.668115 0.169095
0.015397 -0.359325 0.144404
-0.003564 -1.405243 0.291772
-0.018386 -2.177828 0.401178
-0.001024 1.189892 0.289787
-0.000108 2.854694 0.313428
-0.008302 -2.842413 0.387280
0.003923 1.446108 0.295398
-0.022108 2.565782 0.103077
0.006891 -2.558872 0.350223
0.001532 -2.315403 0.216894
0.001362 1.155331 0.083798
-0.011223 0.862671 0.269469
0.015274 -2.583107 0.382456
-0.015516 2.004344 0.195123
0.001314 0.134897 0.229873
0.013803 2.442483 0.134566
-0.009243 2.255170 0.115990
0.002073 1.870014 0.131934
0.000788 0.106017 0.314531
0.030453 -1.495381 0.350189
-0.010263 0.033744 0.125794
0.002946 -2.414185 0.188112
-0.013513 0.949264 0.164554
0.023040 -2.206917 0.106554
-0.007238 0.058339 0.258880
0.008241 -2.678589 0.332470
0.004160 -1.213025 0.290696
-0.008018 -1.599517 0.200028
-0.013410 0.714274 0.273333
0.012331 1.734526 0.133528
-0.000829 -2.648236 0.134846
-0.018447 2.106068 0.369482
-0.000653 2.165802 0.330934
0.009378 -0.938065 0.378772
-0.004420 0.955102 0.369042
-0.001964 -0.558140 0.296640
0.004502 -2.081909 0.388672
0.007603 0.179648 0.227160
0.010342 -2.469125 0.103916
-0.001146 2.279779 0.109730
-0.007180 2.545206 0.115433
0.008276 1.920050 0.123891
-0.002133 0.375562 0.202074
-0.000674 0.344995 0.305911
-0.007732 2.918459 0.316151
-0.002057 -1.517279 0.281252
-0.014543 -2.549308 0.142907
0.010701 0.374967 0.312536
-0.004875 -1.018426 0.194433
-0.000786 -1.066059 0.100040
0.026958 -2.961615 0.188674
-0.007663 0.582714 0.207888
-0.005880 -1.416345 0.173321
-0.011444 -1.862481 0.338021
-0.024136 -2.739755 0.319957
-0.002464 -0.797421 0.307248
-0.001633 2.261532 0.125353
-0.001664 -0.976347 0.345405
-0.004813 1.074648 0.284781
0.004602 1.540896 0.178188
0.000075 -1.040822 0.293921
-0.003278 1.934191 0.245322
-0.012599 1.134920 0.234434
0.013831 0.356247 0.141770
0.010128 -2.991377 0.247346
0.001953 -2.777385 0.135278
0.007482 2.940570 0.147252
-0.001187 1.693190 0.151443
-0.023472 2.625697 0.385438
-0.013715 2.420537 0.178214
-0.003570 -2.858854 0.216661
0.005745 1.754892 0.194977
0.019994 -0.285104 0.361980
-0.014001 1.743018 0.268331
-0.014289 -2.955420 0.373058
0.005307 -1.266387 0.183895
0.006328 1.502964 0.130122
-0.005323 1.769434 0.264060
0.013724 0.736122 0.196274
-0.029210 -1.182018 0.337152
-0.008662 -1.143712 0.359679
0.012972 2.802183 0.254608
0.004942 -0.367819 0.387504
0.005616 -0.309042 0.275872
-0.002615 0.315749 0.187117
-0.003840 -0.554335 0.238630
-0.002410 0.322651 0.123783
-0.013560 -0.411961 0.337622
0.007947 1.955008 0.126133
-0.014120 2.459140 0.191011
-0.006540 2.590066 0.280865
-0.010049 0.377361 0.125415
0.000758 -0.340411 0.127813
-0.000353 1.227957 0.317150
0.011623 2.040783 0.109678
0.013049 0.374314 0.235575
-0.001693 1.208197 0.207013
-0.002554 1.506753 0.169822
-0.005730 1.051282 0.160736
-0.000825 1.463046 0.337495
-0.004803 -1.732207 0.371433
-0.001807 -0.016752 0.132300
-0.004868 0.547317 0.389338
-0.007917 -3.003419 0.261215
-0.005365 2.129438 0.290258
-0.022722 0.659230 0.323255
0.016228 -2.244127 0.303222
-0.008542 1.899600 0.333746
0.016823 1.302777 0.243809
0.015927 1.549637 0.264011
-0.007508 -0.661450 0.191044
0.021870 2.131545 0.134323
-0.009764 -0.506722 0.285815
-0.015671 0.417466 0.129628
0.018979 -3.000659 0.175949
-0.016404 0.870019 0.129889
0.007896 1.318162 0.155244
0.005560 0.395650 0.296990
-0.005072 -0.016053 0.292328
0.000688 1.867564 0.210612
-0.010649 1.085536 0.112619
-0.004069 -1.335302 0.243109
0.001425 2.764734 0.208840
-0.005357 1.244940 0.323432
0.011934 2.926311 0.257233
-0.017178 2.824304 0.224091
0.017951 2.519428 0.239738
-0.011096 1.542510 0.378753
-0.010182 0.648917 0.328029
0.006208 -1.955049 0.259544
0.000008 0.270314 0.237057
-0.018209 1.585548 0.099881
1.510366 -1.742431 0.995389
1.800792 -1.849085 0.982747
1.174847 2.131062 1.007657
1.402703 0.057298 1.007167
1.514335 -2.459366 0.991838
1.448563 1.299784 0.997590
1.181745 -1.489724 1.002499
1.233180 2.271732 1.004590
1.765029 -1.132166 1.004657
1.513541 -1.795274 1.006977
1.141882 -2.491840 0.997412
1.116135 0.074399 1.011544
1.481869 -0.300203 0.996731
1.218274 1.524485 0.994588
1.673775 -0.209619 1.003037
1.735084 -0.944982 0.990315
1.299922 -1.428931 1.011253
1.587591 -1.335228 1.004235
1.224006 2.555515 0.998145
1.348741 -2.014519 0.996752
1.809303 2.950174 0.981660
1.540295 -1.041017 0.993593
1.805932 -2.462985 1.007245
1.282058 -1.496930 1.012688
1.372183 -2.654976 1.004944
1.481754 1.732022 0.984306
1.463836 0.076016 1.002980
1.886301 -0.967620 1.001522
1.205051 0.976003 0.989337
1.786155 0.790580 0.994524
1.776525 2.640235 0.989992
1.553768 2.763491 1.017246
1.353988 1.085451 1.014294
1.506478 1.905304 0.995970
1.327137 1.756997 0.987046
1.738176 -0.047019 0.997849
1.488621 1.237052 1.007303
1.830262 -2.543387 0.990481
1.603606 1.550882 1.007901
1.508194 2.761751 1.009188
1.663321 -2.488286 0.984501
1.497448 2.026789 0.992837
1.831750 2.574570 0.994406
1.245843 -1.625441 0.988309
1.885389 0.159436 0.992785
1.746017 2.568566 0.985185
1.784036 2.774117 1.005226
1.484759 -2.231575 1.005809
1.777485 -0.911539 1.015347
1.358583 1.195640 0.991570
1.699356 -1.673915 1.000608
1.194675 -1.046429 1.012875
1.351406 -2.867014 0.992056
1.459585 -2.080403 1.004430
1.363873 0.384896 0.988679
1.411830 0.914906 0.999014
1.764728 0.903202 1.013984
1.309597 1.669063 0.997471
1.678877 -0.494914 0.996781
1.164029 -1.352266 0.987547
1.703358 -2.891046 1.002904
1.727813 -1.761485 1.010862
1.430702 -1.140334 1.016343
1.687644 -1.932284 0.988083
1.842651 -2.874369 0.985422
1.738250 -2.024053 1.000165
1.404938 0.986512 1.017721
1.495848 0.791587 1.002482
1.736026 2.605619 1.001626
1.336946 1.802834 1.003188
1.736851 0.407177 0.983236
1.339247 -2.166348 0.996253
1.742178 0.392740 1.013970
1.174785 -2.611149 1.005027
1.138540 -0.412287 0.987145
1.907700 -0.682903 0.994137
1.795795 -0.441015 0.995482
1.824672 -1.310004 0.993142
1.856328 1.102213 1.007050
1.448156 2.026002 1.001008
1.333858 1.620733 0.999266
1.200293 0.786375 1.000066
1.508163 0.224673 1.006899
1.261482 -2.818116 0.987917
1.842391 1.350109 0.993877
1.110385 0.285070 0.999724
1.224495 -1.370243 1.001164
1.304684 -1.014548 0.993627
1.249573 2.603462 1.009944
1.291916 0.740803 0.978640
1.618091 -0.139047 0.999333
1.363813 0.720297 1.010141
1.595451 -0.511681 1.001591
1.817450 -0.174321 0.990719
1.585776 -1.250229 1.011551
1.659787 -0.370533 0.991887
1.388051 1.115448 0.998778
1.216553 -2.771646 0.979015
1.325273 1.768847 1.023202
1.889394 -1.311905 1.001499
1.582803 1.082238 0.988025
1.319754 0.854527 1.002527
1.467364 0.912399 1.000362
1.757472 0.635329 0.985010
1.641247 2.751232 0.981289
1.547891 0.037577 1.016604
1.802342 1.400730 1.010890
1.628402 1.233456 1.005535
1.615339 -1.578784 0.986704
1.257355 -1.305027 1.003495
1.194311 -0.449209 1.003487
1.878535 -1.326928 1.014955
1.578746 -0.797902 1.009321
1.427643 -0.667589 1.004932
1.569156 0.611112 1.005005
1.163761 -1.696957 1.010223
1.732331 1.821748 1.018405
1.270033 -0.373882 1.007629
1.726472 1.238186 1.000642
1.546126 -2.523703 0.996185
1.311974 -0.190552 1.011274
1.124434 -2.836238 0.994822
1.747034 1.050722 0.987356
1.238581 -0.941332 0.992422
1.142995 2.697916 0.994434
1.703261 -1.033669 1.021204
1.369494 0.373691 0.989406
1.422038 -1.459660 1.002397
1.317624 0.720571 1.007062
1.792547 -0.203628 1.010592
1.329367 -0.762832 0.994125
1.263374 -1.788749 0.990757
1.343132 -2.355186 0.997667
1.257440 -2.272825 1.004230
1.347048 2.989655 0.997654
1.181208 -0.534359 0.992802
1.215538 -3.003242 1.003070
1.435671 2.730400 1.010414
1.827545 -2.880859 0.997395
1.132830 -0.481517 1.001185
1.276652 1.293474 1.003516
1.828729 2.488986 0.993167
1.823905 1.297821 0.988897
1.650765 -0.247024 1.006686
1.273677 2.841403 0.986870
1.433692 -2.755696 0.981427
1.265382 2.916219 1.015810
1.207188 2.084577 0.995287
1.419560 2.580724 0.990818
1.557987 -1.473716 0.994620
1.370844 -2.152028 1.013892
1.584848 0.978859 1.001405
1.359185 0.095245 1.010939
1.370699 0.136414 1.000126
1.724797 2.545678 1.008880
1.794648 0.720486 1.007087
1.349383 -1.122663 1.000729
1.555561 -0.619682 0.996264
1.326246 -2.181571 1.005679
1.153930 -1.858207 0.998732
1.702493 -2.148777 1.009652
1.244136 1.864495 0.996713
1.430707 1.246995 1.006319
1.493043 0.177942 1.000379
1.249224 -0.749794 1.007343
1.167820 0.996300 1.000843
1.360938 1.874195 0.994908
1.866746 2.307225 0.980554
1.614850 0.279767 1.003478
1.390980 1.929279 1.000415
1.130514 0.048462 1.000738
1.588677 -0.155182 1.011742
1.185135 2.186180 1.015951
1.534488 -0.681259 1.000990
1.702254 -0.650825 0.998145
1.425229 -1.154269 1.015861
1.348049 0.109826 0.989920
1.131332 0.288527 0.993078
1.096266 0.973069 1.015005
1.460613 -0.406603 1.012015
1.807206 -1.713739 1.000279
1.301466 2.199700 0.998192
1.549603 -0.934012 1.018381
1.666188 2.537634 1.002815
1.138855 -1.749454 1.017596
1.207188 0.364984 1.005390
1.370298 0.236119 1.020360
1.633740 1.978619 1.000842
1.444907 -2.164184 1.006715
1.689525 2.450811 0.995364
1.789519 0.180145 1.003135
1.710879 0.526451 0.991424
1.888023 0.076543 0.998355
1.703790 -2.785602 1.011330
1.793461 -0.006324 1.000266
1.757169 -1.399450 1.008563
1.679646 -0.929633 0.994644
1.755548 0.909392 0.990785
1.853564 -0.005995 1.026149
1.472743 -2.426365 1.000173
1.598216 -2.562952 1.000025
1.501363 -1.882932 1.009578
1.783212 -1.860108 0.998515
1.445042 0.651978 1.011098
1.758501 -1.947140 0.994377
1.741144 2.301558 1.012978
1.887256 -1.740130 1.007633
1.284592 -2.448913 0.989247
1.667070 2.284775 1.003036
1.696898 -1.223957 0.994829
1.839415 -0.426433 1.010668
1.828977 2.750240 0.996892
1.574245 2.669281 0.969172
1.587532 1.291332 1.003434
1.244700 -2.581712 1.007469
1.875733 0.547743 1.002802
1.318330 2.927989 0.992720
1.691999 2.676925 0.995894
1.732905 -2.364635 0.984264
1.447579 -0.621893 1.002232
1.011580 1.372895 0.709786
1.009147 -2.237171 0.632688
1.000179 1.202398 0.816659
1.006231 -0.095318 0.690023
1.012609 2.521590 0.703140
0.991661 1.832431 0.620295
1.002571 -2.369994 0.735245
0.994960 -2.194073 0.638454
1.004339 -2.585408 0.722393
1.000532 -0.036608 0.634517
0.997574 -2.510693 0.878534
0.983422 1.326704 0.639314
0.986816 0.310674 0.773216
0.986214 2.012484 0.680417
1.004081 -1.324903 0.621340
1.004294 0.131802 0.655384
0.992424 -2.308910 0.617463
0.985943 2.303022 0.632732
1.010741 -1.955054 0.752015
0.983959 -2.384511 0.783513
0.995744 -1.747584 0.635524
0.998716 1.869378 0.723154
1.011652 -2.380440 0.771935
0.986522 0.689138 0.670827
0.996923 1.488008 0.705953
1.003268 1.514693 0.606718
0.992516 -1.859096 0.672341
1.014212 -2.632415 0.736861
0.991274 -0.303862 0.894161
0.997260 -1.786027 0.904396
0.994363 1.187903 0.898204
0.969743 -0.865880 0.715413
1.012033 -0.308286 0.618597
0.999514 -2.325044 0.693046
1.000971 0.401081 0.667022
0.989898 -1.898393 0.604844
1.003066 1.059632 0.636169
1.007640 -2.563240 0.738956
1.006371 2.877218 0.698884
0.989543 1.091821 0.671663
1.017688 -1.918869 0.807557
0.996760 -2.903190 0.694262
0.980334 -0.971547 0.858684
1.004544 -2.085171 0.676951
0.984858 -1.697941 0.762570
0.977291 2.233476 0.651600
0.996973 0.613717 0.738631
0.981780 -1.939807 0.642739
0.986247 0.340582 0.645524
0.995390 -1.486885 0.790495
0.987669 2.857838 0.671053
0.996113 -2.791934 0.657026
1.011300 1.397214 0.882892
0.982189 1.634807 0.610652
1.012237 -2.602086 0.772193
1.002258 -1.957207 0.763142
1.008278 -0.711209 0.659042
0.977167 2.216789 0.742568
1.008968 0.215226 0.620686
0.998790 0.946278 0.833319
1.007938 1.701387 0.679863
0.997442 1.964827 0.656725
0.990213 -0.144043 0.683289
1.010250 0.058196 0.885007
0.983707 1.327052 0.823215
0.988017 -1.426154 0.897145
1.002256 2.124500 0.787662
0.986241 -2.863953 0.806863
1.013525 -1.821402 0.717588
0.987554 1.805848 0.867859
0.994412 -0.969483 0.762739
1.004562 -2.095991 0.700182
1.001763 -1.892849 0.790814
0.974721 0.168857 0.760619
1.023751 2.059082 0.624770
1.002168 -2.558402 0.719839
1.007021 -2.820491 0.688891
1.000822 -0.215574 0.861293
0.983937 2.746024 0.714046
0.997853 -1.342371 0.836669
1.011986 2.752937 0.735501
0.991205 2.325797 0.812329
1.000999 -1.297483 0.643791
0.990964 1.898268 0.882767
0.997886 1.112331 0.763203
0.990490 0.081739 0.666393
1.006548 -0.455422 0.667343
0.987825 1.873312 0.673372
1.005262 1.747700 0.710987
0.985236 1.539279 0.803785
0.999220 2.984525 0.872977
0.993411 -0.138267 0.787572
1.010827 1.837936 0.742128
0.993767 2.184017 0.726966
1.014977 -1.738951 0.853492
1.010366 -2.743099 0.841152
0.990575 -0.559809 0.679865
1.009757 2.136117 0.887440
0.986139 -1.271463 0.709782
1.002256 1.200993 0.844650
0.995095 -2.965214 0.891873
0.989704 -0.857029 0.809952
0.996739 0.697722 0.647702
0.983419 -2.232071 0.786418
1.000839 2.362826 0.639154
0.994407 -2.071101 0.825294
1.009999 2.439106 0.676019
1.001201 -1.685881 0.814103
0.991540 2.980966 0.859476
1.002653 0.633370 0.645492
1.006976 -2.499069 0.724809
0.981604 -2.604987 0.790015
1.011497 -2.550910 0.738390
1.005076 0.538081 0.660322
1.007941 1.862194 0.585798
0.990174 -0.568383 0.709420
1.008825 -0.323921 0.787505
0.980048 0.530037 0.792975
0.991367 0.190301 0.636897
1.012148 1.125941 0.728949
1.014135 -0.163491 0.701648
0.987764 1.294746 0.682429
0.984509 2.966033 0.807621
0.987605 -0.918674 0.681901
0.990809 -2.931334 0.778972
0.997332 -2.247926 0.882060
0.997627 0.325087 0.764589
1.001226 -0.906789 0.794218
0.989183 2.643598 0.614056
1.004462 0.750925 0.642362
1.003439 0.132108 0.635312
1.008541 1.791975 0.831169
0.994963 -1.440331 0.861025
0.999369 1.917262 0.671851
0.999796 -2.980876 0.670624
0.999022 0.709861 0.700742
0.999612 2.626966 0.785208
0.994045 1.734450 0.789618
1.013094 2.116561 0.807913
0.999009 -0.617687 0.862706
1.005759 1.949613 0.701364
0.999900 0.300872 0.805521
0.992058 0.722091 0.778745
1.012573 -2.642742 0.686886
1.001092 -1.786889 0.866623
1.013331 0.311587 0.619723
1.018829 -2.646220 0.802659
0.991697 1.463559 0.836612
1.010095 2.053535 0.886764
1.005569 2.525465 0.760973
1.007360 -2.396805 0.703806
1.014586 2.636258 0.845190
1.004766 -2.600776 0.818075
1.011477 -0.160172 0.750279
0.993899 2.054274 0.838889
0.997593 -2.589932 0.676893
1.005702 -2.888727 0.777943
1.002117 -2.842726 0.859136
1.004500 0.057752 0.720934
0.997161 1.871616 0.750730
0.995892 -2.235362 0.885270
0.990860 -2.247953 0.822971
1.017527 0.419211 0.872503
0.982634 -1.602152 0.729468
1.041512 1.393229 0.909321
1.005250 2.689337 0.655721
0.988988 1.584095 0.742896
1.009757 2.262478 0.744791
0.999846 0.106259 0.832822
0.993796 1.979863 0.867543
0.989187 -1.896804 0.825952
0.987064 -2.592879 0.806605
0.990192 0.939985 0.729284
1.010929 -2.685330 0.748785
1.000668 2.355702 0.751873
0.986809 1.161756 0.616775
0.989558 2.710197 0.748663
0.988435 -1.135348 0.850085
0.996436 -0.097462 0.814552
1.011629 1.458563 0.837446
0.981596 -1.536169 0.718609
1.004243 0.270454 0.750444
0.971252 0.946269 0.614906
1.000269 2.860696 0.700702
0.996454 1.455759 0.747531
0.995886 -2.297486 0.668980
1.002631 -0.147573 0.611392
1.001801 0.531903 0.796791
0.992696 -2.124208 0.751178
0.986512 -0.412393 0.725686
0.996967 -1.285225 0.671911
0.997655 -2.278888 0.779456
1.014075 0.070885 0.730913
1.000467 -2.004731 0.733722
1.009366 0.545291 0.773813
0.987289 -1.981196 0.582965
0.994183 1.335939 0.875179
1.018798 -1.822831 0.635810
1.006452 2.388961 0.753849
0.992682 -2.850715 0.668900
0.999963 0.134188 0.754648
0.994037 -1.063164 0.673070
1.006864 -1.644299 0.842212
0.991692 -0.177010 0.724554
0.996330 2.051261 0.777050
1.023259 2.492375 0.679654
0.994594 -1.187035 0.624949
0.980833 -2.071752 0.709131
0.995950 1.314462 0.751086
1.000354 0.466312 0.734709
0.999097 -1.807496 0.903736
0.994055 1.559400 0.806130
0.999184 0.126664 0.923431
1.007456 0.931251 0.705682
1.002489 -0.828263 0.844640
1.001440 -0.361911 0.748453
1.002921 -1.933385 0.767275
1.001929 1.527954 0.895685
1.001384 -2.056102 0.787155
1.008987 1.668923 0.874056
2.726442 -1.709640 1.510973
2.706983 2.623691 1.494544
2.105651 0.824983 1.486009
2.317125 2.403935 1.492149
2.473764 -2.346578 1.510551
2.570320 0.731354 1.491540
2.824003 2.102063 1.498649
2.401033 -1.001729 1.513321
2.783556 -1.822663 1.502257
2.226128 -1.406595 1.482736
2.411651 -1.357248 1.491348
2.135972 -0.333838 1.496860
2.689164 -1.057469 1.507767
2.233290 -1.372629 1.496943
2.309966 0.890877 1.489178
2.713660 -2.684770 1.502482
2.527867 -0.955714 1.484752
2.117830 1.138546 1.525527
2.097912 -1.941667 1.528292
2.510469 -1.675109 1.490131
2.359247 -1.807591 1.504271
2.239514 -2.996337 1.485761
2.604306 -0.160171 1.487849
2.295276 -2.771289 1.503346
2.582180 -1.357621 1.478034
2.410366 2.967814 1.496710
2.248306 2.494277 1.501922
2.196840 -1.712404 1.501563
2.300229 -1.148182 1.514516
2.133334 -0.222067 1.488912
2.332063 2.069199 1.492627
2.833557 1.809080 1.490993
2.767426 -2.249412 1.500085
2.407463 -2.252135 1.501210
2.562718 -0.516537 1.503918
2.555488 2.229501 1.506058
2.760971 2.302834 1.497074
2.291504 -2.358916 1.504618
2.333345 0.462259 1.520174
2.350168 -2.050536 1.484608
2.118482 1.113560 1.500412
2.349768 2.482178 1.511516
2.823873 -0.258574 1.510855
2.831851 -2.509933 1.500725
2.208764 0.472005 1.495450
2.477520 -0.537163 1.491521
2.402464 1.860373 1.500697
2.502524 -0.965973 1.510897
2.544792 2.272645 1.503188
2.115238 -1.352050 1.496629
2.755841 -2.057299 1.497437
2.863008 -1.161848 1.479329
2.619247 -2.788069 1.500970
2.624251 -1.313380 1.492159
2.522492 0.961287 1.490998
2.370096 -2.143687 1.498338
2.243393 -2.333217 1.497208
2.563027 -2.215398 1.506859
2.129091 -2.540370 1.494618
2.749753 2.230302 1.495371
2.445463 2.666661 1.515606
2.439313 -2.715394 1.518826
2.360765 1.561062 1.499885
2.890921 1.422936 1.493517
2.245810 2.973294 1.505335
2.225185 -0.914670 1.505658
2.217547 -1.285316 1.495372
2.655445 -0.279949 1.494036
2.879733 2.152505 1.496500
2.280467 1.374925 1.506497
2.830833 -0.170060 1.501592
2.325214 -1.529259 1.504249
2.629264 1.362659 1.491832
2.130956 2.134699 1.482135
2.478716 -0.591110 1.515201
2.611004 1.012517 1.496005
2.526448 -0.595673 1.487071
2.279196 -0.132052 1.498546
2.751538 0.157359 1.495824
2.871891 1.657182 1.498711
2.475732 2.855702 1.486026
2.605638 -0.333201 1.487592
2.718453 -0.944287 1.492422
2.278666 -0.748801 1.493682
2.803058 -2.196381 1.502948
2.322046 -1.244919 1.488632
2.719408 -2.477668 1.482103
2.189143 -0.443857 1.502346
2.330515 -1.988421 1.510668
2.531486 -0.912956 1.496497
2.548169 1.749278 1.494722
2.789359 -1.516907 1.504874
2.903655 0.650532 1.515893
2.183730 2.419548 1.479665
2.319676 0.395940 1.505721
2.389249 -1.833584 1.489411
2.482565 -0.933205 1.504953
2.505021 0.543720 1.487238
2.786032 0.065778 1.516460
2.686703 -2.107648 1.509321
2.113258 -0.323823 1.497330
2.469539 0.246915 1.511887
2.593899 -1.405354 1.511243
2.452865 0.669121 1.494283
2.225956 -2.585890 1.478450
2.412161 -0.975802 1.507841
2.452090 1.839730 1.501879
2.241259 -1.428051 1.496314
2.698464 0.626890 1.487477
2.352470 -0.542153 1.507307
2.567309 -1.113914 1.483962
2.514680 2.497516 1.494457
2.797267 -0.936545 1.513905
2.189811 -1.579056 1.509583
2.183649 2.455652 1.499620
2.327143 1.477351 1.500315
2.450523 1.078929 1.500100
2.352651 -2.682015 1.512801
2.698779 -2.208260 1.495169
2.299052 0.822318 1.482865
2.164375 -1.736177 1.502880
2.435069 -1.644009 1.504045
2.723999 1.672084 1.500829
2.797882 -1.283030 1.500426
2.687705 -2.572655 1.495646
2.548396 -2.786465 1.498545
2.671448 -0.339852 1.505842
2.642992 0.682688 1.505904
2.288695 2.203379 1.507733
2.526623 -2.324720 1.499426
2.693799 -1.818180 1.495938
2.348128 0.171426 1.498728
2.618327 -0.833917 1.512721
2.482741 -0.112095 1.488716
2.510234 2.531764 1.501340
2.166208 0.264096 1.488964
2.626770 -0.509188 1.502353
2.784694 2.935730 1.508885
2.196519 -2.608769 1.490492
2.382358 2.595291 1.494547
2.126766 0.023214 1.509201
2.104383 0.007794 1.505935
2.888878 2.546792 1.506163
2.497772 0.033725 1.504914
2.371658 -0.356505 1.504221
2.311653 -1.357022 1.522415
2.881834 0.958405 1.495682
2.302654 0.402798 1.499995
2.681002 -1.695937 1.482050
2.324198 1.269359 1.497582
2.154678 0.856189 1.490674
2.628363 -0.622289 1.490106
2.102485 -2.981471 1.495204
2.636077 -0.320995 1.494715
2.289683 -2.962794 1.510675
2.698168 -2.556107 1.498769
2.695294 -0.417735 1.495996
2.669951 -2.516002 1.495898
2.129511 -1.335087 1.490719
2.657809 0.928022 1.508096
2.893572 -1.147380 1.505363
2.288136 2.999530 1.499983
2.310832 2.495516 1.512319
2.746570 0.521355 1.493747
2.220661 2.808279 1.491260
2.636692 2.211620 1.491264
2.703307 -1.092097 1.503490
2.148607 1.493870 1.505338
2.543254 -2.178769 1.498348
2.552128 1.110660 1.497113
2.333706 -0.043367 1.500990
2.798795 -2.885644 1.481639
2.242928 -1.363423 1.502115
2.385475 2.723063 1.513139
2.797497 -1.107223 1.503355
2.253084 -1.893968 1.478868
2.760870 -1.882083 1.476440
2.159650 -0.106240 1.493440
2.499291 2.067882 1.499873
2.161469 1.530848 1.492838
2.651393 -0.378281 1.503673
2.733813 -1.725719 1.495695
2.795941 -2.722275 1.516942
2.872760 -0.222372 1.496063
2.639007 1.900876 1.503788
2.727453 1.371390 1.491772
2.504768 -0.548782 1.498141
2.820603 0.580203 1.496372
2.629267 -0.382393 1.506484
2.812418 0.465854 1.503672
2.307645 0.107548 1.509013
2.504323 1.088870 1.501865
2.689328 0.053886 1.486478
2.264650 2.641825 1.496085
2.282032 -0.439162 1.486052
2.890391 -2.918706 1.480721
2.456771 -1.580172 1.504727
2.241028 -0.010203 1.488142
2.362449 0.230707 1.503070
2.413276 0.316159 1.501552
2.602336 1.292307 1.496561
2.840251 -1.349751 1.475711
2.895737 0.990921 1.505641
2.608490 1.221036 1.489085
2.667384 -0.546367 1.490713
2.362807 -0.593279 1.490716
2.794794 -1.916974 1.507221
2.282726 -0.518392 1.497954
2.178624 1.722575 1.494721
2.874274 2.459837 1.511845
2.795294 0.579622 1.492945
2.324536 -1.196632 1.492282
2.637400 1.076040 1.491008
2.458592 1.436534 1.496055
2.359402 -0.994326 1.506769
2.313198 1.965367 1.501118
2.207844 -2.558052 1.502046
2.532536 -2.937301 1.511839
2.450238 -2.272474 1.499383
2.498443 -2.081178 1.496555
2.014486 -1.988673 1.365464
1.978698 -2.028465 1.228428
1.993351 -1.185892 1.184181
1.989405 -2.127197 1.240694
1.997721 2.522852 1.216676
2.008546 0.065464 1.196224
1.993220 0.743872 1.135727
1.994330 -0.839840 1.282684
2.004854 -1.325210 1.147837
1.986689 0.006247 1.325111
2.001579 -1.231803 1.147789
1.991272 -0.946239 1.317604
2.019847 -0.292827 1.331906
1.988669 0.040758 1.137184
1.991038 2.902256 1.118109
2.002959 -1.633221 1.390381
1.999070 -0.078793 1.225480
2.007337 -2.096136 1.284410
2.012133 -0.899794 1.114726
2.002962 1.302093 1.174064
1.998545 -1.944807 1.246538
2.004397 0.477280 1.373666
2.003129 -0.511815 1.179192
2.009314 -2.703113 1.321848
1.999305 2.619785 1.291938
2.004953 -0.515780 1.128686
2.001611 1.699081 1.184435
1.983387 -0.502363 1.180350
2.000574 2.635067 1.238562
1.999405 -1.263457 1.285738
1.985295 -0.529287 1.231486
2.017154 1.558469 1.164712
1.985606 -0.940062 1.316881
1.997794 -0.808438 1.273530
2.007170 2.952966 1.271836
1.988875 0.341624 1.263604
1.998842 1.133872 1.169126
2.004575 0.871357 1.318209
2.003318 1.984682 1.217180
2.010774 2.175238 1.203548
2.001812 0.384569 1.144598
2.004128 -1.224010 1.278817
1.970561 -2.846416 1.277823
1.991767 0.675178 1.198726
1.994372 1.945443 1.351134
2.005297 -0.276458 1.361843
2.011226 -2.015537 1.133763
2.004265 -1.278103 1.304254
2.008546 0.070837 1.218825
1.988048 2.017131 1.385501
2.000752 -1.966927 1.164800
2.002417 0.677068 1.186726
1.987985 1.517679 1.236730
2.015787 2.613566 1.186123
2.008781 -2.301744 1.319082
2.012022 2.572154 1.248857
2.023601 0.602652 1.187504
2.007683 1.613613 1.248712
2.008445 -2.663082 1.355763
1.998367 0.015476 1.335935
1.991840 0.733600 1.278885
2.017178 -1.173391 1.192105
2.007989 -0.413478 1.155749
2.002760 0.312323 1.353202
2.001723 0.316282 1.305964
1.992056 -2.749729 1.280511
1.999235 -0.346882 1.356872
2.001931 -1.720634 1.142387
1.992184 2.519444 1.287841
2.017155 2.860380 1.170538
2.013345 -1.193542 1.128873
2.006001 -1.930213 1.230810
2.021184 -1.679118 1.211886
1.991067 -0.135719 1.362799
1.995848 2.244404 1.186450
2.007478 -0.001970 1.338113
1.996747 -2.664097 1.325380
1.992990 -2.759430 1.299870
1.988605 -1.638539 1.381914
2.005721 2.054328 1.229145
1.990200 0.719393 1.214389
2.014976 0.379380 1.145531
2.015441 -1.089052 1.205076
1.994887 2.566435 1.362269
1.997509 -1.021008 1.268334
2.003186 2.014309 1.197787
1.994223 2.385677 1.148075
1.988571 -0.102463 1.258999
1.996255 2.369897 1.315277
2.012963 -1.355028 1.193367
1.998011 0.959849 1.319122
2.000244 -2.473243 1.278912
1.987196 -0.162199 1.337568
1.992431 -1.699310 1.156415
1.996294 -2.613184 1.296360
1.999131 -2.975210 1.137838
2.016244 -1.030810 1.210787
2.025907 0.530382 1.304797
1.992904 -0.270813 1.312621
1.997188 -1.197981 1.147374
2.011400 2.957173 1.352648
1.981242 2.625864 1.133218
2.006888 -2.245425 1.297253
2.019583 -0.509715 1.394970
1.994179 0.890236 1.244588
1.985096 1.383718 1.351045
1.984386 -0.782267 1.271250
2.017374 1.474040 1.319265
2.012838 -2.241081 1.287618
1.996683 -1.018182 1.306134
2.001078 1.295085 1.150154
1.994191 0.761132 1.320457
1.996726 2.013953 1.165272
2.014090 -2.730256 1.401400
2.000471 -1.951202 1.161013
1.996482 -2.709090 1.165799
2.003314 -1.842740 1.379329
2.002782 -2.993426 1.184526
1.997961 0.045381 1.222980
1.994947 0.177105 1.308452
2.000027 0.954111 1.158755
2.008952 -0.689775 1.172556
1.996350 -2.996826 1.231761
2.014740 1.042580 1.174700
1.994575 -2.678781 1.162826
2.004711 2.196049 1.107122
2.003394 -2.868335 1.196548
1.984542 0.213117 1.210257
2.013402 2.362761 1.109442
1.991846 0.421817 1.280482
2.013262 0.658908 1.278296
1.996852 1.097156 1.115530
2.000796 -2.261528 1.199022
2.002542 1.043026 1.356332
1.988664 2.266516 1.273503
2.008162 2.831522 1.226322
2.007846 -0.360055 1.236825
2.016462 -0.927451 1.143779
2.006583 1.512380 1.350478
1.993099 0.256715 1.368826
2.000031 -1.461845 1.370964
1.988244 -1.962146 1.168933
1.983835 -1.968689 1.191459
2.001618 -0.237292 1.151469
2.011652 -1.982187 1.202505
2.001229 -2.876610 1.203878
2.012407 -2.680253 1.285502
1.993587 2.578810 1.149293
1.989478 -2.583513 1.360326
2.019854 -2.567481 1.149964
2.004032 -0.293367 1.087057
2.000047 -1.510476 1.372060
2.002742 2.764676 1.301559
1.991474 2.478697 1.222925
2.001959 -0.574571 1.294137
1.990214 -0.307093 1.171693
1.991372 -0.755677 1.143380
2.014167 -2.753660 1.242493
1.997318 -1.248917 1.205974
1.994498 -2.264930 1.288701
1.995947 -2.387674 1.163590
1.996824 0.360755 1.306500
1.982293 -2.391668 1.331414
2.006100 -2.375161 1.142910
1.990856 -0.127240 1.110687
2.006992 -0.352143 1.237956
1.976321 -2.178047 1.343879
1.998290 -2.981597 1.288666
1.969720 -1.852271 1.321137
1.994174 -1.589292 1.197534
1.983692 1.813391 1.176657
1.987026 2.486324 1.259242
1.988039 -0.584375 1.159718
2.005726 -0.563921 1.326621
1.984464 1.275467 1.156405
1.999128 0.759414 1.180774
1.969822 -1.883541 1.255263
1.985157 -2.349134 1.241540
1.995810 -0.382013 1.285624
1.992002 0.378002 1.242551
1.998211 -2.169229 1.382767
1.993324 -1.245041 1.355037
1.984586 -1.162131 1.356177
2.008555 -1.426744 1.293000
1.983930 -0.236466 1.278730
1.999631 0.895229 1.267351
2.011890 0.060030 1.226927
1.990913 -1.802103 1.198633
1.996564 -2.366899 1.275753
2.000587 1.917338 1.104053
2.001770 -0.127900 1.097381
2.003269 -2.612017 1.356942
2.011442 -1.445055 1.124771
1.993903 1.822133 1.255411
2.005463 1.518282 1.285747
2.008767 2.249266 1.168305
2.010158 0.619302 1.370061
2.007133 -0.471504 1.159012
2.003005 -0.453485 1.370100
1.987512 -1.840279 1.329295
1.992693 0.905619 1.172888
1.991798 0.516092 1.137582
2.022880 -2.071908 1.183157
1.990157 2.325453 1.215294
1.986362 -0.780654 1.169580
2.006534 -2.692212 1.402412
2.023959 -1.049962 1.160716
1.997440 2.241752 1.367170
2.012887 2.493798 1.140960
1.991714 -0.065444 1.409000
1.997562 2.736925 1.175401
1.983365 2.251977 1.215538
1.997056 1.945520 1.261189
2.002256 2.160473 1.133888
2.003707 -0.717434 1.351862
1.997938 1.533977 1.174458
1.997586 0.482740 1.264148
1.988556 1.327292 1.260171
2.002838 -1.939340 1.293600
1.994092 1.402342 1.106153
