# .PCD v0.7 - Point Cloud Data file format
VERSION 0.7
FIELDS x y z
SIZE 4 4 4
TYPE F F F
COUNT 1 1 1
WIDTH 2000
HEIGHT 1
VIEWPOINT 0 0 0 1 0 0 0
POINTS 2000
DATA ascii
0.072368 0.781100 0.000728
0.142992 5.666236 -0.007988
1.378838 0.819402 0.004378
-2.558559 0.654137 -0.011940
-0.389718 1.320696 -0.000500
5.165310 -3.049375 -0.011467
-2.286740 -1.307044 0.009018
-2.756739 -1.799821 -0.006728
5.234756 -1.465389 -0.001771
3.295790 -5.513193 -0.002201
-2.416133 2.431094 -0.010026
-0.572969 4.678295 0.008631
-0.778800 1.482718 -0.010687
1.024557 1.189581 0.002653
1.868228 0.135384 0.001307
-3.675843 -5.172391 -0.012161
-2.975452 -4.857686 -0.000934
-4.642447 -2.632970 0.008556
1.110196 -1.881330 0.004853
3.334191 5.584626 -0.001879
-2.017920 -3.164590 -0.006694
2.253976 0.871990 0.001442
3.234686 1.402989 -0.012977
-2.645778 4.933276 -0.006088
0.875238 2.619726 0.020997
2.068496 3.237530 -0.003107
3.028871 -1.076353 0.007518
-5.544888 -0.180300 0.009067
4.744181 -4.265388 0.013362
3.384149 1.864391 -0.010372
2.468199 -3.382743 0.001022
-5.096036 -2.786614 -0.009736
1.478797 -1.337020 0.000372
-2.942440 -1.235274 0.001636
2.734685 -2.933793 -0.008029
0.536608 -1.123345 -0.000125
5.916842 4.246292 0.002552
2.670093 0.607472 -0.005161
-1.220837 2.133612 -0.006554
4.106029 -4.320102 -0.010751
-5.521239 -0.484581 -0.000211
-2.763490 4.621891 -0.010267
-2.834004 4.957170 0.005728
0.012580 4.020020 0.003139
-0.562290 2.593792 0.012480
5.735511 -4.007091 -0.012504
-2.903904 0.187445 -0.008341
-1.457823 3.618368 0.005818
5.081238 0.871519 0.000509
-4.407509 -1.481550 0.000970
-2.334546 1.739459 0.002733
-2.952070 -4.979592 -0.004934
0.126071 -2.641675 -0.005976
-0.032545 -1.850376 -0.013900
3.181396 -2.898271 -0.007331
2.769828 -4.620245 0.001451
3.365503 5.966552 0.017085
-2.622047 5.996248 -0.014260
1.463237 0.842352 -0.007445
-2.932577 2.042011 0.007726
-0.641391 1.121450 0.003427
-0.246439 3.385421 -0.000433
0.324216 -2.001203 -0.005202
-2.179302 0.725531 0.016247
5.606191 -4.781792 0.001451
-5.748271 -0.600401 -0.007619
-3.830430 4.891269 0.012034
0.815717 3.836069 0.001424
3.810008 -5.863203 0.004264
4.560303 -0.894261 0.000554
-3.281998 4.414766 0.007906
4.007016 4.468929 -0.000184
4.628622 5.500307 0.018724
-2.934466 -3.092970 0.002874
-5.314658 2.997115 -0.008175
-1.507206 2.039219 -0.001980
3.627499 -2.933217 -0.006722
5.915602 1.180669 0.018656
4.691567 0.177733 0.004844
4.930606 -0.142709 0.007121
3.714362 -1.471625 0.011887
-5.995962 2.702466 -0.010032
-4.626405 5.341190 0.012980
0.794271 -1.670730 -0.007620
3.254998 5.425445 -0.004287
-1.115432 2.402436 0.005817
-0.889575 -4.528747 -0.008470
-3.966484 4.217542 0.006261
-0.508883 -1.808468 0.020601
-2.125397 -1.832383 0.008007
-2.475579 3.490838 0.013924
2.446613 1.151434 0.021557
3.512406 -4.661728 0.004639
4.056604 -3.081482 0.009719
-4.637762 0.270870 -0.023778
-1.643105 2.552085 0.002507
3.055861 4.133214 0.001944
-3.835186 1.898251 -0.003014
-1.900638 2.036370 -0.000363
2.755140 3.865992 0.011620
-0.786135 0.012401 0.011612
0.822617 0.478909 0.007098
3.733237 -1.947384 -0.013064
4.181163 -4.144407 -0.010974
2.643413 2.738252 0.007686
1.133222 -2.887969 -0.006398
1.304137 -3.450953 -0.000695
-5.398204 3.179846 0.000146
-1.079294 -3.124692 -0.013840
2.612826 -1.609282 -0.013193
0.862841 -2.267236 -0.009455
-4.327248 -3.412772 -0.015310
-2.608063 0.078968 0.018140
1.806771 5.591465 -0.017759
1.103721 5.594922 0.000026
-3.995188 -4.993833 0.005545
-4.798156 -1.176182 0.005628
-1.501663 3.506076 0.001220
-5.633439 1.115721 -0.008212
5.687453 -1.854233 -0.015628
0.316641 1.460941 -0.011203
1.375591 0.518506 0.001639
-1.031247 -1.283633 0.003455
-4.480171 3.550163 0.010413
5.011734 -4.026075 0.002764
-4.141653 5.927744 0.003893
-5.935002 4.091512 0.014348
5.501629 2.917618 0.005975
-2.932350 3.304558 0.004278
1.369534 2.683291 -0.002687
-0.143585 -2.378187 -0.027423
5.184429 0.740912 -0.016815
-1.891124 -3.782119 0.005525
2.113549 -4.647910 -0.017380
1.037032 0.300097 0.003456
5.666338 3.870300 -0.007737
-2.037895 -0.362288 -0.006779
5.799027 3.964598 0.002832
-4.904436 2.576867 -0.001615
3.341536 5.964762 0.006344
3.784696 5.236027 -0.006118
5.536566 -4.262980 0.003181
5.117399 -5.618357 0.004313
2.141443 4.201124 -0.009569
-1.221714 4.280787 0.000473
2.036289 1.825150 0.001726
1.095834 -4.233022 -0.001128
5.707170 2.243680 -0.011722
4.292418 -1.952390 -0.006521
-4.270973 2.224740 0.000710
-3.429167 3.020321 -0.021160
1.415696 4.848692 0.003098
4.539927 -1.884691 0.013497
-3.011563 -5.649906 -0.008059
0.399953 -5.838774 -0.004777
-0.058261 -1.907025 -0.010481
-2.066351 4.435187 0.013100
3.045801 1.996961 0.011420
-0.729020 0.869009 -0.000137
1.271744 -2.328152 0.003533
3.725705 -4.680943 -0.008146
-4.857507 -5.529613 0.006018
4.975359 -2.480604 -0.000848
-5.074774 1.498212 0.000907
1.698800 -3.491163 0.011777
5.698810 -3.218897 -0.020519
-0.933056 0.812435 0.005175
2.090798 -1.233461 0.008871
-3.708470 -0.850409 0.011450
-0.563191 2.219709 0.002426
5.311704 5.480489 -0.002921
5.560805 -0.450205 -0.016465
-3.471267 0.453878 0.013311
-2.020287 -0.197372 -0.019604
1.156312 2.720165 -0.000339
1.104905 -2.206542 0.002791
5.945177 -1.712854 0.007920
5.852610 -3.100112 0.002783
-3.180676 3.675963 0.008429
-2.235269 -5.767323 0.009725
-1.326243 5.725745 -0.003960
-5.579357 -1.644401 0.014556
0.271845 1.500580 0.009675
-2.812703 3.094486 -0.010819
2.094934 4.720349 0.011157
5.574983 -0.871330 -0.001260
-4.572487 -3.862725 -0.014470
2.569056 -0.598495 0.001594
0.518658 5.943697 0.007736
3.228362 -2.705186 -0.010049
5.754436 -2.192100 -0.006183
3.111136 -1.595670 -0.007224
2.720980 -0.330454 -0.011672
-0.271079 -1.543743 0.002432
0.268648 5.715260 -0.008625
-3.844510 4.457431 0.009155
-5.841242 -3.718158 0.006604
4.573268 5.019965 -0.003484
-1.986340 -3.409453 -0.014833
2.543595 3.586716 0.008851
-4.769151 0.527355 0.010074
-3.876215 1.015222 -0.003134
3.082570 -2.458747 -0.002655
4.448225 -4.834669 -0.004524
-3.704482 -5.755310 -0.005160
5.584048 0.361136 -0.000999
3.673040 3.680841 0.010590
1.974677 3.706607 -0.005624
-1.438841 -2.102796 0.008329
3.527279 -1.803580 -0.000629
-2.510629 2.809153 -0.007645
-2.410542 3.562820 0.004844
5.571482 -3.584598 -0.010183
-3.423577 -1.665845 -0.014960
-5.831252 -4.713657 -0.008702
-2.210318 1.949280 0.009390
3.315545 1.730275 -0.008837
1.812380 3.482141 0.018960
-2.132823 1.252713 0.022913
4.427251 -4.592703 -0.016865
1.782638 -0.459362 0.001165
-0.448097 -0.112224 -0.007369
-0.939836 2.778065 -0.009952
-2.054189 -3.091859 -0.002316
0.198831 3.516196 0.005772
4.052893 -3.304938 -0.010003
-1.402748 -2.980288 -0.010313
-5.918910 -2.262052 -0.016701
-2.785024 4.471647 0.000971
-3.281499 5.980390 0.016998
-4.973851 -5.985679 0.002774
3.351808 -3.100933 -0.013710
-3.905940 5.346045 0.004416
4.890481 -2.285045 0.002039
-0.594110 -3.755892 -0.004057
1.953076 5.930994 0.014683
-5.064487 -5.904392 -0.011400
-5.693944 1.913327 -0.020374
-1.817989 5.687791 0.000200
4.893250 -4.345270 0.011477
5.732780 4.706671 0.016770
-0.811909 1.745778 -0.009131
0.885803 0.806736 -0.008108
-3.951833 4.547562 -0.002512
-5.073703 4.294389 -0.003949
-5.688577 2.924400 0.017335
4.582348 4.946700 0.013424
1.486791 -4.381102 -0.009547
-0.342794 -2.337742 -0.014929
5.986688 -5.552368 0.010807
1.054579 -2.533357 -0.003790
-2.735917 -4.892220 -0.007015
-4.208851 3.081711 0.000002
1.011042 -1.472000 -0.002342
2.931254 -3.130916 0.002593
0.678657 1.274245 -0.021198
-4.478805 5.158466 0.011340
-1.982067 -4.842821 -0.005735
-3.693656 1.138137 0.001693
2.608928 -0.652658 -0.009560
-4.128369 2.590674 -0.004624
3.202680 0.239986 0.004760
-1.783851 2.574401 -0.012235
-3.480763 -4.925753 -0.011768
-1.079803 5.250845 -0.003353
-3.201757 -3.623103 0.000417
-3.661808 4.125368 0.014965
0.349534 4.444848 0.003115
3.167478 -0.617643 -0.006334
3.184726 3.426398 0.019813
4.435773 0.696839 -0.010304
3.889423 0.664298 0.000665
-1.742147 4.035299 0.009038
-2.675280 -5.316223 -0.008492
-0.511919 0.783010 -0.012889
-3.702260 4.327257 -0.009705
-1.669087 -2.256498 -0.011722
5.132189 -3.681168 0.001706
-3.435308 -2.092590 0.005483
4.266973 2.746327 -0.004544
4.365759 -1.053038 0.009287
2.770014 -0.759094 -0.017835
-2.941767 -4.116470 0.000003
5.242061 1.835144 0.013343
-1.293731 -4.878150 0.001296
3.273621 -3.348817 0.001109
1.234965 0.670550 -0.020559
5.130172 4.663978 0.019156
5.695197 0.982547 -0.005034
2.238370 -4.287963 -0.003509
2.142763 4.653882 0.018174
-5.779891 2.147621 -0.000908
1.389643 4.622320 -0.009784
4.214334 0.175389 0.010435
-1.686113 0.832117 0.013685
2.772136 0.445083 -0.000872
4.095211 -1.615545 0.007824
3.347408 -0.381823 0.010742
-1.710043 0.395731 -0.002850
4.085697 3.043577 0.006836
0.497641 1.561398 -0.001090
-5.079322 3.832752 -0.019241
5.581656 4.294205 0.006111
4.731174 -3.278768 -0.001967
0.247095 1.193461 0.013020
3.252862 5.798430 -0.014277
0.779004 -2.789161 0.003904
5.549451 -2.369370 -0.014965
1.386925 1.831957 0.004616
-4.531683 5.653984 0.000843
-1.310123 -0.614433 -0.024383
-5.007987 -5.363449 -0.004212
-1.511864 5.465042 0.002845
5.394587 -0.924738 0.010134
4.931525 1.393674 -0.009797
1.798846 -1.726543 -0.015239
5.051176 -3.970654 0.010073
-3.327595 -0.729685 0.004814
-3.554953 -1.080724 -0.004389
-4.504110 -3.595431 -0.002245
-0.481907 -1.022283 0.010909
0.711121 3.441442 0.005305
-0.887092 4.691203 0.014735
-2.241355 2.600175 0.004066
-1.997008 1.057341 0.008787
-1.576545 5.988257 -0.008342
-5.575815 -1.428334 0.000630
-0.800686 2.331746 -0.005636
4.515738 5.692810 0.003125
0.718903 -0.101480 -0.002688
4.974352 1.921414 -0.000822
-3.054205 5.400553 0.005301
-1.484367 -1.011849 -0.013074
3.851714 -4.854442 -0.005669
5.957712 1.659635 -0.002978
2.585164 3.372126 0.003454
1.050636 3.787556 0.001783
4.754947 4.570027 -0.000029
1.897284 -5.057639 -0.000017
-0.568378 -0.841905 -0.002177
-1.783060 2.621276 -0.003201
-2.512868 0.876537 0.004437
4.625724 1.203925 -0.005247
3.238436 -0.549735 -0.007426
-4.209086 2.599258 0.012223
3.479972 5.018335 0.002334
0.892156 -1.243887 -0.005381
4.729086 4.695515 -0.004544
-2.340201 4.192855 -0.013861
-3.823963 1.155994 -0.016614
-3.919478 -2.649683 0.011765
-3.807617 0.779874 0.002181
1.061579 5.756372 -0.005169
-3.537654 2.452246 0.001821
3.957118 4.457202 -0.008402
-5.437506 -3.642345 0.001064
-1.941893 0.533819 0.012207
-1.390181 5.536052 -0.000333
2.178303 -2.759366 -0.009761
5.779566 3.794745 -0.006601
3.369695 -1.707954 0.003904
4.909593 2.709257 -0.016570
-5.095910 3.594120 0.014907
5.553215 2.693411 0.004296
0.306432 5.252116 0.011028
-0.158004 2.220424 -0.015506
5.475739 -2.329560 -0.004953
4.845753 -1.571609 0.003661
1.704197 3.157912 -0.002711
1.414911 2.271257 0.002647
-1.316299 -0.064650 0.004731
3.874506 5.286756 -0.012152
-5.882830 0.400755 -0.011325
-2.650362 1.803184 -0.009441
-3.493388 -5.469157 0.000933
-4.444324 4.514269 0.017127
-2.387648 -0.816646 -0.003542
-5.630342 2.736185 0.007302
-0.725229 4.851404 -0.003420
-2.683424 -4.932764 -0.011830
2.289121 0.435089 -0.008601
-3.935582 -4.589486 0.007548
4.538905 -0.352289 0.000563
-5.085390 -5.986804 -0.007422
5.761791 1.754803 -0.008505
-3.234133 3.900424 0.017360
5.313955 1.838131 -0.015958
-4.756937 3.962811 0.006214
5.895139 -0.852977 -0.007502
3.009768 0.817198 -0.009752
2.422332 2.601443 0.005998
3.200503 -3.251788 -0.014003
1.289244 -1.490653 -0.019032
-3.795325 4.843072 0.000464
5.818147 -3.756857 0.012146
-5.449104 5.380802 -0.008533
-2.721013 2.897185 -0.005210
-2.538735 1.212093 -0.002518
1.748768 0.656891 0.008211
4.904185 -4.234541 0.014177
-2.750158 -2.698818 0.003276
-4.819036 1.933649 0.002749
-4.989261 3.438371 -0.008969
-5.720566 -2.410913 -0.005234
-5.452746 -4.949393 -0.013589
-0.500548 2.172257 0.017876
5.192394 -4.343949 0.017346
4.319496 0.860055 -0.010426
-4.164598 1.101931 0.011134
1.287272 1.186112 0.002593
-5.509328 -2.666586 -0.009131
0.665519 4.036851 0.015535
3.348620 -1.848990 -0.006912
5.960760 -4.952284 -0.001515
-0.811720 -0.306544 0.003947
-2.305818 0.690624 0.005102
4.889316 -2.002208 -0.019448
2.886412 1.509962 0.000873
-4.534275 -4.934856 0.014239
0.576488 3.387130 -0.004950
5.016475 0.107242 -0.018459
4.863965 -3.372983 0.005145
-1.600240 -2.133334 0.015312
3.409147 -1.973100 -0.017972
4.154092 -4.484194 -0.016639
-2.520937 4.300745 -0.012902
-4.300354 2.801723 0.017393
-1.280318 -5.371601 0.012710
3.549891 3.721209 0.013805
-3.031331 -3.513129 -0.016454
-5.665631 4.603077 0.004093
-3.487406 0.861690 0.001970
-4.448645 5.323664 -0.001732
0.856054 4.524395 -0.001153
0.133757 3.180264 -0.000437
3.190712 -0.988924 -0.015071
5.556874 -1.223777 0.004042
-1.221573 2.703867 0.017598
-2.962579 2.996103 -0.015507
-4.702894 -5.286955 -0.000430
1.464818 -3.577589 0.006833
-4.687490 -1.940346 0.001470
1.762920 -3.077275 -0.019432
0.487469 -5.383824 0.003646
1.968238 -3.968039 0.017934
-4.328020 1.939083 -0.014871
0.303753 -1.112890 -0.005245
0.749216 2.060963 -0.002524
-3.538823 0.521617 -0.007434
-4.776995 -3.147851 0.003851
2.972248 -5.537274 -0.002021
0.437134 4.282043 0.004255
0.695833 -4.071578 0.012556
-1.707704 -1.074929 -0.009268
-1.391420 -2.880535 -0.001258
2.441444 4.291270 0.005012
1.742501 4.805957 -0.006640
1.182901 -4.076150 0.011821
5.600181 -4.346873 0.003567
-0.921588 -0.940923 -0.014116
-1.199324 0.180300 -0.003137
-3.752500 -4.211313 -0.020281
2.133271 -3.644068 -0.000610
3.259566 -4.191053 -0.008450
2.369205 -2.571111 -0.013552
0.673835 4.905334 0.016913
5.290331 -0.477075 0.027575
3.796760 -0.158703 0.007286
1.030225 -4.204071 -0.004687
-3.982567 -3.353337 -0.006030
2.814927 -0.673906 0.003885
-3.887022 4.932317 0.012716
-2.989667 -0.492193 0.005675
-2.868316 -2.327265 -0.016608
-3.192685 2.089387 -0.000103
-1.493233 0.190328 -0.007443
-1.223628 -1.134820 -0.008096
1.740932 5.543330 0.002312
-0.924366 -2.765124 0.003459
-3.590608 -0.097003 0.010212
3.282074 4.109132 -0.010466
-0.296191 -3.969578 0.001795
2.647001 -2.862906 0.016150
-4.742156 -3.358761 -0.000223
1.096168 -1.146258 -0.002637
3.328459 0.810153 0.000830
-1.534479 -3.714199 0.002294
4.201875 -3.945540 0.017338
5.630920 -0.197868 0.003598
1.315413 5.487675 -0.011125
4.895089 -1.132585 0.000884
5.223174 -0.993789 -0.022982
-4.489148 -4.819590 -0.005031
2.377215 0.220752 -0.006512
4.840429 0.396382 -0.012874
3.489568 5.568960 0.009821
5.978566 -5.145437 0.006548
5.775397 0.282835 0.009456
-1.036707 3.922219 0.006938
3.390289 4.304086 -0.005162
1.414380 1.782178 0.018135
1.542009 4.690060 0.002599
0.502679 -5.777317 -0.013386
-5.652182 -1.970865 -0.002790
-5.816519 -5.451686 -0.009326
-3.632823 -5.663248 0.005009
0.342886 3.899859 -0.013384
5.761981 2.873639 -0.000224
0.719160 1.639400 -0.001585
0.125849 1.115943 -0.003261
-1.504821 -5.273584 0.004096
-2.590195 -4.236727 -0.011368
-2.404379 1.170631 -0.018192
-0.425788 3.181798 -0.003655
5.525223 -2.429195 0.016862
3.741512 2.625907 -0.020788
3.606948 4.488428 -0.008073
2.556861 2.927999 0.017014
-4.592368 0.582210 0.006308
-0.656054 -5.449147 0.009028
-0.320407 4.678449 0.008550
1.923840 -4.139005 -0.006156
2.355892 0.177421 -0.001996
-5.277465 -5.986325 -0.019917
-0.920690 1.437805 -0.013897
4.419106 -4.449255 -0.020408
3.925303 -3.576212 -0.009834
-1.893773 -4.760933 0.012554
-1.032114 -3.642163 -0.004518
2.749770 3.357947 0.009386
1.136412 0.731119 -0.001363
-4.079444 5.104723 0.007293
5.935849 -0.201542 -0.013956
5.576318 -3.250823 -0.008613
-5.624814 5.239245 -0.001319
-5.341104 -3.975801 0.006287
-5.819515 3.077008 0.003829
-3.185509 -2.990457 0.011528
-3.823222 -5.462239 0.008811
4.650481 1.010081 0.000119
0.306353 -0.526804 0.006218
5.720415 -3.713217 0.002888
-4.394016 1.909063 -0.009176
-4.367632 -3.051719 0.008540
0.409602 -1.255641 0.002651
0.724456 -1.566002 0.002333
-0.754030 0.317054 -0.007720
-0.693460 -0.015336 -0.003886
-2.028320 -2.974792 0.010329
0.508055 -5.799694 0.000757
-4.233415 2.288088 0.002874
-5.351081 2.058457 0.000481
5.467501 -3.507133 0.002882
-1.766423 1.710763 -0.018638
1.131088 -3.596918 0.016013
0.841485 -2.171425 0.001867
-1.143511 1.682247 -0.005427
-5.416269 1.628364 -0.008547
5.626980 -5.785556 -0.006465
-3.950596 2.282956 -0.005742
-4.825058 0.421822 -0.006120
-0.199367 0.393827 -0.021680
5.460375 1.157266 -0.001279
-3.044766 -5.533192 -0.005010
-4.265393 1.963316 0.008750
-0.986441 1.853710 0.006944
2.683339 4.800272 -0.005789
1.984713 -1.699476 0.005262
-0.679520 2.806054 0.011611
-5.177118 4.197435 -0.001793
-1.073903 1.613145 0.002047
-0.247275 1.779598 -0.003419
-5.683478 -0.191387 -0.002950
5.617734 -4.933423 -0.009688
4.787935 3.625372 0.001840
-5.654475 1.906238 0.001046
0.698025 3.455168 0.011183
-0.029040 -4.983922 0.007726
-4.700506 -0.717458 0.004839
-1.998511 4.113701 0.007277
0.491989 2.398656 0.008520
-4.777837 0.172265 -0.007479
0.947263 1.781588 0.020188
-5.801866 -5.300205 0.003645
3.172501 -4.795135 -0.001908
1.320447 4.388840 -0.000086
5.911412 2.819890 0.004773
-0.776209 -1.976722 0.012429
-0.010405 -4.822700 0.003850
4.259858 5.403339 0.019864
-0.339822 1.811548 -0.004149
-0.893413 -4.411865 0.014783
2.163911 5.905877 -0.011604
-4.063950 3.130243 -0.001512
-1.317950 -3.022831 0.018070
-3.357178 -0.500258 -0.021810
1.668195 5.128694 -0.013562
4.771809 2.485396 0.012564
-2.371886 -4.951762 0.010109
4.366116 -5.548704 -0.021416
-3.284532 1.892920 0.012497
-3.383854 5.369614 -0.013488
-0.965824 1.202849 0.011219
-3.953515 3.867165 -0.000744
3.592515 2.078300 0.008005
0.857715 -4.175175 -0.009000
2.658640 3.857539 0.018904
-2.676116 1.508591 0.001189
-3.860918 -5.707357 -0.009135
-0.407117 4.243243 -0.015243
-5.362644 4.721357 0.002880
-3.859080 5.597405 0.000602
-3.277047 -1.584021 -0.008129
-3.168440 2.826475 0.010143
-4.047298 5.143383 -0.014024
-3.957816 -5.800765 0.019019
5.256644 2.788387 -0.006910
-2.297048 -0.499759 0.002509
-0.444596 4.808383 0.010733
0.724867 -4.414979 -0.007644
2.152868 -1.934127 -0.004015
2.281635 -1.939139 0.012901
-0.331239 -3.640604 -0.009116
-4.722882 -1.809374 -0.011014
1.462311 -2.177776 -0.001331
-3.030533 3.573525 0.001912
-2.987448 5.619660 0.016118
0.859790 2.543004 0.013191
4.020384 -0.689810 0.012756
3.095177 -1.362601 0.008608
4.730316 5.911315 0.010601
1.009201 -4.625865 -0.011281
3.167876 2.694113 0.001606
-2.223363 -2.551268 0.025713
4.542214 -4.415916 0.010226
5.602940 5.068053 -0.003130
0.630991 -5.495284 -0.001186
-5.576516 -2.717968 -0.000710
-2.099243 3.226180 0.025057
5.647027 1.565542 -0.013164
2.651252 5.196127 -0.006754
-0.286678 3.103223 0.013216
-2.970318 -3.624142 -0.005197
0.526315 2.435292 0.004413
4.541876 2.915038 0.005014
2.104590 -4.000811 -0.007073
-4.818588 -4.816224 -0.007311
2.873801 0.240588 -0.010865
0.816007 5.505981 0.008340
-4.563426 -5.565263 -0.016670
2.103291 5.430372 0.012545
-1.412461 3.109285 -0.013665
4.806499 -1.526754 0.010003
-5.799828 -0.565093 0.002844
-3.735523 -2.447439 0.004373
4.582641 2.369738 0.013116
-5.250819 -2.490880 -0.013222
-3.975216 2.089721 0.005524
-0.088210 0.535227 -0.014352
-3.095563 -1.648878 0.003874
-4.535654 -2.855509 0.015492
-1.611987 -4.954972 0.001633
3.192237 3.029026 -0.004748
-0.479618 4.776267 -0.002549
5.038680 0.128610 -0.001862
-5.727035 4.173701 -0.007799
0.390117 -1.522936 0.000756
-4.628475 3.568744 -0.006277
0.377476 5.171546 -0.012165
-2.331471 -1.529232 0.001095
1.122470 -2.898245 -0.005850
-4.391388 3.501431 0.007679
1.302885 -0.073216 0.001157
-5.452789 -1.456996 0.005510
5.108168 5.434133 -0.010003
-3.943828 -4.913854 -0.009641
3.172439 4.536399 0.003256
-0.188798 -2.516162 0.013782
-0.456090 -4.792469 0.005478
2.217393 -5.950741 0.001987
3.535692 5.778484 0.019004
-5.772014 -3.307419 -0.001026
-5.124451 -2.623690 0.004906
4.186309 -4.524368 -0.008818
1.162537 3.586863 0.001092
-2.619895 -5.301751 -0.003591
3.491455 1.511075 0.009318
-4.706058 -1.953106 -0.004790
2.871915 1.144574 -0.009084
5.217752 -3.710673 -0.003390
-3.342757 -4.901484 0.012342
1.822357 2.519347 0.021226
-1.467124 4.541947 -0.014001
3.092939 0.091793 -0.005850
1.934012 -1.924906 0.003874
3.470152 -4.441532 -0.003994
-3.427284 4.451216 0.012994
4.304904 -5.319980 0.003464
0.424882 1.558414 -0.034440
-1.765360 1.183380 -0.003808
3.902955 3.550254 -0.000228
2.232894 5.491656 0.025866
-4.104256 2.144851 0.001640
-4.757781 -3.949527 0.009929
-2.018863 -2.815682 0.009002
0.670519 0.038207 -0.016564
0.400037 3.583880 0.019371
-2.986454 -1.449070 0.004211
1.601102 0.345041 -0.003957
-5.983464 1.236092 -0.015858
4.298292 4.362288 0.012280
5.309491 -1.545956 0.004778
5.279413 -1.005368 -0.008246
-4.816950 3.332777 -0.001539
4.720375 1.193753 -0.011594
-5.508114 -5.482422 -0.007124
-1.855502 0.113289 -0.004276
0.959533 4.492633 -0.000925
-5.222318 3.067610 -0.001417
-0.353457 0.610752 0.009899
-3.208919 -3.570657 -0.009761
-1.053126 5.521002 0.013775
1.778581 2.434397 0.014162
0.947217 -4.809803 -0.009625
-0.274343 -1.271035 0.014408
4.127611 2.464648 0.010987
0.953000 1.747768 -0.015208
-4.034654 -0.875365 0.004040
-5.459721 4.753453 0.001770
-3.787213 1.526913 -0.006378
1.949281 -3.870450 0.007639
0.866641 3.465892 0.010569
4.713624 2.987262 -0.002332
4.390610 4.352390 0.012606
0.081224 -1.892683 0.010970
3.320563 1.761799 0.006549
2.726470 2.644297 0.020148
3.242183 2.716186 0.012256
-0.888885 3.576166 -0.000243
-1.712247 5.302031 -0.000404
2.903777 -4.575384 -0.004664
0.467715 -4.826226 -0.005820
2.802797 -1.372269 0.011418
4.879071 -4.014900 -0.000652
-5.494632 -1.301998 -0.007609
-2.752626 2.394463 -0.004817
5.436054 2.800236 -0.012864
0.938163 -4.469029 0.000007
5.694986 -0.740272 0.006985
3.710427 -4.040878 0.007867
2.769090 5.769139 0.014420
2.270217 3.328219 -0.002004
-2.727146 -3.846395 -0.005637
2.353976 5.899843 -0.013013
2.249506 -3.217811 0.021759
-2.882894 -1.119381 -0.013219
1.224711 -5.665606 -0.020675
0.782828 -0.922929 0.002555
-4.233389 5.024539 0.002234
-2.635695 2.466851 -0.012963
-0.442650 0.093388 0.007409
5.620704 -2.848298 0.004082
3.371426 -4.770434 -0.005738
-0.344211 -0.694523 0.012908
-5.409094 1.687905 0.004040
0.373119 -0.930492 0.002352
-0.376519 1.749264 0.005636
3.831302 -2.792428 -0.017733
-3.810929 1.928498 -0.001149
2.309195 -3.993739 -0.003595
0.537390 5.341530 0.003104
5.738678 2.105726 -0.006058
4.305454 -0.096450 0.004581
-0.913315 0.301809 0.022804
-5.234199 2.150947 0.004697
2.917320 -2.196151 0.001508
-0.100961 -2.876184 0.005662
-3.448711 3.607799 -0.003889
-4.072272 5.314509 0.002155
1.654451 -3.290606 0.002762
5.959440 3.610247 0.003873
-4.435076 -2.189988 -0.011576
1.808050 1.384350 -0.001993
-1.959914 3.283014 -0.000887
-5.017498 2.292908 -0.008348
-5.073751 2.837632 0.004605
4.976004 0.105515 0.001005
-3.028542 -3.306847 0.003879
-1.791889 -3.150010 -0.001851
4.477909 -5.135145 -0.000026
-3.325468 3.543221 0.014063
5.575940 -0.888166 0.014338
-3.871410 -1.188655 0.007105
2.946359 3.908361 -0.005247
0.042014 2.496625 0.010089
3.415853 5.532000 0.016526
-4.392177 2.625856 0.011775
0.997004 -1.630863 0.005906
4.233537 -4.721711 -0.000334
1.548512 -3.623795 -0.002501
-5.260730 -4.614111 -0.020103
0.857580 -3.611334 0.008372
4.266164 0.029592 -0.017681
2.773422 4.869738 -0.011442
5.507676 4.701791 0.007323
-2.679735 5.633781 0.009686
-5.907064 3.029954 -0.008643
-1.734921 -1.945204 0.001208
-3.844485 -0.105782 -0.012192
4.250407 2.686400 0.009644
4.398981 5.028946 -0.014868
5.324614 0.494527 -0.008075
-1.667556 -0.308233 0.006741
-2.553854 0.512034 -0.001233
-4.882881 -0.712646 0.009202
1.254566 -2.037243 -0.006811
3.940325 5.752584 -0.009220
-0.511096 1.593606 -0.004945
3.155552 2.890109 0.010816
-2.107481 -0.898064 0.015022
3.922604 -3.248433 -0.010634
-4.264873 5.148503 0.002064
2.975658 1.674604 -0.004667
5.607063 -5.240345 0.002823
3.209840 -5.267673 0.011833
3.532310 -4.436959 -0.002315
-2.380760 -2.863070 0.014385
-5.640348 4.938300 -0.012780
3.865744 5.523124 -0.012986
0.261036 2.452138 -0.005793
-1.011099 -1.863481 0.005801
4.178342 -5.815988 -0.006573
0.120254 -0.403391 -0.002219
-4.436188 -4.840348 0.011587
-0.987744 5.733260 -0.010254
-2.129822 -1.804594 0.000483
3.040822 -4.760281 0.006619
3.953321 -0.801477 0.016318
4.604378 -1.568668 0.009777
2.220433 -5.429073 0.003850
4.830256 -4.423586 0.019315
-3.091266 -0.544618 0.000406
2.462957 2.743409 -0.014041
-1.951034 4.529752 0.004434
-5.934628 3.320291 -0.000825
1.023506 5.181271 0.005042
-4.912481 4.915884 0.006056
2.659578 2.751938 -0.019822
-4.622830 -0.773137 -0.018756
-1.006465 -1.575544 0.019381
-1.225851 2.508569 0.001942
2.919387 4.955029 -0.004663
-2.487255 -5.521262 0.012205
1.827601 1.898740 0.001495
5.916093 4.555044 -0.010182
-3.981421 -0.753260 0.002191
-3.319200 3.986196 0.001695
1.648928 -2.297381 -0.005305
-0.528634 5.600822 -0.013515
4.396539 -0.629574 -0.018882
3.038087 -1.390326 0.009811
-3.254791 4.163170 0.005510
0.131367 0.196349 -0.011901
1.711112 -1.406695 0.006147
3.740431 4.325923 0.005179
1.294488 3.516878 -0.001879
2.582487 3.295057 -0.000683
4.698118 1.254376 -0.006059
-4.690272 2.996970 -0.005124
-0.573292 -1.831676 0.012002
2.722531 3.349063 -0.009705
-1.316095 -5.305851 0.001660
-2.893823 2.325320 -0.003910
5.072527 -2.564331 0.010278
-5.495273 4.212298 -0.002739
-4.231955 -0.913443 -0.007402
1.996008 -0.301876 -0.003069
-0.374787 5.177905 -0.009816
-3.629602 0.319034 -0.010580
-0.204632 -3.616170 0.004497
-3.828168 0.093981 0.018000
5.713291 3.440204 0.014745
-3.421388 -3.708167 -0.004065
5.492495 0.044430 -0.005799
-2.189968 -4.666633 -0.021286
-4.025912 3.524934 -0.011495
-2.567191 -2.347874 -0.007737
-2.926309 -1.326900 -0.005284
-4.877348 -2.367469 0.019691
5.976517 -4.937283 -0.000387
5.501310 2.149780 -0.002006
0.898169 0.846757 -0.002726
-4.276495 5.734299 0.006686
-5.608046 -5.333184 -0.012236
-2.736626 0.153938 -0.016759
-3.776055 0.273532 -0.003609
5.772405 2.053510 0.001825
4.214844 -3.136112 0.001792
-0.833442 4.314761 0.018566
-4.818782 3.827590 0.006048
1.090780 -4.302607 -0.013059
4.254345 -3.010049 -0.010614
2.755966 3.976558 0.017258
-2.375006 4.776276 0.016431
5.363186 -2.112497 0.014256
-1.541196 1.041978 0.007698
3.541942 -2.706747 -0.015020
-2.180539 -4.776343 0.002234
-4.954939 -4.751439 -0.001231
-5.259641 5.787296 -0.004861
3.905886 5.695796 0.001978
2.726687 0.285110 0.019094
3.663170 -3.186007 0.003477
-4.310215 2.715388 0.010526
3.569293 -2.093673 -0.008800
1.413450 -4.239029 -0.007521
2.877897 1.188100 0.018571
4.943457 -4.042483 0.002188
5.125470 0.627603 0.005362
5.079349 -0.624891 -0.015513
0.749013 4.697148 -0.021328
-5.836474 5.518094 -0.003839
3.580029 5.735790 0.027659
-3.236030 -4.155559 0.004382
-0.364179 0.743095 -0.008678
0.355908 1.632828 -0.010416
-3.080309 1.861914 -0.018587
-3.012820 -1.841296 0.012488
3.195903 -4.742097 0.007263
-5.086709 2.395168 -0.023740
-5.350025 -5.458980 0.022076
4.186771 5.406271 -0.001214
-0.914531 -3.448651 0.013353
-5.656314 4.797406 -0.009200
-1.223943 3.108387 -0.006597
4.830480 4.071361 -0.005205
0.633144 -4.338535 -0.005564
1.469366 5.103023 -0.019627
5.442649 -1.703855 0.004862
-5.473726 5.664958 -0.003149
1.429873 -1.300587 -0.005133
4.782141 1.449422 -0.001132
-3.357140 4.611488 -0.007879
-1.897080 4.709913 -0.003460
-4.666994 5.520883 0.012623
5.731546 1.115865 0.002241
2.970147 5.806924 -0.006273
-5.431823 -5.826256 0.006742
-2.429455 -5.896910 -0.008855
4.832421 -2.269823 0.003682
1.737056 -4.487658 0.007107
-1.739464 -4.600012 0.005278
-2.409354 5.637580 0.007639
2.393562 3.016819 0.004664
-3.106445 2.109728 0.002079
-1.684544 -0.439898 0.003453
3.302280 -1.961165 0.005552
-0.543561 5.205388 0.000961
4.715535 3.978371 -0.033399
-5.687092 -1.945695 0.001194
4.003985 4.488478 -0.012126
-3.948554 4.107207 0.001536
-1.568028 -3.945014 0.002685
1.907180 -4.710715 0.007467
-2.055691 -4.813258 0.005429
2.451757 -5.418463 -0.013602
3.574199 3.060542 -0.001984
1.501230 -3.528589 -0.001661
0.160697 0.753960 -0.003519
-4.510364 3.171689 -0.001457
5.061499 -5.991936 -0.004412
-4.768407 1.382000 -0.003647
-2.250274 4.576099 -0.007813
2.197736 4.136912 0.008743
5.292226 -4.102739 -0.003449
-4.507466 -3.153689 -0.021353
1.012875 1.851928 0.000934
4.268867 0.241499 0.005285
0.908477 -1.297219 -0.004862
-3.519625 1.243786 -0.004944
-5.004888 -0.074608 0.008456
-1.592218 -5.227361 -0.022307
-5.914189 -0.512487 0.016861
1.230540 -4.860461 0.004376
1.875136 1.785626 -0.000107
1.558062 -2.361182 -0.001491
-1.775713 -3.801839 0.012780
-5.433930 -4.157226 -0.009770
5.414735 -4.641701 -0.007808
1.607503 -5.338401 -0.013883
2.516012 -4.952134 0.000800
-5.886288 -0.584597 0.016102
-1.651140 3.040263 0.000644
3.792409 5.335428 -0.017581
1.433233 2.933471 0.013670
0.990004 0.358389 0.003917
-0.818642 -0.794930 -0.000252
1.485241 0.219769 -0.007178
2.327266 2.829588 -0.011901
-1.035468 0.732142 0.003439
-4.895086 -4.651171 0.006547
-4.221040 -5.470695 0.011459
-4.748532 0.683801 0.004966
-0.111245 0.708507 0.009674
1.036211 -1.173565 -0.000854
-2.621109 -2.560453 -0.005114
-3.014515 0.604118 0.001096
-1.880425 -4.959496 0.012123
-2.911094 -0.035042 0.025200
-1.143701 1.645792 -0.001293
2.305699 3.838597 -0.008258
-2.885290 0.428617 -0.015664
1.841128 -5.486391 0.014292
-0.903028 -5.600367 -0.006869
-3.602161 2.899590 -0.001312
1.904655 5.643783 -0.009165
3.578809 5.499597 -0.006339
5.531939 0.550096 -0.003125
-5.213595 -3.631476 -0.001954
-4.859863 -2.763018 -0.007604
5.472933 -1.224886 -0.006175
0.614479 -3.896185 -0.012210
4.620362 0.755355 0.006421
0.664988 1.703686 -0.000107
0.837971 5.347728 0.002362
3.359543 -1.171293 0.002395
-4.417400 -4.527775 -0.014853
-1.180572 0.592313 -0.014269
-1.103555 -5.296124 0.004278
-4.524160 3.745951 -0.020379
-0.718272 -5.296644 0.009216
2.449793 -2.645123 -0.006963
5.603004 0.934776 -0.007521
2.729626 -1.962818 -0.002575
-0.827814 4.162882 0.024840
-0.044753 5.442372 -0.001154
2.865804 -1.683255 0.001467
-5.663843 -5.642270 -0.005799
-4.823738 -4.929405 -0.006412
-5.373342 4.392064 -0.015172
1.722346 1.147302 0.012506
2.630274 -0.084349 -0.004714
-3.401646 0.413962 0.004701
1.405248 3.762597 0.006565
1.260948 -1.666764 -0.004584
-5.590154 -0.955841 0.004654
-4.851286 -4.709990 0.000603
-4.644539 1.680359 -0.002636
0.093291 -2.106937 0.008099
4.111065 1.105334 0.002121
-5.228182 -1.828776 0.000932
0.757522 2.815500 -0.002134
3.555168 3.784260 -0.016437
-0.538437 5.816764 0.004286
-0.599574 -1.104654 0.001979
1.234919 -2.814036 0.015865
5.033193 5.353384 0.002430
-3.155585 -0.377002 -0.022884
-4.559614 -4.964618 0.004001
5.288737 -0.399940 0.013363
3.946507 3.714611 0.004850
-5.311103 -0.933328 -0.026754
-0.535826 0.491198 -0.000787
5.289544 0.093308 -0.000411
-5.002037 4.500338 0.006726
-4.588750 3.703978 -0.005446
3.753889 0.980805 0.001472
-4.356730 1.635014 0.003486
-4.287004 0.705020 -0.012522
-5.807026 3.250794 0.007114
4.429915 -3.285731 -0.004437
2.447132 -0.888167 -0.011721
-5.729279 3.231192 0.000687
-5.476424 3.004817 0.011705
2.491429 -1.164396 -0.003479
-2.570862 1.742518 0.012175
3.563306 5.732116 0.022957
5.737454 -1.363462 -0.000433
-1.535851 0.112074 0.008751
-4.070247 4.813633 0.006641
5.655715 3.373273 0.004846
1.198685 5.165610 0.001343
1.782993 2.299270 -0.010205
-5.369826 2.248470 -0.012348
-4.552684 5.741957 0.003718
1.865843 -5.246656 -0.017259
-2.137476 -4.710132 -0.001158
2.492448 -4.032792 0.005076
-3.995222 -3.190578 -0.010906
4.616126 -4.295303 0.003649
4.184445 4.342920 0.004995
-5.045348 2.175024 0.002839
-4.451796 1.790189 0.007625
2.259504 -1.709968 -0.014357
-3.445390 -2.747101 -0.013681
5.825418 -4.067857 -0.000929
5.927350 1.530962 -0.007815
-4.758403 2.147881 0.006607
2.033136 -5.296454 -0.001591
1.520667 -1.356878 -0.022563
-5.297732 -4.096852 0.001391
0.895595 5.941401 0.004040
-1.264841 -2.072947 0.004050
2.842463 -5.307550 0.012118
4.883129 -5.067167 0.003040
1.375111 1.374595 -0.004533
-1.287736 -5.188314 -0.010563
-5.268395 1.399101 -0.012338
-2.720471 2.226580 -0.003521
5.923113 2.495443 -0.011377
-4.028672 -1.073561 -0.000687
3.858347 4.892333 -0.000640
4.899678 4.564316 0.010377
-0.915408 5.378023 0.002584
-0.854944 0.766616 0.001045
-5.085243 5.676932 0.003328
-1.287328 -3.621554 -0.001872
-0.233910 0.159079 -0.015766
-4.368291 2.750975 0.008855
-2.860397 -0.302989 0.000596
5.019196 1.029974 0.001938
3.070751 0.545501 0.008205
2.399651 4.830579 -0.011568
5.472506 -5.511273 -0.008482
-4.352365 -5.874390 -0.000345
-0.929396 1.915197 0.008372
1.411639 3.124789 0.004558
5.531715 -5.036832 0.018924
3.381711 -1.753435 -0.002354
-3.258013 -2.329855 0.002365
-0.602599 1.155808 0.008638
0.551217 -3.316454 -0.001988
-4.739261 -4.214358 -0.002018
0.755744 -5.343258 0.004232
-3.294414 -1.350728 -0.004665
-1.296094 2.919484 0.003450
-3.952507 1.792303 -0.011552
1.453010 -3.468355 0.000684
-5.912511 4.805812 -0.006376
-2.170907 -0.395630 -0.006000
2.374714 5.836568 0.009003
-1.048552 1.597987 0.000130
-4.459319 1.016726 0.002706
-0.841562 -3.143600 0.002263
0.377855 -4.694298 0.007647
-3.428687 3.174201 0.006722
-3.643450 -3.973258 0.015999
4.108074 -4.366130 0.000532
0.639046 -0.519970 -0.006701
4.111756 -3.226799 0.002415
4.867029 3.010188 0.008527
3.665500 0.162896 0.016129
-2.490988 -0.278930 -0.008091
2.890399 0.751076 -0.001874
-3.852476 -4.431871 -0.000040
3.324407 -0.445198 -0.006373
4.866678 4.969893 -0.009439
1.709017 4.507229 -0.003425
-5.456824 5.345916 -0.014606
-3.372297 5.190542 -0.010765
1.207421 0.100336 -0.002187
-1.656408 -5.321274 0.011022
-0.738500 0.038943 -0.007278
-0.181741 -1.650576 0.010846
-5.771268 3.164063 -0.013043
2.992108 -2.841480 -0.001579
1.304452 1.932535 -0.005629
-5.963433 -0.811621 0.000449
-0.933781 -4.541530 0.011502
-1.514755 0.697910 0.011791
-2.212167 2.738878 0.009286
-5.146570 1.681648 -0.005299
0.562377 3.525309 -0.003572
-0.333847 -4.621020 0.008214
-2.815956 2.586454 -0.004564
2.720621 -5.001396 0.015060
-4.844630 0.593641 0.001558
4.531141 0.463828 -0.015744
-3.220979 5.764131 -0.002064
-4.959365 -1.315586 -0.008778
4.359106 -2.114851 0.016584
3.145108 1.986138 -0.017109
0.267205 2.285866 0.021274
-2.112469 3.869151 -0.010700
-4.616749 -5.305515 0.000548
-2.648808 -1.120605 0.006919
-1.738046 2.143307 0.009257
-1.531548 -2.664282 0.014909
-5.425394 -5.183365 -0.004725
0.170660 -4.384672 0.008395
-4.854821 0.046659 0.004327
4.421187 1.114533 0.004665
3.224888 3.667463 0.015356
1.766162 0.722081 0.001750
2.374686 5.799340 -0.004791
-3.184542 -5.657522 -0.001742
4.527150 -0.558640 -0.002516
-1.986427 -3.504267 -0.002944
2.481419 -2.219985 0.002637
-5.544161 -5.018958 0.003265
-3.222442 3.379719 -0.003578
-4.718450 -2.323997 -0.001144
5.896046 5.067615 -0.006908
-0.283993 -5.286470 -0.010604
5.464669 3.363329 -0.000475
4.339660 1.465706 0.017333
-3.411020 5.932398 -0.007856
-4.910403 3.349016 0.002733
4.200621 3.369953 -0.008507
-3.705029 4.173832 -0.014844
-1.398760 -4.443717 0.000194
-2.127072 -1.968251 -0.015134
-5.268716 -5.599274 -0.003131
-0.633279 -2.938328 0.002495
-2.161856 4.650056 -0.010044
-0.662251 -0.995443 0.002811
4.245475 -5.043962 0.003275
-5.378490 -4.363550 0.012225
2.545035 -3.253565 0.003085
5.821127 0.826232 0.001982
-5.878005 -5.479719 -0.016764
5.798928 -5.558054 -0.009986
3.232909 3.045024 -0.004077
-1.178473 4.452299 0.001006
-0.999686 2.101242 0.024434
-0.917930 -4.177816 -0.007748
0.265468 5.639212 0.010216
2.590121 5.115024 -0.002537
-2.818797 2.358684 0.009988
-1.861677 4.663080 0.012686
5.923107 -5.328111 -0.015507
-2.978280 0.236794 0.016327
2.780143 -5.008618 0.003912
1.377752 1.819951 -0.000610
2.641045 -0.845951 0.008979
-5.518157 0.100055 0.006210
-0.876000 -4.314745 0.004787
0.973671 -3.009240 -0.003638
5.212978 -1.070226 -0.006128
4.953888 4.946400 -0.008763
1.140219 5.265564 0.009232
1.691385 0.668293 -0.008946
3.409162 -5.367709 -0.001177
-5.664889 3.995534 -0.006306
-1.677515 3.043500 -0.002947
-0.975657 0.643629 -0.029222
-2.057268 4.740197 0.019581
4.370741 -4.876245 0.019128
-0.833507 1.390370 -0.017578
-5.455646 0.150563 0.008565
5.066843 0.855919 0.004506
4.807385 -5.168762 0.008735
3.140667 -4.610938 0.002143
2.083990 5.023097 0.013735
-4.941023 1.212310 0.000748
4.746831 5.440393 -0.000095
3.634025 -2.744116 0.003771
3.548805 3.558950 -0.002382
5.215574 -5.129352 -0.011194
3.853313 -2.327628 -0.018441
-2.599418 -2.676904 -0.008952
5.937422 -2.287831 -0.003067
-2.438507 0.516567 0.000067
3.814695 3.231661 0.001557
3.932979 4.652551 -0.000508
-3.262398 5.602278 0.005532
-4.153719 -1.445719 0.014628
-0.471849 -2.605178 -0.017253
5.477246 2.353489 0.008527
3.113518 0.061084 0.002105
-5.574637 5.368398 -0.009063
-0.380655 -1.221345 0.009612
-0.121451 1.547759 -0.001245
2.119325 4.818627 0.021495
-4.351614 -0.892610 -0.006830
0.648865 2.392276 -0.005254
1.876227 3.264367 -0.013835
-5.386653 -5.459013 0.015119
3.086511 1.400971 0.010521
-2.950199 5.336365 0.007584
4.731437 5.455466 -0.001140
-2.713071 3.929304 -0.015787
-3.630940 -5.077857 -0.002061
1.458032 -0.535601 -0.005374
5.413333 -4.770997 -0.013351
-1.472822 -1.678103 -0.005893
4.636466 -1.145360 0.012426
4.707598 -3.811271 -0.003498
-5.446362 -3.204441 -0.005734
-5.702450 -4.490378 -0.013291
0.529796 -5.812348 -0.007251
-0.234502 5.364790 -0.000319
4.020463 -4.063741 -0.004226
0.407917 -4.821233 -0.009161
5.730221 3.865852 -0.016660
1.406129 1.382606 0.002386
-0.404416 0.881769 0.016275
-5.209722 5.981728 -0.003105
-3.642497 -2.226042 -0.017554
-3.074644 5.423983 -0.003061
2.941076 3.209752 -0.003162
2.386572 3.807949 -0.001526
-1.356053 -1.986376 -0.006798
1.241006 5.959415 -0.010221
0.855968 -2.669387 -0.008076
-4.007268 -4.373049 0.011690
-0.820738 1.430299 0.007189
-1.761260 0.088407 -0.005551
-1.608684 2.444909 -0.007822
-2.274499 3.671514 0.023237
1.154833 -0.216081 -0.007554
-5.970865 0.182417 0.014981
4.989104 1.713709 0.018767
5.670908 -2.119845 0.013071
-1.782071 0.879042 -0.003240
3.588212 -5.864017 0.004752
1.835681 2.444903 0.014722
-1.336618 0.956208 -0.016873
-3.211210 -1.831477 -0.001662
2.177038 1.104340 0.014413
-1.035614 -1.462078 -0.005322
3.269026 0.030377 -0.000989
0.822763 -0.109320 -0.001989
4.534960 4.287900 -0.008130
1.693388 -2.407561 0.005494
4.652251 -3.063676 0.008301
3.095866 4.166894 -0.005206
-5.153472 1.572888 -0.003794
3.342366 2.241307 -0.008594
4.170689 4.340744 -0.008281
5.465667 5.834418 -0.002294
0.083005 0.560803 -0.004302
3.217679 -4.141944 -0.002258
-5.471689 -3.154592 -0.017703
3.470454 2.256473 -0.006318
-0.221458 -2.725000 0.006106
-1.877900 -4.225738 -0.022951
2.832193 -1.882548 0.000955
0.888005 -1.637491 0.001476
0.109136 3.239851 -0.010329
-1.511765 1.310308 -0.024334
2.965998 -2.282355 0.008789
-4.607064 5.643311 -0.011828
-3.666570 4.541928 0.015255
0.988363 -0.651664 0.004122
-5.572691 -4.383205 -0.006158
0.841987 -1.656922 0.008985
1.311693 -5.484073 -0.000683
-1.143332 -5.585823 0.005420
-2.616879 1.873800 -0.003579
-3.818887 -1.711488 -0.004149
4.678184 0.757146 -0.029081
-3.206338 -4.852078 0.002060
-2.132597 -5.142905 -0.009360
-0.544010 -4.540617 -0.005822
5.403113 0.840608 -0.007258
1.798256 1.511281 0.006374
-5.974223 3.471453 0.009696
0.019108 0.858030 -0.002057
2.668815 -5.943317 -0.004749
-0.209592 0.746122 0.015417
-4.132495 5.518588 -0.000179
-1.529850 -0.411702 0.003347
-0.146680 -0.735790 -0.001742
-4.628785 0.505311 0.002543
3.613441 0.663038 -0.004901
-1.967294 -0.386928 -0.011641
-4.373435 -0.807743 0.004080
-1.366657 -4.238264 0.014561
1.234566 0.485444 0.004895
-3.740425 -4.349938 -0.005012
5.421085 -1.036903 0.003519
3.952250 -2.610344 0.001761
3.215512 0.144717 -0.009029
0.163210 -4.074722 -0.012193
1.996816 2.629543 -0.013843
3.912536 -1.700241 0.007453
-0.301639 -2.703431 -0.008687
5.027412 5.758094 -0.005135
5.733653 -5.303395 0.000267
2.655708 4.043443 0.005946
4.348425 5.442437 0.003487
-4.784642 -5.439112 -0.002047
-4.468539 -1.232252 0.018271
-4.825592 0.504345 0.000293
2.272446 0.350700 0.001285
0.434358 -4.373877 0.000441
-5.857000 1.256592 -0.003174
5.502544 3.241883 -0.003426
2.901955 -4.534763 -0.017483
3.095015 1.364561 -0.012870
-0.544982 5.462107 -0.006265
5.465380 2.581189 0.001470
4.875973 -0.957791 -0.000730
2.826042 -3.362193 -0.012217
0.037962 5.526900 0.005971
1.926785 0.198718 0.017722
-0.108482 0.331348 -0.002308
-0.947506 5.393285 -0.015299
2.608222 1.000090 -0.012875
3.198307 -0.387644 0.009403
-2.657054 0.742269 0.005800
-1.645714 -2.334286 -0.004322
-3.155458 -3.271773 -0.001594
4.014822 -5.530110 -0.007879
0.763837 -3.593950 -0.000026
4.131804 -5.189293 -0.010884
-4.748853 5.895759 0.002733
3.352932 3.459988 -0.004452
0.541148 -5.838812 0.012145
-3.983182 2.251758 -0.003273
4.558634 -5.877783 0.003884
-0.266891 -3.643400 -0.000577
-5.762880 0.900958 -0.007587
2.525307 1.667613 0.006492
1.079746 -0.201605 0.005818
-3.378036 -4.550591 -0.002364
4.516876 0.435281 0.014854
5.655914 5.199918 0.005116
-3.615457 -1.980339 -0.011903
1.708986 0.157176 0.001950
-5.367948 -2.264752 0.006191
3.017617 -2.990419 -0.001840
0.086091 2.883343 0.002572
3.238914 -4.216391 0.012663
-1.511074 -4.445349 0.004860
0.512058 2.148201 0.011608
-2.783691 -5.399298 0.002085
-3.106675 2.138191 -0.020968
4.713380 3.152840 -0.006795
-2.991149 -5.835577 -0.020538
-2.030608 2.722083 0.012572
1.002625 -1.147829 -0.005206
4.489558 -3.698616 -0.001300
1.603298 1.025709 -0.009103
-2.139836 0.972164 -0.012401
-1.867998 4.955400 -0.016804
3.912574 -4.209239 -0.000805
0.944388 -1.210699 -0.000806
1.821889 0.174798 0.003129
-4.141921 -5.818469 0.003300
-1.210911 5.072269 -0.024417
-5.122197 -1.425057 0.001432
-1.138384 -5.175695 -0.000868
4.456821 2.139848 0.001686
2.029644 -5.808487 0.003287
3.459564 2.141851 -0.002991
2.255265 -1.134313 0.010736
-1.434169 -2.246205 0.004650
-3.590765 4.492726 -0.005696
-2.529458 0.129792 0.004522
-2.542971 5.571176 -0.012579
-0.535520 -3.016751 0.018165
-4.182866 0.067359 -0.014377
-1.433339 2.523050 0.016270
-2.256404 0.677836 0.001100
0.644638 -4.463829 -0.014534
0.634520 5.772985 0.003667
3.185461 3.485050 -0.001318
3.211577 -3.700266 0.007865
4.796715 -1.170283 0.006229
1.343450 0.920461 -0.005238
1.314898 -2.853407 0.003992
-3.264432 -5.407032 0.013263
-1.228049 5.883141 -0.002703
2.036468 -1.814870 0.009679
-2.717765 -5.016849 -0.010191
0.377300 -5.302200 -0.020648
4.962169 -5.346403 -0.006291
-1.757489 -3.992354 0.001899
-5.376771 1.698615 0.004940
5.099044 1.582319 0.012624
1.511454 3.885104 -0.006380
-0.895011 -2.024392 -0.003149
0.164546 -3.410915 0.000599
-4.177854 -2.085786 0.012324
3.779786 0.862077 -0.002735
2.642095 -5.189441 -0.003903
-2.820419 -0.990670 0.011646
1.274061 -0.143178 -0.003851
5.731315 -4.896710 0.006729
-1.509447 5.632576 -0.012141
-1.884497 -0.095529 -0.002196
-3.951104 1.673474 -0.000661
-3.768595 -3.583501 -0.020622
0.105280 -2.171234 0.023248
1.355967 2.626534 0.001120
-4.093055 -5.265711 0.002345
0.235904 -4.508209 -0.004242
5.904934 2.724624 0.012122
-0.190382 -1.586852 -0.000149
-5.512924 2.468685 0.008239
-5.076301 -4.603559 0.002261
4.783384 -3.013469 -0.000556
4.850877 5.300051 -0.011460
2.390659 -0.741609 -0.005730
-0.877203 4.872556 0.012579
-5.799971 0.166464 0.022563
5.350770 1.573042 0.001601
-0.018272 -1.236432 0.000154
5.787592 5.974254 0.007497
4.401314 4.939910 0.008010
0.544935 -4.663386 -0.001399
-0.931263 -3.265739 -0.003723
-1.043860 4.962618 0.024011
-1.362837 -4.489021 0.003526
-5.766616 -3.088877 0.004960
4.792142 -5.435493 -0.004293
3.720474 1.441042 -0.015353
4.985052 0.885117 -0.007041
-0.940281 -5.618931 -0.010183
5.618703 -0.215398 0.000678
-4.684299 4.423215 -0.002112
-3.376987 5.023779 -0.021708
2.105701 2.653236 0.002640
-1.031144 0.194964 -0.009624
1.994821 -2.920390 -0.008506
-0.413750 5.965150 0.012441
2.188932 2.165805 -0.005645
0.645652 0.394671 -0.002378
-1.066901 1.165261 0.002158
-3.220616 4.279150 0.001899
4.751239 -3.362435 -0.001141
-2.725979 5.080229 0.003021
2.884236 -2.370730 0.005543
-0.990740 -3.755435 -0.019014
2.638351 1.043581 0.007647
-4.834654 4.896779 0.006285
-4.080954 1.361452 0.004588
3.057249 -4.589040 0.005007
-2.461929 -2.317977 -0.000498
3.822510 -4.443645 -0.022164
-5.444548 4.477206 0.007622
-0.784144 3.670035 -0.000525
-4.835753 -4.018095 -0.002252
0.708311 -4.222950 -0.007479
3.716553 1.034586 -0.016022
-2.615694 -3.257417 -0.005805
-5.236117 3.646860 -0.000732
5.369534 -2.082478 -0.002195
-4.396522 0.533124 -0.015911
-3.946873 -0.386670 -0.004024
-1.844935 -0.388096 0.004357
4.178250 1.584660 0.007602
3.468706 3.526819 0.003799
2.155255 -1.033102 -0.003780
-3.842510 3.557395 -0.005319
-0.730658 0.585696 0.000356
-5.719720 4.614043 0.015052
-4.853420 -1.583390 -0.003338
-3.013094 -4.248309 0.002117
0.621830 3.838510 -0.003534
-1.945250 1.483544 -0.020903
1.313864 -4.310547 0.006994
2.760756 -5.666704 0.003381
1.638040 5.978474 -0.002257
5.270144 2.856170 -0.006409
-4.030151 -1.809718 0.000991
3.595063 2.212880 -0.003862
-4.410685 1.037731 -0.003026
-0.228077 4.824313 -0.006043
-1.039755 5.526040 0.005050
1.282660 4.033979 -0.011636
-3.369686 -0.197883 -0.013200
-4.432327 -0.099866 0.003932
-3.671014 -4.785420 -0.013763
-5.154343 -2.358989 0.000956
-5.505404 -1.412253 -0.002151
-3.270268 -3.897903 -0.001319
-2.219258 -4.250709 -0.013936
1.847604 -0.232873 -0.001882
-1.188049 -5.615490 0.008314
-1.636859 -3.341229 -0.010485
2.641254 5.764628 0.001727
3.275326 -4.936204 -0.000673
-3.776756 1.456786 -0.009082
4.407114 -5.031819 0.004405
-5.028265 -2.540821 0.001736
-4.692832 4.845896 -0.018031
-5.071556 1.690758 0.005304
-4.384686 5.855498 -0.000443
-4.264958 2.569832 0.000592
2.363820 -2.000842 0.006850
-3.479991 0.176021 -0.004629
-5.517663 0.893068 0.003351
-2.866574 -5.434821 -0.000748
-4.786587 1.953457 -0.010593
1.574095 3.634002 -0.006997
-4.654078 -4.064320 0.013447
3.979261 4.513559 -0.001197
-0.032006 -4.387125 -0.007792
-5.884050 2.674865 0.001150
-3.381121 2.191430 -0.013619
3.860754 -2.495888 0.001155
-1.353182 0.324892 -0.000743
5.590065 -3.141430 -0.011782
0.162388 -5.698773 0.009120
5.400461 1.881665 0.010368
5.239900 1.953813 -0.002402
2.447475 5.131073 -0.008207
4.444817 -3.042521 -0.005229
-0.238440 3.660862 0.010849
2.777036 5.869525 -0.011546
1.201912 -4.131310 0.015176
-3.077651 5.567318 0.002192
-0.918353 -5.148748 -0.018212
3.066818 -2.376135 0.018555
3.718382 -2.831939 -0.002763
2.896986 -5.088662 0.001772
-4.059394 0.780533 -0.011569
4.605081 -4.564919 0.006351
-4.128016 5.341903 0.000996
-3.366087 3.676120 0.017465
-1.994873 -0.642635 -0.009962
4.304553 1.754525 0.001561
-2.652626 -3.165521 -0.003737
1.897684 -5.824379 -0.002332
1.083220 -3.352940 -0.019652
2.098155 3.909626 0.010151
-4.518497 2.970257 0.019514
-3.036614 -3.431025 -0.003206
-1.773055 2.153587 0.006637
0.452976 1.566462 0.009313
0.344764 -2.002668 -0.017412
-3.709394 -4.444545 0.006929
2.347296 -0.004151 0.009250
0.717901 4.219857 -0.000979
-5.005452 -4.487578 -0.007663
2.945465 -1.428430 0.003953
-0.888049 3.744221 0.004672
5.634240 -3.072826 -0.008345
-3.760580 -3.245665 -0.004555
4.814946 -0.055864 -0.008640
-3.613744 1.476401 -0.012343
4.382672 2.273670 -0.004199
0.374620 -2.731257 -0.009951
0.836550 3.411341 -0.005127
2.267249 4.101072 -0.005714
-1.023713 -5.937220 -0.007412
-3.892050 -3.757238 0.012951
0.383058 -0.419297 -0.012791
-3.451988 -2.469488 -0.000002
0.347968 4.987584 -0.009672
-1.039280 0.839276 -0.011587
4.570017 -2.830993 0.000892
-3.845272 -0.752714 -0.019745
4.238846 -1.714675 -0.013317
1.491673 0.762672 0.003367
-3.211512 1.681447 -0.005006
0.576688 -3.167016 0.004121
0.760602 5.061755 0.000773
1.450943 -5.859650 -0.013496
5.866721 -1.992046 -0.016009
-0.108888 -5.853268 0.002152
1.631031 -3.382379 0.010963
-1.851906 2.797514 0.003044
-2.591998 0.371499 0.007325
3.151613 4.866749 0.004325
-0.584722 -4.521942 -0.019857
0.151373 5.841096 0.010437
-4.893333 -5.881657 -0.011028
-3.316485 -0.834407 0.004582
2.592278 -3.041135 -0.017156
2.286215 1.519086 -0.006625
-3.203748 -1.742922 0.000755
3.857997 1.269700 0.014796
-2.975480 4.477575 -0.002818
-4.070202 -1.492823 -0.005809
-2.993489 5.539003 -0.008398
3.207777 4.998817 0.009354
4.388710 -4.978267 -0.004860
2.630916 -5.099138 0.008505
2.095580 -2.072940 -0.012603
-2.430290 -4.336669 0.012232
-3.358504 -1.511412 -0.002741
-1.410542 -1.238511 0.018218
-2.510618 -1.162432 -0.002099
-4.091683 -5.730842 0.008719
-2.295942 -1.114517 -0.018297
3.147798 1.372375 -0.004370
5.599817 -4.175898 -0.009923
-3.206102 -0.648585 -0.026091
-0.140036 2.114144 -0.000012
1.023573 -0.013783 -0.012774
-5.587737 -1.754469 0.009000
-0.478681 -1.427498 0.003155
3.323209 3.377665 -0.005230
-2.306741 2.167134 -0.009369
4.700195 1.456684 -0.005254
5.657763 -3.779237 -0.019312
-2.782566 1.718686 -0.008070
-0.249123 2.267076 0.006597
1.961188 1.229203 -0.001385
3.280361 2.356699 0.001532
-2.066203 4.559162 0.002737
-2.217416 -2.571871 -0.012944
1.110074 -4.473546 0.011683
3.913816 1.078981 0.000385
-2.300388 2.865855 0.008134
3.269932 0.353758 0.000587
2.052035 -3.945452 -0.000504
1.680916 2.578346 -0.016056
-2.536719 3.554304 -0.003117
4.655109 5.063885 -0.018588
4.512258 -0.519704 -0.003510
-1.010351 -1.063349 0.002660
3.408702 1.451914 0.003543
-4.338352 1.552673 -0.008169
5.506882 4.303967 -0.017125
-2.125094 -4.847222 0.012703
-3.502026 -0.199867 -0.007623
-0.461153 2.294648 -0.003027
1.055665 -5.937343 0.001039
4.058399 -5.361378 -0.015751
-2.170079 3.831606 -0.000989
-3.553200 -2.246148 0.003396
-4.196532 5.587817 0.001406
2.862930 -0.781094 -0.006643
0.607735 -5.869221 -0.000076
-2.675029 -1.363626 0.016953
-1.999538 2.360683 0.002512
5.517264 1.935985 0.009991
-5.801706 0.625439 -0.000876
3.673144 -0.349821 0.000032
-0.631554 0.841319 0.013235
-5.879018 -3.018111 -0.015772
3.214243 -0.778507 0.002026
3.891751 5.144116 0.001737
0.511643 5.127402 0.002384
-5.285007 5.306839 -0.005278
2.204950 -4.247582 -0.011825
-3.596522 -5.051738 0.004889
5.180061 2.399778 -0.004399
2.221108 -0.018769 0.000646
3.377808 5.355571 0.005207
-2.312384 -3.670393 0.001306
-5.024642 -3.518420 0.016841
2.863127 -5.385334 0.007592
5.991076 0.457151 -0.001786
-0.132023 3.434694 -0.000150
-5.242161 -2.453338 0.002322
4.418685 -2.757839 0.001393
-1.195653 -5.409440 0.000011
-5.457042 -4.497706 0.004634
-4.413805 -0.933870 -0.007302
5.472836 -1.593129 -0.001241
-3.632256 -0.101255 -0.003107
-4.617520 -3.449065 0.024323
1.951246 -0.785789 0.008097
-3.162618 -5.293628 -0.008754
3.153985 3.552002 -0.003832
-4.937581 4.602098 0.013813
2.186863 -3.599283 0.003784
1.231103 -2.792175 -0.017912
1.984209 3.355381 -0.000375
2.741055 1.623992 0.004365
-1.991599 5.503272 0.001251
4.392150 -0.686215 -0.015462
-0.802122 -5.432542 -0.014386
2.363765 -4.919870 -0.002717
5.461562 5.863395 -0.007590
-5.000724 2.338876 -0.012470
4.440708 1.365012 -0.000081
0.574012 4.844899 0.000138
3.094038 -0.948920 0.010753
-5.702486 -2.820121 -0.006522
-1.083340 -0.453263 -0.000576
3.392573 -2.802144 0.011204
4.047450 -3.801945 0.007863
5.237276 -0.032088 0.001515
-0.902818 1.592508 0.003566
-1.199828 -3.500497 0.003398
5.990553 -3.548895 0.019115
1.414390 5.208118 0.000361
-5.798382 2.503268 0.014263
-3.065666 -2.392472 -0.022439
-3.664286 3.123353 0.015575
-0.562696 -3.517961 0.001418
-1.236603 1.778118 -0.003914
-4.413337 -0.318984 0.017831
3.489241 4.440290 0.009706
2.489993 -0.335283 -0.033057
3.583342 3.113792 -0.004161
1.097529 3.815599 0.008072
-2.170208 -2.683663 0.006149
4.405684 -3.618505 0.012247
2.003148 4.224930 0.011655
-0.460096 4.821511 -0.007242
-4.380359 -4.774740 0.012552
-4.655126 -0.351797 -0.004426
0.624749 -4.702487 0.022227
5.622294 1.066392 0.000362
-2.105171 -5.783931 0.002775
0.079010 -0.656557 -0.001949
-4.981186 -2.875192 0.009309
1.577158 -0.260854 -0.007429
-5.017328 -0.585407 -0.006610
-1.934278 0.578841 0.025894
2.024923 1.213170 -0.002693
1.751386 1.066633 0.016143
0.745363 2.901225 -0.009966
-1.639495 -4.510731 -0.023476
-1.701749 4.985648 0.003365
-1.059772 -0.126914 -0.007449
-4.724884 -2.472483 0.013652
0.407773 -5.123981 -0.014565
-5.774478 -4.524105 -0.020542
-4.167485 -5.178091 -0.000565
-2.512371 -3.060123 0.000993
0.691913 -4.837879 0.006291
-0.552766 5.230447 -0.001655
5.306978 2.003221 0.008562
3.332004 5.172506 0.000436
-0.639026 4.017172 -0.000958
3.734724 5.639986 0.003543
-5.551913 -4.535817 -0.008572
3.234952 2.600901 0.003659
-4.516990 1.105079 0.002759
-4.762755 -4.132927 -0.005207
1.956456 -1.207109 -0.003045
2.490796 -1.431367 0.014250
-1.561605 1.305481 -0.003438
-4.606647 -1.946677 -0.009882
1.973673 -1.879245 -0.005485
2.799532 5.216812 -0.005927
1.234668 0.171787 -0.003296
3.700519 4.463864 -0.008033
-4.012897 -1.692115 0.016564
1.430347 5.817675 -0.003594
4.502442 4.672822 -0.014137
-3.969117 2.537071 0.008549
-4.205889 -5.705764 0.007644
-2.406255 -1.184385 0.001310
3.958272 -4.977075 -0.008141
2.578376 -1.633160 0.020946
0.047649 2.587646 0.009952
5.858668 -0.025277 -0.006568
4.676898 -4.603219 -0.002048
0.239070 3.784858 0.007199
-1.549400 2.307848 0.005962
-3.546851 -5.581864 0.000756
2.639753 -0.596633 -0.010054
1.202535 3.250014 -0.013389
4.123248 -1.290442 0.006128
0.557981 -3.795615 -0.006848
5.115794 3.182708 0.022448
-5.215434 5.925501 0.012735
-0.891497 -2.923295 -0.013684
-4.146189 4.026829 -0.019405
4.700500 2.197004 -0.003170
5.311190 5.947689 -0.000720
0.541504 4.046453 0.014020
5.528671 -4.945944 0.004134
-1.257261 4.807096 0.008960
-1.517909 -5.550453 0.014988
-4.157640 -1.230889 0.011169
1.986555 5.724683 -0.009426
-5.785126 0.307183 0.006649
-0.097508 -5.853880 -0.013826
-5.828393 -2.274249 0.005257
4.140595 -5.401967 0.003436
-0.614054 4.148149 0.023445
5.047597 -4.414957 -0.000052
-4.923009 -1.928197 0.005489
-0.550305 -0.996603 -0.002669
-4.393132 -4.311475 -0.005363
1.689237 2.162619 0.005795
-5.426593 -1.731911 0.007060
3.771875 3.073308 0.000692
-2.194359 -5.530604 0.003424
3.978034 -2.761283 -0.003029
-0.485200 1.087308 -0.016877
-2.520085 -3.742643 0.012066
5.146738 -3.680069 0.003683
1.629364 4.235469 0.008812
-1.269015 0.677443 -0.002582
1.054179 -4.133743 0.001052
-3.736186 -0.119746 -0.000896
3.676670 5.892393 0.016777
-2.579827 2.470629 0.018188
-0.378611 1.498751 -0.002380
5.799040 5.864985 -0.013186
1.269140 -0.850736 -0.007626
0.283346 5.000819 0.021543
3.529635 -1.199875 -0.005186
2.132908 -0.790431 0.008146
5.069567 0.774168 -0.001963
-0.136297 -4.217760 -0.000829
4.837756 5.113278 -0.014065
-1.820366 0.932255 -0.027482
3.889824 1.255580 0.002911
2.479326 -3.537576 0.018933
-5.471640 5.890713 0.013103
1.967785 -2.086119 0.006223
-3.798856 -2.665071 0.011007
-2.135153 4.976815 -0.003124
0.920180 -2.245338 -0.005458
3.187306 4.216876 -0.001504
-1.504795 4.719497 -0.005395
1.186479 -4.930740 0.007388
-0.153409 3.530762 -0.009922
0.166682 5.101483 -0.013594
-5.118159 4.452660 0.006445
-4.942437 -3.998774 -0.013107
-2.160715 -4.549829 0.009940
3.324171 4.658228 -0.006651
-4.930157 -3.519255 -0.007922
3.106010 3.383964 -0.016122
-4.880348 -4.441035 -0.005079
-4.634124 0.701438 0.003830
3.223724 -3.756967 0.007537
0.316779 -2.943798 0.011672
-4.548247 -2.283015 -0.003890
1.689230 2.308697 0.004246
3.728576 -1.307222 -0.021143
-4.840883 1.012665 0.026721
5.991465 1.540782 -0.003388
-1.417948 -1.464596 -0.006158
-1.182093 -2.791765 0.001386
-3.355493 1.705855 0.011916
3.862984 -5.196532 0.002989
-2.206767 -4.230973 0.002425
3.639419 0.095111 0.011137
4.273474 5.294081 0.008382
2.566628 -4.717612 0.000137
-1.952790 -0.590454 0.011476
4.129560 -5.657998 -0.008702
4.542161 -5.007085 -0.002423
1.886981 -3.684472 0.001069
-1.224041 0.615875 0.006099
0.819828 5.114068 0.001119
-4.577501 1.279438 0.018040
0.339533 3.315050 0.004561
4.486518 1.835022 0.020160
-0.585735 -4.066012 0.000967
3.273229 -0.245324 0.001410
5.141953 0.087326 -0.003399
1.510917 -0.163334 -0.002653
-1.966401 -2.071064 -0.014891
-1.391939 3.963160 0.002596
-1.297312 1.230227 0.003206
-2.026960 4.994483 0.012466
4.641998 -4.358520 -0.009528
4.560181 -2.200009 0.001593
0.291621 4.495953 0.003453
-3.686123 -3.135421 -0.006024
-0.184745 5.905976 -0.006085
-1.519173 4.387639 -0.005905
0.808941 3.168120 0.004108
-1.342792 3.959477 0.002185
2.931448 0.252870 -0.005096
-0.294121 -5.327131 -0.016420
4.812683 0.384739 -0.002870
2.958405 1.443245 0.013334
2.000018 4.132828 0.005064
-0.836128 0.477987 0.015639
-2.360830 -2.008631 -0.019683
4.544147 -0.911468 -0.007271
5.386036 0.247695 0.015882
1.849473 5.339615 -0.009844
-1.384107 -4.439355 -0.011578
-5.100609 -3.081147 0.000952
3.681277 -3.310250 0.000235
0.422553 -5.781243 -0.015014
-2.008623 -3.237251 0.018189
-4.039270 -3.267353 -0.011319
0.610750 4.218791 0.011013
-1.147727 -3.429448 0.008277
0.986926 -1.358036 0.004067
1.226795 3.369681 -0.012839
-5.746950 1.813148 0.000829
-1.380823 2.914589 -0.002494
0.667519 -0.749630 -0.005920
-5.400898 0.171182 -0.007211
5.796584 0.333836 0.011313
3.634438 1.019924 -0.011588
1.950093 5.111379 -0.004301
4.759637 0.547065 0.008068
-4.545669 -4.586518 -0.001579
-1.229092 4.795581 -0.006700
-0.237295 -1.637343 -0.014596
0.767021 3.162136 -0.012660
-5.840199 -2.363291 0.012537
-4.879282 2.677317 0.012003
4.891264 4.527806 0.008000
5.216148 -4.172072 -0.006193
-0.408101 5.324183 0.006272
-5.582752 -5.262726 -0.000849
2.282357 -1.523303 0.003341
5.449580 -4.617638 -0.003064
-4.836003 -5.580007 -0.000055
-3.210482 0.096099 0.009940
-3.605377 -5.499505 -0.007786
2.798053 3.425555 -0.005553
2.389884 1.698686 0.007864
5.306202 0.770329 -0.020103
2.324860 5.834778 0.003065
-0.367678 1.546823 0.014625
-5.063420 3.867366 -0.001273
0.186611 -1.115502 -0.001867
