# .PCD v0.7 - Point Cloud Data file format
VERSION 0.7
FIELDS x y z
SIZE 4 4 4
TYPE F F F
COUNT 1 1 1
WIDTH 2500
HEIGHT 1
VIEWPOINT 0 0 0 1 0 0 0
POINTS 2500
DATA ascii
1.501146 4.766566 0.004265
3.308228 -3.297514 0.008355
-2.398005 4.482641 0.007627
-5.936816 3.854741 -0.003017
3.564833 -0.384781 0.004319
-2.363611 -2.658893 0.008440
-2.941565 -0.659084 0.007650
0.054579 0.641968 -0.030863
5.946003 3.511943 -0.008903
1.466151 5.867522 -0.007759
-3.416296 -4.077456 -0.002303
1.350475 -5.472696 0.001791
-5.571836 0.178666 0.009214
-0.405528 5.006013 0.006177
1.550715 0.169412 -0.001270
-0.037519 -3.029821 0.000231
-5.858472 -3.691174 0.017591
2.304385 -3.592719 -0.006128
-1.565564 -5.955189 0.003045
3.960573 -4.146467 0.015655
-2.788808 4.563986 0.003459
0.117490 4.165803 -0.020435
1.676606 2.901251 0.003749
-4.902053 0.493726 -0.003874
0.093267 4.456072 -0.001131
-1.664831 1.178209 0.010510
-5.288980 -1.348418 0.004695
-2.123564 -4.197603 -0.002640
3.796057 -1.446646 0.008920
5.744975 1.079900 0.004353
1.260675 1.655959 0.001051
2.117403 -4.190544 0.003010
-0.716238 -3.125232 0.002531
-1.170020 -4.839551 -0.003395
5.613936 -3.419951 -0.004591
2.061182 -2.394959 0.000252
4.488925 1.946577 -0.009542
-4.420610 4.140892 -0.012589
5.339378 4.847002 0.013009
0.836630 -4.254480 -0.002397
-3.690438 5.134868 -0.000240
0.627918 -3.833370 -0.001350
4.608683 1.698860 0.000234
0.836331 -1.484546 0.000227
-1.068537 -3.126129 0.000651
-5.543313 4.514626 -0.008049
-0.387237 0.571622 0.009320
-2.134040 3.015899 -0.006921
-5.697638 -1.533777 0.010349
-5.635797 -4.525295 -0.019188
5.605779 1.893129 -0.010615
-0.861357 0.284881 0.009921
4.473711 -1.869472 -0.001482
1.083492 2.204212 -0.006710
-1.735035 0.229182 0.003752
3.182969 4.910152 -0.010455
-4.187253 5.201033 0.000769
-5.937854 3.035730 -0.022152
3.726322 -4.358831 -0.004524
-0.973156 3.783075 -0.006498
-5.828746 1.541543 0.005396
3.516284 0.156043 0.008758
2.710193 -3.282918 -0.008545
-3.617746 -1.642477 0.016089
-3.847128 -1.847263 -0.005920
5.377489 0.879993 -0.020559
-1.919183 -2.741704 -0.023797
5.424474 -0.666261 0.015390
5.764737 0.186272 -0.000875
0.253994 4.758486 -0.006473
2.913209 0.967834 -0.007479
-0.880206 4.538254 -0.010922
-1.060246 5.073115 0.013522
-5.175416 -0.840038 -0.000839
0.234178 5.411258 0.017902
-2.988009 3.672470 -0.001990
2.117654 2.605031 -0.023503
1.555466 5.658729 0.008444
-2.007823 -1.220693 -0.003682
-3.565059 -5.391551 -0.002371
-3.445102 4.985573 0.015673
4.082026 -4.651131 -0.002634
1.245348 -0.249642 0.011620
1.136218 1.911300 -0.000050
-2.320086 5.536210 -0.007520
-0.409920 1.537210 0.005073
1.622714 -3.793327 -0.006007
-5.257615 -1.061798 0.012283
3.168361 3.782661 0.009599
2.759871 -4.641541 0.000627
4.960258 3.624439 0.006099
4.532296 0.279650 0.005646
4.987625 -5.440173 -0.002756
-5.636534 -5.757413 0.008951
-2.966776 -3.017163 -0.002273
-3.749960 0.804670 0.006162
-5.532170 1.084654 -0.009503
-4.007866 2.134485 0.001020
-5.747096 -2.273158 0.004161
5.260096 0.460757 -0.007885
3.739049 1.896313 -0.004143
1.329009 -3.704968 -0.005310
0.892737 -5.523763 0.007306
3.619973 5.520851 -0.007168
4.248109 -5.391484 0.004417
-1.936079 -2.183962 0.015288
-4.647396 1.519342 0.003611
3.569498 -2.235342 -0.016069
4.353711 3.565523 0.001310
-4.450345 3.202310 0.010466
4.591449 -3.632609 -0.002801
0.883694 1.665000 0.011157
1.312011 -4.845052 0.006249
1.934298 1.583457 0.004282
3.886626 3.642152 -0.002539
-2.073982 2.664568 -0.005046
4.407280 4.715373 -0.002480
-4.061852 -5.679572 0.000715
1.809689 -3.423885 0.005319
0.764517 5.337655 0.004297
-1.448164 -2.966705 -0.002913
-0.521879 1.886927 0.000754
-4.786812 -1.432983 0.003981
-4.395346 1.949355 -0.016141
3.966630 -1.477755 -0.007570
-1.539313 0.474260 -0.007874
-3.419307 -3.031085 -0.001920
-2.041773 -0.510892 -0.002633
-5.021623 3.032786 -0.002453
0.948655 -2.403673 -0.008598
-5.069441 3.158171 0.006860
-4.427052 -4.401520 0.002914
-4.431789 -5.024852 -0.016289
4.876709 -2.769068 0.000275
-2.323073 3.993532 -0.011119
1.439082 -3.754279 0.017170
-0.782239 4.607069 -0.004407
-1.495512 2.530579 -0.003786
-4.838307 2.727897 0.000993
3.317682 3.909201 -0.001844
2.090412 -1.551206 -0.000425
-5.229456 0.225315 0.015634
3.089519 -3.709942 0.002423
-2.805153 0.433441 0.008514
2.979979 4.759041 0.011439
-4.491102 -3.788758 -0.009579
3.594444 1.734259 0.017062
2.651674 5.961254 0.007053
5.270160 4.116301 0.009744
3.325390 -1.259769 -0.008460
1.694749 -3.786652 0.008349
3.113934 3.092288 0.004311
2.655543 -0.662412 -0.005193
-1.461836 -0.962749 0.023008
-5.599929 4.131841 0.005849
0.508439 -1.349776 -0.002212
0.576345 2.659683 0.002123
-1.422470 3.967688 0.009287
5.033560 -1.350812 0.011489
-4.346206 3.124480 0.006004
5.915386 -4.224142 0.012361
2.552108 3.903881 0.014892
5.046864 -4.519423 -0.012156
-4.898281 5.854459 -0.004664
-4.598922 -3.878309 -0.009202
0.899435 -0.644724 0.001167
3.004706 -3.713313 0.014628
4.973133 -3.393662 0.006728
3.229332 -5.188758 -0.010259
-0.319169 -5.609300 -0.002738
-2.234272 -2.253232 0.010485
2.636981 -0.539790 -0.005115
-5.318707 5.944340 -0.000767
4.664392 4.995887 0.003244
-3.041094 -1.270677 -0.018015
-3.273846 -4.501123 0.007996
-5.603713 0.040037 0.003623
-4.522396 -3.884347 0.005885
4.325708 -0.189087 -0.009587
-3.795558 2.038375 -0.007480
-2.809622 0.323246 -0.005768
-2.604566 0.193934 0.002706
1.542403 0.434497 0.000903
-1.252751 3.489766 0.001478
4.481249 -3.847545 0.018117
-4.364295 -4.641700 0.013255
5.755161 5.299096 -0.006990
-3.231994 5.638891 -0.006335
-3.506188 0.077712 0.017357
-0.031379 4.979471 -0.002970
-5.513654 -2.215790 0.013988
1.199696 -5.203221 0.016186
-3.161393 -0.419239 -0.005223
4.570284 3.131514 -0.002495
3.947766 3.132837 0.001028
2.492649 4.196320 -0.008438
2.177720 2.828197 -0.009579
-2.380266 -3.988311 -0.003812
3.078300 -4.009953 0.008727
5.033470 1.159714 -0.004279
-2.046791 5.239718 -0.001863
-4.138437 0.173596 -0.004452
-4.901351 5.585133 -0.013448
0.904513 3.643999 0.015044
-2.616931 3.621560 -0.023222
2.434103 1.724178 -0.006341
5.406754 -0.798104 0.005787
-1.018939 2.305454 -0.013758
4.020664 -1.979088 0.006247
2.035885 -3.491551 0.012723
0.620400 3.230060 -0.008398
-5.216220 2.734105 0.002285
-5.814810 5.500200 -0.010907
-0.375962 -1.091150 0.005267
2.645336 0.279586 0.001080
2.770186 -4.982905 0.002351
0.753502 0.697304 0.013857
5.185367 -5.524733 0.004907
-0.566164 1.572875 0.013654
0.608963 -5.110067 0.006536
1.118741 -3.333637 -0.011802
-3.653410 4.544291 0.002808
-3.625895 -0.548511 0.005089
3.003443 2.487785 -0.014262
0.641508 3.684549 0.013529
-0.410206 1.444625 0.000874
3.827000 2.137100 0.003874
1.701940 -1.126455 -0.008772
0.699881 -1.247008 0.000919
2.931507 -1.434838 0.003192
-0.400546 3.065485 -0.003069
0.043870 -1.943609 0.000999
3.921827 -1.428449 -0.021003
4.136749 3.422885 0.013812
-0.632534 2.554691 -0.010950
-5.587324 -1.322419 -0.021631
4.324004 0.954472 -0.009414
0.693910 1.976867 -0.008159
2.132060 1.003179 0.005626
-0.952448 -3.798196 -0.008950
-2.488296 -2.484934 0.003030
-0.831061 5.988705 -0.009409
-1.769377 -0.631449 0.022256
-1.540469 0.977133 0.005638
5.374783 4.668875 0.019746
-1.474335 -2.797186 -0.009963
4.612783 -0.074000 0.006818
2.226494 -5.120503 -0.009382
4.398692 -2.244418 0.005963
-0.065677 -3.623747 0.006957
-0.957089 3.936587 -0.015770
3.930951 -0.315936 -0.011193
3.214928 -0.503198 -0.011493
-1.519724 0.550668 -0.014869
-3.583911 -2.201262 -0.007146
2.478345 3.246168 -0.009441
-5.319502 2.793914 -0.014293
3.809159 -0.657677 0.001133
-5.250553 2.194959 0.005608
-3.046036 1.720288 -0.012998
-1.480530 1.645962 -0.005424
-2.902381 -0.281556 0.000222
0.296097 1.572158 -0.002178
-3.561986 5.544613 -0.006870
-2.530343 -2.327758 0.008237
-2.924251 -5.190285 0.008601
-0.924925 3.262036 0.006926
2.514803 -3.653131 -0.001957
-4.356817 -2.142865 0.019988
3.219062 -0.143062 0.017527
5.078210 1.876605 -0.003900
1.450881 3.212294 -0.001084
3.003099 -1.873942 0.011999
-2.915899 -0.748543 -0.007881
-0.129034 -4.299327 0.004097
-0.704014 1.677879 0.000571
-4.371426 -4.343545 -0.006925
-3.915343 -2.600023 -0.002210
5.540511 -5.690505 -0.015612
-3.795130 -4.019426 -0.005328
-0.307824 -5.819127 -0.019853
-0.501921 -4.044930 0.022899
-2.764317 3.509287 0.015154
-3.791193 1.405546 0.012380
-1.124253 -0.988853 0.003111
3.802145 -4.069021 0.010074
5.085723 4.721890 0.012808
2.019864 -5.406632 0.010242
1.959702 1.204172 0.009263
3.266471 -3.434021 -0.009045
5.440272 4.634366 0.004359
-4.627714 -2.217578 -0.005276
-5.610670 3.971367 -0.011739
4.981137 5.877711 -0.011350
1.343100 1.991827 0.004338
2.140867 0.841781 0.010588
5.429075 1.294335 -0.013624
-1.971287 0.154527 0.017507
-5.776045 2.689516 0.014741
2.327053 -0.947386 -0.003760
4.217773 3.066313 -0.004588
-1.959785 -5.070024 -0.000690
-4.413324 -3.788733 0.009851
-2.352984 -0.629811 -0.003796
5.135959 -2.658985 -0.011032
4.783028 2.165546 0.003464
4.241915 -1.160959 -0.020628
-5.960679 3.443608 0.001429
-3.054290 -4.290237 0.011608
3.593899 2.235944 0.003070
-3.451018 -2.789018 0.007815
5.270638 -2.777544 0.004947
2.428870 -4.445361 0.007286
3.780430 -4.588920 0.001457
0.192494 -5.577388 -0.008291
0.600943 4.159460 -0.002243
-4.987218 -2.708921 -0.000733
3.176317 1.297180 0.012589
-2.246437 1.546847 0.016261
-0.543476 4.348275 0.004206
-2.484721 3.092767 -0.007528
1.628090 2.885144 -0.007297
-1.460861 2.699052 -0.001875
2.381113 -1.350133 0.013888
-5.682573 5.554960 0.003346
2.563205 -3.543136 -0.000553
2.769686 -2.655800 -0.007650
-0.368575 4.318658 0.008824
-0.623135 -2.543921 0.002894
-2.334107 -5.075793 -0.000508
-3.365933 -2.746725 0.001034
-3.924371 -5.243211 0.016865
-0.410530 -3.427246 -0.001604
2.865246 5.070333 0.016885
-2.724184 0.866979 0.012423
0.080708 -5.098698 0.000523
-4.501507 4.617353 0.008839
-0.310176 3.655319 -0.001238
-5.201031 1.137758 -0.008284
4.383743 4.404793 -0.002679
-5.931331 0.260641 -0.009072
-1.571943 3.120504 0.005114
-5.121372 -2.820881 0.000147
3.751714 -0.365325 0.005678
-0.562196 5.622704 0.008267
-2.161312 -5.499335 -0.031202
-1.293590 -4.159517 0.003115
-5.017298 0.814324 -0.018017
5.442907 0.952891 0.001666
1.765375 -2.116454 -0.008774
0.853474 3.026934 0.001042
1.071418 3.633341 0.013655
0.605648 -3.622271 -0.017078
0.992715 -0.108770 0.001907
-4.008774 1.429990 -0.000784
3.803526 -4.378948 -0.018922
0.539350 2.804246 0.006480
-1.163789 -2.759445 0.000342
-1.532635 0.500382 -0.005087
2.239924 0.710103 -0.007218
-4.715700 3.814637 0.032126
5.086317 -4.784486 -0.003939
-3.005766 -3.915826 -0.018003
4.189862 4.923345 -0.009309
-5.468715 -2.010967 -0.003666
-3.690065 -0.365608 -0.003844
5.059085 -5.157921 -0.000789
-3.944651 -0.155649 -0.010470
0.288416 2.946015 0.005415
-0.747768 -4.306359 -0.004838
-1.756657 5.785118 -0.013607
3.008666 -4.603868 -0.008156
3.698510 -2.268883 -0.003847
3.376758 -5.847342 0.008486
4.455242 -4.052276 0.004845
-0.530993 1.941067 -0.003380
0.094435 -4.015227 0.000197
-4.330578 -2.585587 0.002151
-5.371299 -3.401463 0.020387
-4.438740 -0.422436 -0.006176
-1.721881 1.041987 0.004671
-2.629454 -5.593068 0.007264
-2.026678 3.062168 -0.009531
-2.929942 -1.145419 0.001892
3.059693 -1.119825 0.001634
4.645490 5.016822 -0.004698
-2.273644 2.831564 0.005676
-2.962596 -4.325719 0.010285
-0.745427 1.229669 0.011302
5.227091 -4.249182 -0.001918
2.548352 -0.294426 0.001899
-4.419488 5.671896 0.023507
2.349227 -4.453696 -0.011036
4.869065 -4.762870 0.002219
-4.888089 -2.021388 0.008900
5.255510 -5.603706 0.001501
5.018487 1.339339 0.006560
-5.195380 0.823101 0.001727
-0.494511 0.767815 0.007537
2.846442 2.143429 0.012826
5.966731 -4.119971 -0.002214
3.754265 -1.066884 0.001975
3.399690 4.701350 -0.000552
5.903978 -2.807498 -0.004036
-0.564741 5.313351 -0.000196
5.348861 -1.525514 -0.011316
5.282514 -1.129306 0.007445
-1.502807 3.079433 0.017024
-0.345458 -0.621619 0.017045
-1.366572 -0.806353 0.012759
-4.322188 -5.267554 -0.009641
3.047918 0.773999 0.015198
2.062688 3.628026 -0.007154
-3.238726 -3.194725 -0.000531
-2.665097 -2.352900 0.018462
3.128291 -1.509821 -0.010719
-2.121734 1.635619 0.008413
-3.761154 -4.722958 0.002813
2.365599 3.077344 -0.001521
-2.443625 1.632494 -0.008760
-5.591081 -1.148172 0.004225
0.935500 -2.958978 -0.004638
-1.821421 1.314595 0.010453
1.078774 -4.149711 0.012243
2.478983 -5.039649 -0.013793
5.636696 -3.571656 -0.005053
-2.957422 -3.596393 -0.003191
5.897987 -2.560861 -0.011817
1.263507 5.887610 -0.011179
5.400814 -5.491802 0.000887
0.254209 1.215656 -0.002081
2.428741 -1.969088 -0.016518
-2.065097 -5.948592 -0.005381
-5.577159 0.600686 0.005189
-5.089355 -3.570225 -0.012062
-2.000737 -5.154345 -0.009236
-5.629682 5.123045 0.015877
-0.777496 -3.541386 0.013172
2.501422 -5.886656 -0.016210
-3.059793 5.528996 -0.013510
4.772282 1.631103 0.003773
-4.881567 -2.183390 -0.011915
-5.664809 -3.369708 -0.002528
-5.694790 -4.486036 -0.004513
1.598575 -4.794686 0.005602
-4.130843 4.833696 -0.025287
-1.974571 -2.004037 -0.022025
-4.961526 3.551166 -0.012262
2.116527 0.565594 0.010139
1.414954 -4.795432 -0.001543
-2.876327 1.003698 -0.017082
5.426783 3.805583 0.004930
1.688716 0.225823 0.007077
-5.818414 4.688595 -0.002459
-5.197751 -4.451027 -0.003306
2.316861 3.745728 0.004376
3.438608 -0.571151 0.012095
-3.875331 -5.576374 0.001524
4.216555 5.732369 0.005331
-3.070374 4.392916 -0.000482
-1.169629 -2.263875 -0.003813
0.061852 -5.901982 -0.009159
-0.687426 -3.605340 0.002563
2.549486 0.030857 -0.003002
4.426231 4.759778 -0.002436
-2.198893 -2.635394 0.009297
5.269565 0.047971 0.004880
-4.841814 -5.449378 0.008701
5.885106 0.949964 -0.015756
-5.346084 0.135065 0.005584
0.049254 -0.775346 -0.005899
5.415365 5.385264 -0.008082
-4.500388 -4.179352 -0.008522
-1.110137 4.008317 0.012114
1.485031 2.757962 0.008279
0.912701 -3.479317 -0.007169
3.813185 -5.831748 -0.011376
2.381811 -3.667925 0.000137
-0.346902 5.701599 -0.004596
0.468430 -5.316614 0.016596
-0.854642 1.923205 -0.014613
-5.319520 -2.968155 -0.018299
-5.779966 0.480819 -0.002558
-1.422269 0.044280 0.000107
-2.449958 1.881684 0.001326
-3.922966 4.879824 0.007534
5.520977 -0.084076 0.020733
-0.415318 4.315401 -0.003423
-2.521946 3.637268 -0.005444
-2.552309 2.639578 -0.017592
-1.991864 1.231220 0.002434
5.110419 -5.348103 0.008534
3.687056 0.502147 -0.002604
-1.451188 -1.796695 0.011806
-5.167056 -2.899456 0.000303
1.477644 -4.828920 0.015149
2.032888 5.547040 0.003331
5.769313 4.670895 -0.010572
3.679330 -3.864560 -0.006368
5.641871 -3.567322 -0.015337
4.428597 4.534484 -0.017371
1.462900 0.255681 0.002669
-3.594898 0.233620 0.008696
-2.512561 -4.489431 0.019543
-4.461706 3.614052 -0.000552
5.068841 -4.297575 -0.002369
-5.840868 -2.836408 -0.011090
-4.386732 -3.736482 0.009873
0.999923 -0.932471 0.003892
-0.849251 -3.532648 -0.005951
1.975065 -2.525877 0.006885
-1.210238 -0.439032 0.005613
4.853094 -3.043732 -0.018700
2.623992 -2.287575 0.007427
4.733116 -1.271046 0.001361
0.061941 4.526583 -0.003915
2.073131 -4.867694 -0.004171
-4.357970 5.888789 0.017484
-5.650737 -2.389537 0.015360
5.506732 -5.818727 0.018259
-4.063225 -3.439629 -0.011487
-4.963311 -0.336464 -0.006545
1.109255 -2.180141 0.009055
-4.696204 3.731473 -0.012085
3.653656 0.745199 -0.007202
-4.347095 0.502936 -0.018043
1.554287 -0.860492 0.018531
4.366361 -1.319455 0.010627
0.130645 -4.630280 0.004585
0.762610 3.197376 0.002192
2.775100 -2.916230 -0.004171
5.902395 2.639210 -0.003979
-0.914971 -1.021098 0.006157
3.351904 -3.891812 -0.007118
1.675529 2.626074 0.012274
0.196080 4.478381 -0.004926
-0.376368 -0.421287 -0.008735
-2.583844 5.032460 0.012980
-2.204762 2.343255 -0.001440
-1.087765 5.225090 0.005549
5.375513 -5.639577 -0.004149
5.934403 1.259233 -0.022501
-5.113758 -0.035630 0.005472
-5.406337 0.586726 -0.013467
-3.774546 -1.584716 0.010822
-2.343599 1.226544 -0.015508
3.868344 5.238440 -0.018649
-2.053703 0.836279 0.003076
-5.929210 -1.534038 0.004253
5.528446 -4.573937 0.001067
4.437933 1.830062 -0.012136
-2.473275 3.337931 0.008885
-2.528624 4.737781 -0.014647
-5.006890 -4.572083 -0.004643
3.000146 -0.609860 -0.007881
-4.230440 0.161209 -0.003777
-2.436371 0.591783 0.008528
2.924567 4.282073 -0.006341
-5.291998 1.108257 0.005644
5.803990 -0.482431 0.006941
3.234797 -4.832872 -0.017110
4.482095 0.984634 -0.011666
4.659158 3.445415 -0.003834
4.430877 -5.312449 -0.005921
2.586289 -3.636229 0.003077
-2.810276 -2.102605 -0.019317
1.095776 1.534331 0.007206
5.177310 -5.847379 0.007446
-3.678738 -1.655970 -0.001682
3.816082 0.598905 -0.013831
0.143887 3.122231 0.000056
1.860711 -2.521730 -0.005375
-4.954603 -0.452319 0.005666
4.561997 1.177693 -0.000854
-5.360531 -0.719075 0.007282
-1.384655 0.989099 -0.004333
1.045521 5.415984 0.014426
-1.942874 -1.102854 -0.023048
1.362167 4.636687 -0.010162
2.473727 -0.349375 0.004908
3.774793 -0.176327 -0.015109
5.562275 -2.610007 0.007359
-4.471297 3.964799 -0.012167
-2.432412 4.168755 0.000932
1.312858 0.107512 -0.009148
-4.955618 3.435786 -0.004412
-5.208908 5.581814 0.001746
4.523695 -2.364377 -0.001047
-4.465606 4.628093 -0.003813
-0.241793 -4.501514 0.021531
-0.017734 -3.038169 0.000085
-1.105975 1.682893 -0.009700
4.984377 3.611158 0.009276
-4.067893 -0.271971 0.008207
-0.096864 5.873793 0.012229
-4.957226 0.129212 0.017873
4.972357 -1.213809 -0.009393
-2.859386 0.671202 0.010595
-2.158939 5.124949 0.011396
-4.982415 -3.519506 0.000004
-4.993548 2.542670 0.002452
-2.482298 4.802028 -0.030028
4.723577 5.236640 -0.005739
-2.926458 -5.992119 0.017880
-1.348735 5.550756 -0.017868
3.164903 -5.284081 -0.005357
2.430867 5.004762 0.002879
5.612639 2.591864 0.005756
4.355945 4.100425 0.016315
-1.699947 -4.811474 -0.017628
2.729570 -4.357040 0.000428
-1.389615 5.948832 0.008597
0.717426 0.260880 -0.013136
5.374559 -2.591519 -0.000397
5.993171 4.943758 0.018848
-1.633152 -2.073122 0.013165
-4.481240 4.987681 0.005395
-3.770281 -5.892256 -0.026141
4.680919 1.177382 -0.001303
2.062184 2.797694 0.003864
-5.488061 -4.897740 -0.003085
-0.001957 -5.396869 -0.000654
0.051859 2.836064 0.030834
1.888910 1.399772 -0.002145
-5.443131 -3.160141 -0.009696
4.769937 -4.521354 0.002429
0.398685 -5.399419 -0.003157
5.270432 -3.941238 -0.003097
-1.079737 0.561374 -0.000871
2.623820 5.249428 0.007740
2.836359 -1.831580 0.002375
-5.095925 2.488861 -0.012014
5.670124 -5.795807 -0.001327
3.296155 -3.886297 0.004744
-0.480556 0.271640 -0.004677
1.373115 5.874442 0.011489
2.248825 -1.291351 0.007771
2.580250 -0.399225 -0.009908
-1.042560 -1.612161 0.003198
-0.079127 -2.625814 0.019838
-3.094796 -4.218400 0.015602
-0.717305 -2.480864 -0.000563
4.043298 4.174730 0.008976
-1.873480 1.429705 -0.006739
4.827490 -1.690057 -0.014481
0.656589 -0.677297 0.005543
1.803183 5.517251 0.002465
-4.336516 5.584624 0.005142
1.988802 3.550446 -0.000247
1.621462 4.443804 0.003260
-2.085135 2.496572 -0.005129
-2.830644 0.103887 0.004733
2.177886 -3.586509 0.008331
-5.266087 3.491377 -0.000584
3.707355 1.987978 0.008141
-2.142821 1.898076 -0.017709
-4.993435 1.950116 -0.007862
0.914383 1.406452 0.014445
-0.636189 -3.298100 0.017617
2.710526 -0.430436 0.002506
2.944559 -1.629839 -0.001034
-4.946529 0.509491 -0.012680
1.473136 5.061326 0.003636
4.653057 -5.314210 0.007784
3.262085 -2.863647 -0.014818
2.366380 -1.446216 0.005589
-2.135060 -0.140595 0.004907
0.366374 2.333799 0.004409
1.654601 2.139066 -0.011275
-1.391078 2.128084 0.005418
-1.855352 1.290399 -0.014979
-0.485604 0.753583 0.014886
-5.789542 -0.014563 0.001352
-3.360385 -1.370250 -0.011637
-5.114751 1.882813 0.013452
4.722260 -1.744834 0.011540
-4.739187 1.443214 -0.006504
-4.475563 4.699456 0.022041
-4.530518 -1.657554 -0.010041
-0.064083 -4.585526 0.003134
-2.175029 -2.696651 0.011824
2.559605 5.835281 -0.022707
-1.645952 3.488634 0.010015
-4.315908 0.958965 -0.000647
-0.807441 -2.541795 -0.000157
3.860524 2.957061 -0.010769
-4.392037 -2.491114 0.003315
3.834059 5.909179 -0.011098
1.338779 4.460385 -0.009685
5.810658 2.886546 -0.004477
1.736786 -3.345131 -0.012273
-1.554905 1.482656 0.015727
5.116816 -2.377834 -0.013287
-1.257491 -5.733157 -0.007548
2.360724 -0.677157 -0.003164
3.572783 -3.196140 0.000036
1.915754 2.077111 0.007923
-0.428110 -3.736731 0.008183
-1.165211 2.940515 -0.003029
-3.729773 -4.919508 -0.003841
-0.446611 -3.185744 0.000350
3.606613 3.806952 0.008220
5.343365 4.077148 0.006975
1.769326 -3.755377 -0.005164
3.876078 2.737133 -0.020592
2.962399 2.369205 0.021431
3.960278 -2.425879 0.009514
2.069408 0.207589 0.002633
-1.945874 -2.077927 0.003404
-4.134385 -0.101576 -0.005216
-1.575390 -0.941804 -0.010011
4.220015 2.178145 -0.003325
2.162980 5.808553 -0.002225
-3.386096 0.094745 -0.006252
-4.889776 -1.286505 -0.014572
5.404219 -4.968956 -0.003126
3.092673 4.385210 0.005766
0.107354 3.571328 -0.004949
-0.707452 -1.759748 0.000220
0.068770 -3.663080 -0.020707
-2.310164 -2.335486 -0.002076
5.860904 -1.978043 -0.001220
-3.253577 5.277205 -0.012261
-4.337012 5.589615 -0.017295
4.239737 1.764703 0.004118
-0.866305 -3.633116 -0.008097
-4.725562 -4.755896 0.004884
-1.810297 -1.114219 -0.004202
5.084522 0.434729 0.006232
5.887569 2.650658 -0.003388
-4.244465 0.642808 -0.015066
-4.087554 -5.529569 -0.000865
5.325446 -1.945752 -0.003283
-3.724968 -4.778500 0.006574
1.825689 -0.466212 -0.004506
-5.859889 2.582176 -0.003931
-2.919848 3.366696 0.008599
-0.136731 0.426972 0.011663
-0.513625 2.111783 0.007594
5.880542 3.574471 0.010378
-5.170778 -0.062373 0.004542
-3.188549 -4.771213 0.007704
-3.657893 -3.022628 0.008783
5.516736 2.938376 0.004038
4.235631 2.385868 0.000629
-2.212151 -1.306734 0.001422
-0.711822 -2.479111 0.024049
-0.942690 3.254242 0.000137
-5.091559 -2.681102 -0.002368
-0.251688 2.114697 -0.003643
1.751141 2.699827 -0.000333
-4.736855 -3.830965 0.002442
-2.292237 -2.619748 -0.011311
3.067092 5.919814 -0.019806
2.197376 -5.603443 0.002953
-2.428867 3.636327 -0.016061
5.092081 1.138947 0.002587
-1.814129 -1.738580 0.001406
1.601272 4.370287 0.011529
-1.910024 -3.711623 0.016702
-5.966514 -4.350350 0.003677
4.214254 1.495016 -0.005539
5.887648 -5.166459 -0.011748
-1.607804 3.548511 -0.007918
1.934476 -5.199951 0.000400
-1.182720 1.651591 -0.020694
2.253053 -0.579705 0.000752
-3.741989 5.591127 -0.000121
-0.401990 2.608122 0.006444
0.417928 -5.031682 -0.003346
-3.159684 -5.243696 0.001020
-3.710668 -3.597759 -0.007361
-1.021675 -2.139630 -0.004640
-1.649362 3.802646 -0.017732
-5.743681 -4.759254 0.001236
3.693636 0.407581 0.015487
-0.733327 -2.792193 0.001626
0.507842 -3.341238 0.003658
4.300329 3.888476 -0.009816
-2.137789 -5.706003 0.014313
4.652013 -2.415938 -0.007670
1.882507 4.297866 0.008018
3.580343 4.350012 0.001073
-0.130387 4.107514 -0.009591
-0.466127 -2.834187 0.010272
-0.228402 -1.975271 0.000154
3.205762 3.980506 0.001787
-4.305992 -4.026878 0.004521
-1.396064 -0.440564 -0.000215
5.475858 5.300305 -0.003787
5.604487 2.757065 0.004662
2.126726 -2.755306 -0.004048
-1.528145 -5.967800 0.000654
3.995463 -2.686979 -0.006677
-5.048627 -2.212906 -0.014901
-2.121960 2.687828 -0.006732
-5.931520 -3.239838 -0.004951
4.757631 4.258513 0.000148
1.548376 0.707399 0.011844
-3.328590 4.501170 -0.016895
3.128658 0.155192 0.001286
-4.067780 -3.409930 -0.022119
-1.448478 -2.026505 -0.010459
-5.267327 -1.123484 -0.005071
-0.615393 -2.555042 -0.022531
-1.388365 -2.011467 -0.018577
-1.477972 1.428372 0.001540
-0.032032 -3.628927 0.000778
3.543116 0.158238 -0.001138
-0.499623 2.560113 -0.008037
3.025656 4.188714 0.021544
3.734960 2.028183 -0.001612
2.653552 -4.114478 -0.008621
2.391038 -2.946506 0.016784
-2.905971 -4.558419 0.006143
-1.237092 -5.761468 -0.003709
1.883754 2.977232 0.011927
3.306595 -4.453656 0.001567
1.693039 4.059519 0.006431
-5.568364 -3.679575 0.002348
-2.786690 -0.456185 -0.010284
-3.934018 0.466463 0.009712
-1.872579 1.861326 0.001605
0.375895 2.235575 -0.010094
-3.043907 2.484826 -0.007629
2.815637 2.663610 0.009553
-5.178599 5.353804 -0.003694
0.922366 -2.732171 0.000464
-0.790362 0.211219 0.006545
0.213236 -3.024498 0.001283
-2.820429 -1.636945 -0.015266
3.371098 -0.750671 0.006374
-5.536424 -0.573482 0.009384
-3.583649 -5.851051 0.008666
5.724360 -2.475354 0.016168
0.449958 -1.701603 0.003643
-5.359119 4.810607 0.007770
5.227889 -3.762807 0.015893
-0.984037 -1.516311 -0.002907
-3.993396 1.939928 0.017364
3.383953 3.116376 0.017346
2.103024 -5.790115 0.007831
-3.244831 0.175214 0.018397
2.434087 -1.362916 0.008519
-0.608798 4.088630 -0.008807
-5.717436 -2.776933 0.011374
-2.520778 5.913392 0.003264
-3.269567 -5.434642 0.004135
-1.002429 1.794346 0.001546
-4.158992 4.076338 0.013596
-3.642524 2.451351 0.005524
-4.058304 4.580702 -0.006958
-3.584155 2.776307 0.004858
4.064329 -2.940643 0.007293
-4.886087 1.033695 -0.007256
-0.011748 -0.248164 -0.004343
3.376013 -0.442684 -0.003831
-0.035623 -0.152829 -0.006073
-0.544942 -1.131264 0.003488
-4.069149 -2.456274 0.010177
-2.821301 -3.021836 0.018924
3.393897 -4.631546 0.011947
-3.534956 0.316965 0.010221
-2.249502 -3.118047 0.011432
-1.519404 0.024255 0.013353
2.092021 5.666665 -0.003767
4.231666 -0.840091 0.006936
-0.580356 -1.011440 0.003222
-3.132796 5.421185 -0.001293
-5.176083 -3.540632 -0.004550
1.943774 1.074749 -0.005053
-2.656233 5.243455 -0.002680
-1.086541 1.155043 -0.012348
-4.907684 4.690666 0.005217
-4.763957 -1.271439 -0.000219
4.626891 5.339928 0.001060
4.847708 3.931118 0.003387
-3.200391 -5.617752 0.007249
-0.578285 -5.241845 -0.005918
5.526411 -5.901751 -0.001063
-2.094233 -3.560492 -0.016085
-5.835709 -0.011063 -0.022199
-5.087402 4.799270 -0.019405
2.251535 -1.559991 0.015368
4.098769 3.562292 -0.018264
-2.082707 4.166738 0.004722
5.152773 1.438701 0.014772
-1.778604 4.807033 -0.004578
5.314397 -1.832593 0.016298
-4.964497 4.413722 0.018473
1.977520 -3.216026 0.009453
0.803127 -2.301676 0.023726
5.030261 -1.894623 0.006227
-3.644904 -5.481490 -0.007285
-1.889795 5.873368 0.005241
-3.379923 -0.503384 -0.004407
5.665279 -5.919430 -0.012999
-2.459242 3.854209 -0.012723
-4.851220 5.139554 0.023161
4.014689 -4.283380 -0.005361
1.108151 0.665979 -0.000183
2.324322 -2.317916 -0.006570
-1.390145 -3.110388 0.001452
-2.497206 -3.891255 -0.002303
4.852836 4.649090 -0.004011
-1.679801 2.318615 -0.012018
-0.116694 -2.630607 -0.014026
-1.804749 5.581868 -0.007330
-1.902462 0.943997 0.003044
5.341230 -2.428874 0.020887
3.707280 -4.631031 0.010662
2.799966 3.680253 0.018367
4.049325 5.700636 0.004994
2.531265 5.726533 -0.000723
-2.659760 0.258731 -0.013097
-3.431110 -4.997655 0.000181
-0.732764 2.636164 -0.021282
3.341362 -5.796138 -0.002835
5.306629 -3.033199 0.016454
-2.493598 3.988944 0.003467
4.730578 2.837242 0.011468
-2.006201 -0.445890 -0.003631
4.015261 -1.712297 -0.013568
3.663672 3.384114 -0.004591
-0.375943 4.758661 -0.003763
-1.385763 2.998984 0.012264
1.676986 -2.024992 0.019967
0.381407 1.272479 -0.007187
0.441911 -4.671371 -0.003369
5.897407 5.599255 -0.001229
-5.550306 5.331357 -0.003259
0.377866 -4.491546 -0.012206
3.846829 -0.804419 0.001167
2.558288 3.926680 0.003862
0.456476 -5.404016 0.004103
3.869650 2.328460 -0.011816
4.921697 -2.758355 -0.000887
3.422056 4.477412 -0.017144
-1.739387 -1.077744 0.009392
-1.992150 -5.931270 -0.009936
-3.221311 -2.021564 -0.002480
-4.699154 3.186675 -0.004222
-0.876569 0.818571 -0.005562
-2.584721 -1.675820 -0.010315
3.040609 -0.362184 -0.017397
1.158264 -0.927834 0.017612
0.684418 4.768300 0.002843
-2.791179 0.228744 0.002945
2.246713 -4.958526 0.021282
5.544091 -0.014907 -0.000711
-3.055953 3.125169 0.005823
3.786971 1.567437 0.000509
4.993953 -4.933072 0.012175
0.331182 2.914681 0.005323
5.001818 1.697361 0.003452
1.227742 -1.341264 -0.002244
0.859320 0.657563 0.003109
4.860300 3.925215 0.011951
2.846346 5.085418 -0.020453
-5.206050 3.235411 -0.000974
-0.436600 3.021657 -0.003860
-2.445870 -0.391941 -0.002683
3.895089 -5.577837 -0.019438
-2.506481 -0.138458 0.007636
4.218026 -2.759602 -0.008132
3.876893 -3.065467 -0.001945
-2.362189 0.645817 -0.004713
1.846862 4.560840 -0.016374
4.553605 -2.998059 -0.004136
2.947226 1.619916 -0.018092
-1.366278 3.312502 -0.009099
4.770233 -0.249665 -0.002824
4.993264 -4.468551 0.000282
-4.005712 3.170413 0.000882
-2.333380 1.024390 -0.001047
-0.035147 -4.250575 0.021707
3.050804 2.897191 0.004684
-4.257559 -2.882740 -0.011886
3.607016 4.946771 -0.005791
4.441082 0.022343 -0.006243
-1.591255 -0.656977 -0.001443
-3.883338 -0.048134 -0.005702
-3.229350 -4.056604 -0.008222
-1.432526 -5.232775 0.016823
-0.355750 2.353640 0.000772
1.816878 5.703105 -0.003039
4.629535 1.605021 -0.002190
4.771472 -0.666640 -0.001835
3.586489 -2.586245 0.014263
0.320434 5.758416 0.005119
1.185596 0.081496 0.011568
3.447691 -2.251713 -0.030843
3.972528 -5.777451 0.003602
-3.140924 -3.873034 0.010934
-2.911795 5.346378 0.020078
-5.713260 -2.415059 0.000639
0.892689 2.437073 -0.016822
3.285407 -1.400564 0.006237
-3.357914 4.228231 -0.005642
-4.534894 -5.219738 -0.017569
-3.221043 -0.088957 -0.005837
5.305904 2.746225 0.010913
0.767668 0.254629 0.012372
2.321009 1.517600 0.007571
-1.964264 -4.887239 -0.010124
-3.588936 3.392501 0.025529
1.613439 3.566131 -0.011333
-5.466108 4.809836 -0.000414
-1.412980 5.114009 -0.014084
1.134226 0.567754 0.013540
3.816927 1.505176 0.004830
2.094862 -4.108783 0.009255
1.253484 -1.722007 0.001279
-5.092947 -4.401708 -0.000303
-0.242410 -2.849943 0.002126
3.183874 -4.531218 -0.018498
-5.834173 5.963756 0.010329
-2.244336 0.117478 0.009524
-3.479434 -3.494415 -0.003531
-1.172358 3.477589 0.000271
-5.531971 4.047647 0.003396
5.883209 0.709947 0.016104
-1.679865 -3.192770 0.004725
-3.804588 -2.119971 0.000834
4.219886 -5.960932 -0.004678
3.431743 2.009176 -0.014619
-5.771808 -5.165426 -0.005543
2.820747 2.078052 0.001137
-2.238088 4.335481 -0.002095
-3.478115 -0.877094 0.001186
-4.619948 1.748333 0.007888
-4.955718 -3.846216 0.004792
3.196203 0.002864 0.003194
1.942411 2.807438 0.007007
1.278611 -3.626882 0.002311
2.381938 -4.608746 0.000142
-2.762252 -0.622355 0.005150
-4.626708 -4.728112 -0.016821
1.827240 2.903490 0.012987
-1.551710 -1.321747 -0.012430
-3.508788 0.259534 0.008835
0.964422 5.203278 0.000598
-5.513040 4.904700 0.011553
5.887772 -1.844592 0.000828
2.709695 3.898136 -0.008963
1.813518 -2.533145 0.011217
1.474879 4.522905 0.002333
-4.715430 -0.240321 0.001675
-5.728255 4.139522 0.001304
3.341881 -5.447595 0.010509
2.949736 2.298685 0.008677
-4.484985 0.302021 0.002805
2.272318 -1.974174 -0.015003
0.046780 5.711187 -0.003531
1.628182 0.023920 0.001570
-5.208031 -4.545943 0.018466
4.209241 2.911183 0.004364
4.021138 0.937027 -0.000398
0.912113 0.366929 0.012486
2.820980 -2.037474 -0.000585
-0.039528 -0.362786 0.000251
1.939647 -3.405471 0.002104
-5.699109 -4.937275 -0.014443
-3.849093 4.286936 0.010112
2.602044 2.999652 0.004797
-0.669253 -4.766746 -0.002285
-0.416722 4.355843 -0.010879
0.109859 1.582043 0.002681
-1.509679 -4.198959 0.014547
1.519543 -0.180269 -0.005864
-1.852486 -2.897765 -0.010067
2.351896 -2.185062 0.004752
0.911598 -2.883102 -0.015412
3.040940 -1.500601 -0.021656
-0.258073 5.130952 -0.003889
2.620582 2.835981 -0.006342
-1.927898 4.084049 -0.002208
-1.370898 5.859670 -0.004951
4.750795 1.909496 0.003889
3.977567 0.528521 -0.001643
2.797036 -4.502708 -0.005421
5.863028 3.602535 -0.004007
-4.290691 -3.088627 0.006887
0.899665 3.153017 0.010160
-4.213755 5.527652 0.009618
-1.848704 5.939694 0.007549
3.031029 -0.173738 -0.032401
-1.647594 -4.842138 -0.009439
-4.945194 1.553439 -0.002564
3.282251 4.890505 0.002642
-1.620128 5.251563 -0.015589
-2.437499 5.278593 0.014810
5.026025 -4.140014 0.003624
4.329528 2.444293 -0.005620
2.429253 4.084949 0.002228
0.439969 0.081216 -0.002870
-1.595642 4.383002 -0.007001
4.813179 -4.073462 0.005658
3.266030 -2.693864 -0.003938
-3.793712 -3.633499 -0.013516
0.879667 -2.642758 -0.005749
-3.092654 -4.818048 -0.000543
-2.103456 3.289125 -0.010193
-5.740816 -0.208077 0.013219
1.233675 -5.404570 -0.010284
-2.472333 4.877714 0.018185
5.932043 4.203688 0.009559
-3.963623 3.169882 -0.008798
-0.589611 -3.952268 0.001921
-0.229381 5.074566 0.012443
4.527032 -1.301580 -0.001284
-5.239774 4.806639 -0.011300
5.835425 0.136731 0.001751
-3.296641 0.525514 0.020536
2.355283 -0.213513 -0.014262
-1.769421 -3.026588 0.006189
-2.437679 -5.402152 0.000745
-2.939110 5.437562 -0.000527
-5.902829 2.729621 -0.003243
3.466956 -1.143480 -0.002534
1.142889 -3.349410 0.011041
2.016543 2.493909 0.006635
2.814820 -0.099279 -0.009303
5.644991 4.395786 0.016262
0.869496 2.188352 -0.012294
-2.702564 5.323535 0.007309
1.741707 4.739089 0.002523
-2.536507 5.788575 0.012673
-4.734673 0.364189 0.004252
-4.674331 -3.722546 0.011256
3.169808 -5.206860 0.000454
-1.407476 -3.700133 0.010429
4.203257 -5.011494 0.004149
-1.961077 4.274925 0.022197
2.242967 2.439938 -0.006248
5.894260 -5.718952 0.012654
1.977819 2.939491 0.005360
2.978087 2.568258 0.002481
-5.133450 -4.992739 -0.004945
3.273624 1.341245 0.005194
-2.847911 -5.888515 -0.014014
0.401496 -4.914915 -0.012961
2.980581 -1.911337 0.007847
3.689743 -4.853331 -0.014820
-0.072287 -4.802820 0.015101
3.364321 0.719797 -0.002010
-3.183749 5.554236 0.003233
2.183939 -1.963895 0.001492
4.263989 -1.440212 0.004945
5.309580 -2.434611 -0.002047
5.812334 -5.250204 -0.002930
2.814850 -2.503189 -0.000513
-0.913174 1.634225 0.011242
-5.450039 -3.317525 0.012084
-4.751798 2.875747 0.013491
-3.345100 -0.020011 0.004407
-2.057839 -3.166599 -0.001251
5.222134 0.089934 -0.016041
1.805642 2.452596 0.007187
3.853815 -2.841369 0.009164
-5.056863 -0.393051 -0.003273
-3.959926 -5.754817 0.008830
5.036211 1.519030 0.013650
-1.027623 -4.362659 0.001706
3.134983 0.396063 0.011330
-3.908463 5.787262 0.003840
5.409777 5.125693 -0.016585
3.919791 0.379008 -0.003962
-2.394593 1.820499 -0.003336
-4.183818 1.401752 0.006060
-5.207191 -5.836977 -0.007868
2.586195 -1.887471 -0.003622
2.367012 3.359362 -0.008857
4.023644 1.389952 0.000381
4.160847 1.906437 0.001464
5.127365 4.762197 0.010514
-5.480618 -2.788229 0.008738
-1.334087 -2.973611 0.002414
-3.877304 4.481681 0.003180
-5.699982 -3.817687 0.001857
3.122917 -3.320270 0.001895
-2.899763 5.609660 0.016236
3.151825 -0.616019 -0.024092
-4.365579 -2.771441 -0.000986
5.773957 3.492937 0.003898
-5.161454 2.482113 0.012069
-1.487632 2.638855 -0.010172
-2.454647 -4.438020 0.004239
-5.763601 -2.451771 0.009390
4.324129 4.694770 -0.003683
2.198067 2.974636 -0.018317
-3.664455 -1.748854 -0.002827
4.790799 5.835362 -0.011237
-0.683342 3.311696 0.007281
5.201361 5.964027 -0.007738
-2.450926 1.848848 0.018577
-1.320245 -0.418997 0.002186
-0.456977 -2.657816 -0.007283
-5.771220 3.198378 -0.004275
2.351610 4.087165 -0.010150
-4.160350 -3.155568 0.004667
1.153560 5.239521 0.015683
-0.338705 -3.590071 -0.001384
1.136286 5.490055 0.010020
4.416906 4.787480 -0.008652
-1.073735 -2.852463 0.003852
4.446999 3.457045 0.023810
4.216527 -1.305277 -0.013285
-2.566104 -3.116405 0.013094
4.447444 5.033068 0.012508
-1.594029 4.494497 -0.018029
-1.423287 -0.625094 -0.013573
0.797778 -3.344387 -0.008991
-2.790606 -2.800186 0.010458
-2.879153 0.186250 -0.003519
-4.793978 3.364553 -0.000905
-3.902421 -0.672395 0.007843
1.701869 -4.343715 0.001947
-1.089696 0.757942 0.003024
0.603702 4.710288 -0.002446
3.420105 -4.549084 0.012007
3.998683 0.597523 -0.007015
2.137960 -4.080285 0.017514
-0.336231 2.398990 -0.002618
3.569432 3.669737 -0.007217
-3.394423 3.992709 0.007225
0.821127 2.024254 0.005267
4.218628 -1.134384 -0.019047
5.035650 4.575060 0.002966
3.692939 -1.440702 -0.012748
0.338481 -3.922575 -0.007545
3.112489 4.691216 0.008615
-4.069867 2.936966 -0.007879
2.330047 -5.561743 0.004295
5.003119 -0.250221 -0.003059
-2.769850 -5.637762 0.020065
3.382133 -1.946487 -0.000229
0.161927 -3.663129 -0.011023
1.283976 -1.233176 -0.010323
3.679205 1.995971 -0.008339
2.660748 -2.986183 0.001986
-5.233780 4.559512 0.000677
5.227803 1.722026 0.010394
5.061125 2.475534 0.002368
1.269865 -0.971394 0.001978
-1.732670 -0.123989 0.003925
-3.330743 -0.867862 -0.000614
0.091698 -5.625453 0.003600
-1.276823 -2.586529 0.008504
1.609958 3.741357 0.008502
1.373296 1.967348 -0.004786
1.366822 -2.925097 -0.017018
-1.484447 4.130392 -0.007425
5.352288 -3.825582 0.003471
-5.873090 5.537528 -0.024238
4.315303 1.291127 -0.004112
3.803012 1.131120 0.005131
4.857747 -3.079854 -0.005004
-0.670423 2.046933 -0.010551
-3.412431 2.577821 0.018164
-2.851513 2.520262 0.014470
3.650593 -0.909874 -0.001966
5.881336 1.576416 0.013839
3.078992 -5.752859 0.013594
-4.646260 2.537841 -0.010694
5.317386 1.538747 0.027403
4.954124 -5.289895 -0.008774
4.699795 4.527774 -0.002040
1.546415 -0.846322 -0.010368
2.459375 -3.072994 0.001358
2.011754 2.331110 -0.012572
0.478829 -2.879102 0.000500
-5.974717 -3.650661 0.011391
4.005306 -3.452707 0.002697
-5.108029 -3.040384 -0.002086
0.230074 1.035285 0.016009
4.525766 4.257076 -0.008416
5.624880 4.611218 0.010225
-0.596909 -4.297452 -0.002482
5.469365 -3.254853 0.002692
1.465436 -2.826400 0.000844
3.801899 -3.590711 0.001804
-0.950585 -3.363601 -0.000013
4.326788 1.433074 -0.007307
1.569853 -2.226032 -0.005177
-3.882099 4.288050 0.004916
3.175202 2.813345 -0.000585
5.965666 0.714391 -0.011141
-3.857318 1.314489 -0.006571
-2.552438 0.155269 -0.006453
-0.488120 0.762330 -0.000083
5.056515 3.722409 0.002242
-1.018205 3.807992 0.001360
4.326264 3.287727 -0.006094
0.616663 4.792144 0.000613
-0.096469 -4.728536 -0.013257
-2.734501 1.890156 -0.028414
-1.450483 -0.926167 -0.000136
-1.173493 -3.695561 -0.016131
-4.877615 -5.411030 -0.009071
2.070090 -2.110680 -0.011671
-0.517710 5.222320 0.006663
1.519982 3.727849 -0.011731
3.147948 5.444522 0.003111
-5.198153 -1.390298 -0.004547
5.395343 -0.426800 -0.012033
5.373601 -3.781663 -0.015428
-5.277051 4.745596 0.004921
-1.064963 0.099302 0.004154
5.235309 -3.366848 0.008020
5.618365 -1.241400 0.018583
-3.030980 -3.195549 0.002979
0.221386 -0.396408 0.003062
4.633205 -5.390375 -0.000995
-5.472290 -4.166583 0.001286
1.267972 3.376135 -0.003282
-0.241877 1.365067 -0.008732
1.710640 -5.768460 0.020137
-3.044683 5.973097 -0.018427
-2.030548 5.359524 0.002720
-0.092687 -3.329323 0.004599
-5.971017 -3.389394 0.001666
-2.141963 -0.728371 -0.009462
-0.633940 0.580135 -0.001772
-0.310216 -5.605634 -0.004479
-2.796393 5.544228 -0.010622
-5.671021 2.808701 -0.000353
-0.283529 2.483073 -0.003977
-2.009983 -1.558344 -0.005434
0.201359 4.915901 0.006906
-2.059340 -4.969634 -0.010527
-5.540920 4.578817 0.004455
-2.235172 -4.565691 -0.006062
1.157071 4.138744 0.004303
1.194568 -4.179460 0.000718
-1.131209 -2.802128 0.002423
-5.801136 5.588224 -0.009782
-0.489398 -4.383337 -0.007746
4.618867 5.821559 -0.008563
3.792069 -2.956249 0.001720
-3.713485 0.301348 0.007438
1.001964 4.540817 0.010749
5.606915 4.924644 -0.005038
-1.895048 1.027192 0.000805
-4.513723 0.226518 -0.016203
-5.150760 -4.664438 -0.022200
-4.536688 -2.382812 -0.008711
-2.283844 2.460484 -0.006717
-5.087595 -4.666271 -0.015580
1.875847 2.073467 -0.017836
2.525243 2.641670 0.005233
1.955090 0.631123 -0.008118
2.896346 -5.021666 -0.016882
-3.458265 2.897440 0.023049
-3.689374 0.369029 0.001589
-2.876383 -0.824700 -0.003309
4.010135 1.927680 0.006614
-0.657737 -2.717642 -0.007734
3.660221 1.884270 0.015672
-0.720614 4.431268 -0.015525
2.309526 5.766926 -0.013218
1.972636 4.798816 -0.001563
0.604911 2.520015 -0.007833
4.109179 -4.914515 0.013853
-0.309321 1.267232 -0.016205
-5.306598 3.470689 -0.007520
2.586552 5.234830 0.002133
-1.535557 -0.370124 0.005359
4.942734 -1.062111 0.009733
4.012222 -0.943093 0.003155
-1.946903 -2.672950 0.021693
-3.438073 -0.822829 -0.005012
-4.061025 3.935825 0.001456
5.693164 -4.830725 0.008235
-5.342169 -5.955148 -0.003461
5.184759 -5.114348 -0.003240
2.162160 -2.353961 -0.004954
-3.621351 -3.043970 -0.006753
2.275938 -5.784224 -0.011595
4.377809 0.813621 -0.005880
-3.172883 -3.499937 -0.015798
1.856790 1.551969 0.003418
-2.182611 -1.991765 -0.016244
-0.438710 4.925665 0.020192
0.459694 4.080841 0.016549
1.690220 0.745356 0.010614
-0.124081 2.167544 -0.002511
-0.101664 2.711713 -0.006263
-3.815241 -2.132222 0.011780
4.478142 -1.257284 0.001378
4.116870 5.255469 0.005144
0.941622 -4.777632 -0.007610
3.083184 1.990356 0.010181
-2.510543 4.355744 -0.008415
-0.207343 -5.315993 0.000612
-5.184286 -3.260002 -0.017698
1.317993 3.782154 -0.006990
-4.811506 -5.732305 0.004524
1.470034 -1.086429 -0.004959
-0.700451 3.848440 -0.004927
5.028198 5.606879 0.007378
3.349890 -5.960824 -0.001214
-4.193926 1.047302 0.011882
5.463423 -5.022641 -0.024567
0.179223 -1.242293 0.005164
-1.118014 -2.777311 0.004550
-2.750926 -3.139630 -0.015884
-4.762067 0.648842 -0.013437
-0.648629 2.555222 0.008239
1.679234 5.433577 -0.011140
-1.924567 4.589893 -0.006852
-1.382775 1.928249 0.005443
3.659742 -1.238644 -0.003824
-0.646107 1.575028 0.004231
-4.670627 0.381130 -0.009166
-4.860704 -3.301560 0.002436
1.476697 5.665970 0.010255
5.992343 -2.871763 0.002713
-4.244184 0.223072 -0.022380
-0.703502 -1.446787 0.005959
3.221646 2.516270 0.000051
0.741915 1.457510 -0.009550
0.982252 2.122494 0.013342
5.133681 5.360020 -0.017895
5.753945 4.316634 0.018132
-4.743097 -0.579924 -0.006834
3.378979 -2.468000 0.015140
1.280680 -5.337108 -0.000978
-3.556398 -1.197355 -0.013783
-5.157680 -0.908070 0.000410
-3.238664 4.341296 0.002767
-2.174257 -1.431289 0.004857
3.624352 0.716015 0.010026
-5.398956 -3.389072 -0.009473
1.330461 -3.607625 0.004362
-3.020251 1.475215 0.006796
-0.064978 -2.770787 -0.003247
0.710397 1.604975 -0.009866
-5.527531 -2.713837 -0.010064
-2.307474 4.544651 0.006920
-5.384116 -1.834390 0.007412
-3.665396 2.341686 -0.008800
3.734811 -5.310753 -0.013877
4.359623 2.351525 0.011788
-3.396254 4.989993 -0.016015
-2.483492 3.461581 0.001038
-5.100485 -0.527412 -0.008571
0.069063 4.759028 -0.018027
4.038308 0.556611 0.000683
-5.381567 -0.840270 -0.002447
-1.496488 5.945933 0.013775
2.168627 -1.139327 0.022060
-1.622207 3.210952 -0.002428
-4.850643 3.804214 0.009652
2.050807 -0.776423 0.009845
2.523967 -1.226226 -0.005766
-4.281926 -0.996721 -0.009185
-5.383599 -4.954622 0.015472
-0.731782 3.900894 -0.004194
-3.555941 0.009801 -0.000814
5.747381 3.929418 -0.003456
4.823100 2.099616 -0.001885
1.068864 0.982130 -0.006571
1.214831 -0.420304 0.006891
-1.672491 -3.135734 0.011939
-5.216332 -1.570402 -0.004274
3.238801 0.632235 -0.014296
-4.032146 3.770436 -0.000057
-5.502439 5.173528 -0.015364
1.821662 0.673331 -0.006925
-1.048699 3.900372 0.011687
-5.918612 -5.809039 0.022538
0.243777 -2.435163 0.003182
-1.181378 0.439181 -0.011161
-5.474718 5.796731 0.007202
2.131692 -4.813282 -0.022917
2.863322 0.394809 -0.007474
2.243361 2.852508 0.014599
5.896389 -4.579198 0.006854
5.954602 -0.277702 -0.014297
-3.588691 -1.516690 -0.017113
-1.628178 4.744226 0.007949
0.291471 -5.199399 -0.001034
2.578505 -0.026707 -0.006467
3.775247 -5.442505 0.003543
4.380051 4.714341 -0.006274
-5.901187 -0.276953 -0.019683
-4.541079 0.353039 0.007485
-4.929680 4.644537 -0.007009
-3.796290 2.018352 -0.010542
1.842879 -2.150179 -0.013830
-3.426361 4.982885 0.001927
-5.522441 -2.950549 -0.008569
-2.079429 1.010042 0.005651
-1.569708 -4.663640 -0.003221
0.844026 2.689020 0.010193
2.457394 -0.124932 -0.004405
-2.317728 -5.876819 -0.007065
0.393586 1.542510 -0.020156
-0.704904 5.510578 -0.011491
-3.573180 3.769265 0.006607
2.625351 4.791908 0.029842
5.094644 -3.159374 -0.013012
5.061708 -1.161261 -0.010882
2.148959 5.434756 0.002805
1.144298 0.995145 0.004192
-5.149730 1.159806 -0.007293
-3.106613 -1.340923 0.000228
-1.465716 5.680232 -0.016550
1.653544 2.699583 -0.003518
-3.926821 -2.348585 0.008408
4.529567 -4.557118 0.015706
5.437413 -0.871115 -0.002220
-1.320635 0.175700 -0.003131
-0.680931 -0.353612 0.003951
-0.912170 2.421134 0.010464
-2.684478 -4.002077 0.004298
-0.785554 -4.940408 -0.008019
-0.631479 -0.067949 0.002999
3.412054 -4.691459 0.009081
-1.237471 3.366672 -0.007638
-1.940936 4.034647 -0.013838
2.620702 -5.499342 0.004521
-1.376657 3.196412 0.003100
0.318475 2.074552 0.009074
5.880322 2.103061 0.000342
0.552588 4.153392 -0.006950
-0.837474 -5.875019 -0.004885
-2.730298 1.136721 -0.010770
5.378973 1.285626 -0.009951
-2.595518 5.918493 -0.006114
-1.198123 -3.266356 -0.005337
0.635035 -1.871336 0.010559
-4.661230 2.553386 -0.012726
2.297529 5.666239 -0.000996
-4.357894 4.926486 -0.006378
3.566202 -2.962913 0.014287
-0.248670 1.561730 0.002097
-2.220640 -4.709366 -0.004222
4.044973 -4.023655 0.007599
-0.111365 -0.747587 0.000162
4.836338 0.707147 -0.005233
-0.907146 5.721681 0.014772
-1.769460 2.717869 0.006577
-3.192516 3.086625 0.016710
3.015023 3.937862 0.011019
-0.183267 -3.334155 0.007227
1.583812 4.922693 0.000835
-2.282157 -5.758073 -0.011262
-3.780035 5.195008 0.006581
-5.927318 -5.353673 0.000252
-4.820011 4.702085 0.006251
-1.400203 2.299331 -0.000543
2.470501 -0.791949 -0.007317
2.788593 -0.465290 -0.010459
0.502133 -2.318229 0.006501
-5.976713 1.119697 0.012395
-2.812429 -2.698036 -0.003309
4.545579 -1.657794 0.004073
-4.771754 1.564439 0.013311
0.461287 -5.309171 -0.008735
-1.813067 1.334492 -0.003820
-2.643369 5.833831 -0.011560
3.587611 0.050544 0.011285
4.986353 -5.583111 0.002177
-3.305529 4.977991 -0.005016
0.104612 -3.957515 -0.016878
0.841084 2.762771 -0.002209
1.240992 -5.449447 0.009494
-5.559245 -1.114953 -0.003354
-5.804870 -4.991039 -0.004630
1.710774 -0.738587 0.005955
-4.973765 4.517453 -0.012657
-1.578157 4.598060 0.000112
1.310874 1.451613 0.005538
-0.911633 2.063936 -0.008144
-3.077608 -2.910875 -0.008636
4.498904 -3.555152 0.002064
-1.367426 2.936639 -0.001383
-2.039982 -1.608238 -0.002736
4.910129 -3.522371 0.001667
-3.105851 4.640777 0.001820
-2.697179 -2.032743 -0.009578
4.583867 -2.146411 -0.007004
5.963739 3.855370 0.004074
4.160043 -3.291873 0.010754
-3.395227 3.030915 0.013066
3.920755 -3.305486 -0.008781
-3.528210 -3.077316 0.010490
-4.348665 -0.945596 0.007159
0.034954 1.537999 -0.000666
-5.335758 -3.693658 0.004483
-4.595140 -2.759887 0.007874
-3.770576 5.235273 0.017382
-1.519881 -4.333227 -0.010822
1.997300 5.674874 0.005613
3.532950 1.778515 -0.001732
-1.462062 -1.160433 -0.002396
-2.374406 3.674654 0.011035
3.640068 -0.127264 0.007777
4.343196 1.826387 -0.010403
2.226735 -2.774674 -0.003143
-3.101218 -3.267255 0.001924
4.950129 3.602971 -0.014336
4.791127 3.872868 0.008235
3.659021 -0.767324 -0.001068
3.187407 -4.000235 0.001287
1.869300 -5.486849 0.003003
5.589296 4.553392 0.017584
-4.020523 3.224522 0.000043
3.883786 -5.495928 -0.003856
0.793326 -0.958790 0.016912
1.424971 4.636405 -0.005282
2.675452 -3.466155 -0.005510
0.656516 0.740931 -0.014047
-5.863333 -4.417735 0.010394
-1.686233 -3.863825 0.002386
-3.152842 2.113342 0.004359
5.535593 -0.503274 0.001340
1.752820 3.136894 -0.001641
2.075504 1.884154 -0.008073
-5.985927 4.439005 -0.008026
-4.064836 -3.834078 0.003977
0.117719 1.042389 0.000929
3.066885 -2.484911 0.015852
5.342125 1.538831 -0.007813
4.129697 -0.275809 -0.005111
-5.146238 -5.854678 -0.010388
1.683058 -0.886358 0.013350
-0.714276 -2.088140 -0.012484
-3.860443 -0.315861 0.007349
-2.942457 4.713037 0.013944
-3.855127 5.612130 -0.001669
4.323400 -1.396390 0.006890
3.274283 0.968539 -0.021322
-0.408820 3.743910 -0.004101
3.969499 -3.581920 -0.016679
4.872127 -5.615005 0.001425
-5.933722 -0.195876 -0.000185
-2.383994 -0.927965 -0.007877
-0.251877 -0.380040 0.009071
4.894104 5.018384 0.003246
-1.845553 -2.548671 -0.005443
1.847980 -3.618975 -0.005337
-1.194251 2.615482 -0.014802
-5.931723 3.261913 -0.002099
2.806086 -1.352842 0.020689
-3.025934 0.480503 -0.007289
-2.452302 3.853029 0.003899
1.087323 -2.319228 -0.005683
3.692179 1.291061 0.007685
-4.416452 -1.031940 0.004091
-0.123192 5.336908 -0.002562
-2.152014 -0.617790 -0.017883
5.721532 -0.886150 -0.005335
3.925298 -4.836415 0.011608
-1.274216 -3.794342 -0.002665
4.607833 0.631407 0.005965
-3.377452 -4.893877 -0.005001
-0.949112 -4.843147 -0.018698
-0.177061 2.745453 0.003964
-2.275364 -3.990220 0.002914
-1.661694 -4.006098 -0.005966
4.126070 -4.846506 -0.003911
2.891309 -1.993930 0.002618
2.740515 3.251521 -0.006103
-4.379334 3.078082 0.003175
5.347448 0.804632 -0.002256
1.739210 -2.128970 -0.023544
-3.906215 2.932639 -0.001667
3.845590 -3.526291 -0.006141
-4.638717 -1.772650 -0.008512
1.513003 -1.619208 0.003739
5.568148 3.497700 -0.005066
4.994289 1.195706 0.005099
3.069058 5.411844 0.010573
-5.572515 0.898928 0.001182
-3.754881 3.541347 -0.015533
-3.208354 2.899358 -0.007461
-2.008564 1.818286 0.008795
2.147521 4.905826 -0.002783
4.468559 -0.746365 -0.008201
2.268224 -3.811266 -0.001114
-4.823131 2.568761 0.004753
4.882022 2.959792 0.002341
0.201157 1.554996 0.006164
2.760946 0.831947 -0.008369
-1.643189 4.209128 -0.002930
-1.568774 4.844180 -0.002704
3.592846 3.516237 -0.000428
4.004795 5.841747 -0.020924
5.878362 0.016845 -0.002545
-1.472643 2.798114 -0.013468
5.615086 1.561004 0.013534
-5.691571 -5.537348 0.015178
-0.430024 3.452431 0.016412
4.649997 -1.499909 0.007804
0.206032 0.156411 -0.004999
-4.865036 -5.989313 0.009287
0.284135 0.051400 -0.002178
4.363371 -3.819807 0.005852
4.230479 -2.744929 -0.009111
0.471034 2.484190 -0.005995
-4.256700 5.357057 0.004409
5.494327 5.639903 0.017335
-5.973088 1.721184 -0.000431
2.052901 4.558948 0.022097
-3.582273 -4.511653 0.027062
3.713209 -2.859585 -0.012852
-5.207629 -4.896956 -0.000447
1.742127 0.430302 -0.009586
2.974775 3.685442 -0.001549
-5.967507 5.195257 -0.005453
4.556108 5.196744 -0.000833
3.224026 -1.394926 0.009366
-3.022038 4.949491 0.009116
-0.957425 -0.145124 0.002404
2.381315 2.260818 -0.000136
2.321167 1.483168 0.001010
0.103578 3.204297 0.001095
-1.250511 -2.851657 0.005513
4.908866 4.151820 -0.000106
2.615406 -3.980891 0.004815
-5.452117 5.069364 -0.013100
5.314991 -2.731115 0.007687
1.553538 -5.779541 0.017123
-1.275958 2.447858 0.001663
-1.667542 3.685411 -0.014126
4.953563 -4.353505 0.013209
2.258028 -1.487941 -0.003403
-3.907391 -1.809094 -0.029701
-0.218240 4.750701 -0.002302
3.184824 -5.937854 0.005846
-5.322683 5.926264 0.003656
0.679493 1.322228 0.012129
-1.766858 3.977303 0.006002
0.684320 1.111160 0.001095
-3.005828 3.320502 -0.019678
-3.429981 -4.352918 -0.011154
1.168547 3.987909 0.001640
-2.483086 -2.374770 0.006566
-4.207529 1.238084 -0.010293
3.249291 -4.492515 -0.006185
0.422037 0.476686 0.004518
-4.718938 0.363493 -0.019023
-2.737463 -3.610488 -0.019387
5.826662 -4.915886 -0.002405
-1.878875 1.423723 0.002366
-1.142065 -5.785314 -0.004868
4.394970 -3.129371 -0.022824
-1.055016 4.902467 0.000102
5.634567 4.977296 -0.013272
-1.067841 2.929490 0.006344
4.181276 -3.633148 -0.001125
5.633592 -4.783070 0.002491
1.892616 -3.131590 0.006222
-3.419976 -4.352992 -0.005335
5.305323 -4.460703 0.008063
4.949819 -4.011525 0.012182
-2.049107 -3.462312 0.003803
5.855221 -4.884983 0.013038
4.334055 -2.394563 -0.006324
5.427492 3.004036 0.008945
-2.833921 0.119192 0.002543
-4.066592 -1.113745 -0.009887
-5.684376 2.179236 -0.000896
1.119855 -2.738232 -0.005366
-5.840420 5.268317 -0.005586
-4.501186 -2.067245 0.000741
-5.695282 -1.400858 0.010394
-1.179766 0.402085 -0.003260
-2.116088 -3.002943 0.001119
3.429428 -2.652899 -0.014649
-2.015303 -0.106989 0.000942
-2.714265 2.718934 0.011307
-4.992110 -2.122302 0.007905
-0.949527 -2.903368 0.004585
4.078535 -1.750794 -0.005327
-0.952195 -0.374334 -0.009765
3.962075 -3.375611 -0.001043
3.945544 5.380491 -0.013362
-2.807575 -3.968500 -0.012331
3.464837 -2.245751 0.009218
-3.270954 -5.063262 -0.009196
1.365453 5.243280 0.017670
4.575201 1.065495 -0.014263
-0.736703 5.716609 0.004146
1.923897 5.474269 -0.011715
2.258693 2.361437 0.001615
2.412742 -4.491923 -0.010414
-2.968478 -5.210480 0.000290
5.190118 5.934203 -0.001661
1.260748 -4.128093 -0.004585
-4.507683 -0.646318 0.004955
-1.310276 -3.652115 0.014830
-4.929345 1.768664 -0.005970
3.507584 -5.242971 0.008645
-2.285832 -2.394874 0.000723
0.506193 1.254291 -0.000412
-1.074196 4.391321 0.021604
-1.310519 -2.359645 -0.021613
3.200693 4.103180 -0.006858
4.528783 -3.968610 -0.018048
-3.636508 -0.448759 -0.003220
5.610812 1.444306 -0.002385
1.480323 -2.079913 0.037632
5.885887 -3.808726 0.003316
0.711451 2.098779 0.017668
3.719845 3.761623 0.012746
-1.361769 -2.748005 -0.004479
5.757159 0.635210 0.004631
-2.615037 -4.340555 0.016418
3.638250 4.182233 0.001600
0.837556 -1.392099 0.001953
1.916610 5.761280 0.004864
0.939854 3.445230 -0.015019
4.584684 3.082243 -0.008164
-0.161360 -3.860206 0.003217
2.358556 3.977952 0.005287
5.554312 -4.172661 -0.009221
-4.635912 1.634851 -0.003323
3.925266 -5.083431 -0.001338
1.368383 -2.803444 -0.001622
5.990517 -1.663457 0.006747
-5.016505 3.392226 0.000929
-2.391424 -0.970682 0.001518
-4.433479 -2.029473 -0.014149
-4.400371 -2.911747 -0.010569
0.944654 -2.412430 0.003056
2.009679 4.813561 -0.015936
0.916940 -5.655845 0.002536
5.517623 -3.626112 -0.006690
-1.846166 0.318148 -0.008192
1.425743 -1.895030 0.006277
-0.714390 1.521861 -0.006856
-0.514486 -2.599611 -0.008658
-1.071101 -1.382867 -0.006849
-2.496543 1.208316 0.000415
0.147118 -1.061659 0.027093
2.513135 3.750666 -0.021184
1.786155 -1.905772 -0.000361
5.239814 -4.749432 -0.002568
3.666481 -0.944680 0.009270
-1.239218 4.118274 -0.003854
1.863568 5.686483 -0.024704
4.536263 -4.604767 0.012969
0.037855 3.211307 -0.011015
-5.009307 0.509743 -0.000794
5.913568 -3.131953 -0.013784
-4.598489 -2.526941 -0.011078
-1.867949 -2.570704 -0.005139
-0.814939 4.000908 0.008300
0.208593 1.071080 0.008152
-4.691568 -5.222342 -0.006159
5.411961 -1.834853 0.004760
5.367979 -1.972468 -0.003928
1.674914 1.938334 0.000881
-4.920108 -5.148746 0.001300
-0.699317 -4.472603 0.005919
-2.450047 -3.649736 -0.006355
-2.244707 -0.528760 -0.001559
-2.264018 -1.974711 0.001913
-0.168368 2.192746 0.000643
-5.495996 5.970110 -0.008177
-0.830333 5.076350 0.016845
-5.913086 -5.310162 -0.004843
-4.810299 4.952878 0.007259
-1.055733 4.156627 0.001757
2.335541 -4.946255 0.011865
-1.659599 -2.022442 -0.021971
-0.563185 3.045774 0.020102
-4.996606 5.116304 -0.002395
-0.280828 -1.610571 -0.012516
2.372386 -2.681997 0.001001
2.549656 -1.008759 0.022144
-0.262121 -3.730706 0.004740
-3.561784 4.336730 -0.012522
0.915873 -0.932656 -0.004887
3.299599 4.945261 0.012979
-4.093701 5.975997 -0.014240
-5.830291 1.367574 -0.002085
-2.836262 -2.974400 -0.003220
-0.064152 1.250689 0.021236
-0.757734 2.567727 -0.003197
5.403476 -3.973528 0.012754
-3.148975 1.314769 -0.007031
-1.076886 -2.215362 -0.008283
0.053972 2.362029 0.009677
4.904027 5.290431 0.005885
3.834408 -1.840687 -0.017473
4.606449 2.519301 0.006053
-3.906080 5.438860 0.006083
-3.031889 2.185705 -0.006404
2.334349 4.896760 0.001881
1.997526 5.797623 0.002366
-5.283239 -5.550487 -0.005139
-3.652570 0.903166 -0.006121
-0.913039 -5.009860 -0.006979
-3.575890 0.950972 -0.003012
-1.170308 3.161252 -0.013519
-0.396425 4.532844 -0.000740
3.105065 -0.066702 -0.015166
-1.704162 -3.433903 0.000423
-2.495079 -1.739067 -0.001163
-1.665164 -3.851816 -0.010609
-0.321463 -4.658007 0.008141
4.422940 0.604158 0.018905
-4.858874 -2.066148 0.012831
-2.937157 -4.126140 -0.013894
-0.232329 -3.800737 0.012315
-4.179921 2.427450 0.001841
-0.845050 2.064673 -0.000855
-0.360321 0.047762 -0.006244
-2.271690 -0.884167 -0.000401
-0.229219 -1.891176 0.013452
3.914550 -3.044678 0.005069
-3.353516 -1.868999 -0.004446
3.422187 4.170807 -0.006986
0.780247 -1.671765 -0.004468
1.785715 3.917658 0.005484
-3.085352 2.010559 0.018187
2.518481 -1.317022 -0.010836
-4.262240 1.289307 -0.000360
-3.477970 -1.583838 -0.004162
0.534440 5.552402 -0.007812
-4.241723 -5.115679 0.003608
0.466338 5.317031 0.005128
-5.445598 1.705413 -0.014404
-5.672595 0.612580 -0.010616
-4.570032 1.909458 0.011508
-1.668171 1.854839 0.002805
-2.901015 -5.101026 0.004832
-3.817399 -2.713013 -0.005314
-4.022788 -3.618791 -0.004114
0.530167 -0.748297 0.004206
3.903606 -0.028440 -0.005271
0.474103 2.521527 -0.011344
4.240968 1.016419 -0.000340
-5.558134 -0.489443 0.008629
-5.612762 1.258553 -0.010557
-5.219428 0.475309 0.010134
-4.200946 4.266289 0.006612
-4.868422 1.913049 -0.008894
2.445686 -2.697749 -0.000269
1.113285 -2.040979 -0.000757
-2.892587 -2.884151 0.005936
-5.809849 2.075232 0.006260
-5.137986 -3.635874 -0.013246
-4.956619 3.651357 -0.013694
0.353796 -0.391725 0.009854
0.999857 3.699264 0.000779
1.489027 0.159321 0.003791
-2.242005 0.200969 0.002966
5.846852 0.838504 0.014826
-0.273673 4.659497 -0.012291
-5.345576 -5.240713 0.010447
3.472546 5.305767 -0.008446
-5.389320 -5.711355 0.006863
-5.882932 0.923613 0.012933
-4.346713 0.736090 -0.014028
1.965530 -5.813437 0.003647
4.441393 -2.969129 -0.003085
0.647756 -1.755631 -0.003216
-1.880796 -1.159729 0.000081
-5.955468 -0.854599 -0.010747
-2.819798 -1.711107 -0.009874
-4.045209 -1.981559 0.006165
2.393203 5.805357 0.008020
-3.634453 4.400238 -0.005956
1.377079 -4.787948 -0.014735
-5.823670 4.608285 0.022565
-3.191267 -4.725084 0.010531
1.866753 2.479245 0.003215
4.740801 0.003817 -0.010524
-2.256439 -2.180960 -0.006099
-3.542889 1.622830 0.002057
5.307268 -4.983802 -0.009831
-1.360360 -1.778152 0.015497
-5.037583 1.137851 0.001010
5.796091 -2.679852 0.003540
2.725344 4.806949 -0.010506
-2.752200 5.027820 -0.009304
2.980466 1.747736 -0.008127
-3.670352 -2.671187 0.002387
-4.781356 4.748672 -0.002961
3.707439 -4.960923 -0.003193
0.372178 -3.442809 0.002770
3.187483 0.877678 0.001882
5.344611 2.725661 0.014295
-4.791756 -1.526630 -0.002282
0.915287 4.942060 -0.010330
-1.548630 -3.745287 -0.000456
-2.600258 -3.022023 0.014088
-4.146104 -1.873178 -0.005797
-3.011971 0.125585 0.000141
4.731073 5.451896 -0.003863
-4.086972 0.833178 0.003650
2.086213 -4.169817 0.002192
0.381593 -3.599358 -0.008324
-1.631137 -2.112710 -0.002585
3.779403 -3.190664 0.008933
0.481191 1.027099 0.010445
-2.041538 5.153190 0.008746
-2.014363 -2.085710 0.008156
2.311294 -0.147030 -0.003612
2.697569 -4.165469 -0.003915
-4.222980 2.832619 0.008809
-1.337490 4.285598 -0.011866
-3.198047 -3.117130 -0.000902
4.359019 -1.659569 -0.018595
-4.682337 -3.356399 -0.004063
3.234731 -2.814596 -0.007275
0.669400 4.015360 -0.012180
1.325073 3.032285 0.005366
5.723270 -2.409467 -0.007561
4.514541 0.612744 -0.003941
-3.583016 -4.416090 -0.002863
-2.065258 -4.348096 -0.007565
3.260709 0.689244 0.013649
-5.469194 4.539575 -0.005183
1.152035 -0.685523 0.001607
-4.308743 -0.361798 -0.013162
5.007920 1.013057 -0.004977
-0.489410 1.297143 -0.003505
0.606725 1.483596 -0.003342
-3.612331 -4.215953 -0.006066
-5.849748 3.982075 0.001082
-5.961129 -2.926350 0.014987
1.024063 -0.002396 -0.001627
4.817692 -3.441542 -0.001691
-4.632087 -4.075010 -0.004158
-0.025928 -2.505191 0.024587
-0.535243 2.254414 0.015523
-2.143448 1.981679 0.005149
-5.764246 0.554101 0.006596
4.887903 5.209897 -0.007293
0.861470 5.797047 -0.001820
-3.175256 -2.428621 0.001748
-0.622870 0.106871 0.000855
3.833642 -0.631320 -0.008725
-5.423382 2.398506 -0.007971
-3.327979 4.587804 0.004744
-3.456100 -2.451123 0.002751
-4.353228 -2.369173 -0.020998
1.211466 -2.792270 0.000592
-5.418511 1.035937 0.012163
2.819147 -4.692937 -0.006644
-0.909069 -5.180803 0.002044
-5.796822 -1.505544 -0.014583
-2.561677 4.503327 0.007857
-5.837883 1.757131 -0.011247
2.803697 -0.995935 -0.012588
0.009009 -3.034603 -0.003419
-2.971365 -5.364025 0.022939
4.868613 -5.655920 -0.006300
-4.354681 2.691205 -0.012689
-0.508916 0.143894 0.004221
-2.466622 -4.066248 0.001940
3.589396 -4.514623 0.015954
-2.450137 3.022332 -0.012746
-2.422802 5.416185 -0.015938
-3.896808 0.331279 -0.003398
0.456413 0.005888 0.003407
3.292716 -5.446898 0.003198
0.550815 3.477100 0.010333
-5.391622 0.555671 -0.014952
-0.712096 -1.144716 -0.008393
0.452625 1.496526 -0.001594
2.443140 4.778968 0.007929
1.878950 5.987401 0.004364
1.978328 -2.770385 -0.004436
-4.233573 -5.149251 -0.010313
-2.781257 -4.570448 0.008351
2.201056 2.274082 0.009009
1.344751 -1.406261 0.026302
-0.433172 -2.886716 -0.002043
5.023641 -5.809605 0.015620
-2.152913 0.873621 -0.012158
-3.832161 4.251170 -0.005628
-0.234793 -1.553202 -0.006936
-5.246181 -2.625797 -0.004843
1.075732 -2.625365 -0.008885
-5.458239 0.954693 -0.005624
-2.353006 4.156694 -0.000832
2.301501 2.657707 -0.004708
4.682150 3.720084 0.006172
-2.048921 0.828058 -0.001117
-2.893498 -3.581571 -0.000312
-3.529701 -4.667686 0.014145
-3.131362 -3.303613 0.002791
2.070864 -2.982228 0.001220
-5.440082 -0.940757 -0.000484
-3.588646 2.272187 0.000318
-3.339465 0.683630 0.005323
-3.887667 -0.214442 -0.008153
4.406626 -2.360550 0.010924
0.326368 -0.736560 0.015104
-5.159818 -5.751942 0.011009
4.109667 -1.915760 -0.005111
2.232825 -1.047665 -0.015899
4.059723 -3.659750 -0.004574
-0.194063 0.580670 0.001213
3.522863 -5.646647 0.007820
-1.650673 -0.297896 -0.002080
1.065960 -4.302421 -0.003265
0.523132 2.321446 0.014608
2.796500 -3.307856 -0.006855
-0.710432 -2.424423 0.010147
-1.348292 -1.643805 0.008574
5.341438 -5.839293 -0.013320
5.372708 -5.602816 0.002435
-5.064975 -3.527721 -0.005750
-2.557976 4.292823 -0.009583
4.094052 5.213903 -0.018418
-1.323363 -5.809977 -0.015641
1.509850 4.790120 0.003769
-4.710724 3.933515 -0.004096
-5.978576 2.787788 0.002384
-0.080573 4.899148 -0.010704
4.499816 -5.442016 -0.003432
-0.022208 -3.095191 -0.002952
-0.727302 -5.204387 -0.015425
-1.673331 -1.097609 -0.016577
-5.953298 -0.305773 0.004022
4.735513 -5.270821 0.001153
5.337162 -0.128200 -0.009431
-3.472876 5.629227 -0.001284
-0.317804 -0.757023 0.006199
-1.482359 4.576039 0.017649
-4.440893 -3.474423 -0.008988
-2.601354 -5.250867 0.005751
4.128886 -0.136585 0.020461
1.219083 4.625741 0.000357
-0.062981 -2.684449 0.014084
0.374772 0.002858 -0.025626
-2.414095 -3.218789 0.013904
-1.706411 2.820552 -0.000392
-4.016045 5.952954 -0.018679
-3.176836 -2.728191 0.007348
-4.525522 -1.297655 0.009992
-1.537740 2.181809 0.011551
4.752436 -3.025594 0.011463
3.712703 -2.300561 -0.000584
-1.119264 -4.460702 -0.007623
4.712738 -1.520229 -0.004810
2.410444 -5.682764 -0.000633
2.365439 -3.284240 0.003687
-0.582382 2.085461 -0.005009
-3.951364 0.326184 0.000185
4.028610 -4.039113 0.008304
-0.388668 -3.791342 0.002897
-4.280276 -0.120045 0.022200
-0.520024 1.726021 0.020862
4.293602 2.479084 -0.011549
-1.964032 -0.166916 -0.005859
2.085241 4.064678 -0.013132
2.193015 0.030999 -0.011715
-4.398344 4.419506 0.005064
-2.623619 -1.138981 -0.010028
4.615191 -3.511951 -0.010565
4.965933 -3.250840 -0.002941
-4.953374 0.163358 0.007565
3.543805 -1.171325 -0.003778
4.112848 -1.243767 -0.003798
3.781110 -4.646950 0.008723
-2.599524 -4.530209 0.004340
2.875304 -0.364675 0.004186
1.867301 -3.139430 0.009015
2.816114 5.913573 -0.010230
-5.051291 -2.174295 0.001823
4.433042 4.219557 -0.006517
4.464404 -3.280933 0.009791
0.757859 -4.966997 0.007720
-0.827784 0.913598 -0.010550
-2.897381 -0.934456 0.012850
-1.605697 -4.984347 -0.011771
-5.177649 3.373308 0.011203
-5.964866 5.833683 0.001723
4.765337 5.847440 -0.008858
3.427538 -5.970386 -0.011285
-4.608350 -2.175793 -0.003285
-3.823594 -5.274179 -0.000530
5.003688 4.922871 -0.007278
3.204463 -2.963370 0.005242
4.228160 3.830091 -0.014064
-2.116412 -4.468117 -0.000366
-4.373130 -1.092481 -0.000287
3.985519 -5.083939 -0.018700
-0.843451 -1.744898 0.002749
4.708549 -4.164612 -0.012722
1.866982 -2.124018 -0.024866
1.758217 3.866772 -0.006335
3.895618 4.146231 -0.002547
-2.488587 -2.689301 0.008602
-4.528015 -2.935978 -0.005083
-4.567773 3.408013 0.014204
-5.432182 -3.699502 0.013863
3.481937 3.221735 0.010461
5.681870 -1.396692 0.012731
-5.458741 3.698093 0.003151
-2.564562 3.277980 -0.005784
-5.767583 -5.582300 0.006085
1.177263 2.209326 0.009232
0.743855 0.386455 0.002053
1.165382 -4.428711 -0.002714
-5.236502 -1.807183 -0.015748
0.573356 -3.013664 0.006360
-3.851830 -0.643393 0.003165
-1.083654 -2.775583 -0.013128
5.124441 5.315454 0.000680
-5.438556 -0.239182 0.006820
-3.146919 -1.966765 -0.001378
-5.658265 -5.039015 0.007423
-5.597740 -4.492039 0.007136
1.791180 -5.059921 -0.014861
4.631604 3.631272 -0.003272
-2.769141 2.298156 0.004477
5.423377 -4.605033 0.008737
0.720834 -0.413293 0.013605
-2.276132 -2.544649 -0.019221
-4.962038 1.764980 -0.000956
-3.627329 -0.927242 0.006758
5.137307 -1.820826 0.011775
-2.205874 5.189727 0.016348
1.002871 0.846188 -0.009527
-3.331435 1.694605 -0.003981
-1.449929 0.525636 -0.010704
-1.227873 -5.027298 0.007771
4.532222 2.301215 -0.013372
5.498798 -2.322326 0.011383
-2.622699 -4.372420 0.008942
-2.331502 -2.098924 0.004508
-3.792484 -2.824888 -0.021742
-2.471685 4.295590 -0.006994
-0.644619 3.837658 0.007092
-5.402853 -3.738461 -0.014298
5.432733 -5.396312 -0.002672
-5.166485 0.215768 -0.001336
-2.521990 -3.669706 0.008484
1.304880 1.309245 0.002486
-3.743211 0.468825 0.002405
-0.542370 4.158279 -0.004655
-5.178714 -3.202633 -0.000254
0.780617 -5.599387 -0.001634
4.148334 5.618602 0.006884
-2.060511 3.297237 -0.002080
-3.011010 5.376415 0.009901
-3.459476 -5.929126 -0.017084
-5.180639 -0.496036 0.011548
-5.539680 5.764605 -0.001992
1.573924 0.826056 0.010834
1.515000 -0.981622 0.000514
4.629037 2.553946 0.008131
-0.835949 -2.591153 0.014446
-4.267505 -2.217918 -0.005789
-1.762225 -5.034609 0.000475
5.099429 -2.904217 -0.001995
0.480386 -5.206407 0.001741
0.624362 1.752184 -0.016318
-5.043053 5.707409 -0.002009
-4.042305 -2.845157 -0.002781
2.838051 -1.959034 -0.008087
4.520489 -3.141459 -0.002242
-2.232367 2.307683 -0.015561
4.320207 4.605805 0.013493
-2.542829 0.371672 0.004095
-1.069338 2.112651 0.018292
-3.270987 4.068955 -0.008959
2.559502 -3.901248 -0.011855
-2.231592 -1.966209 0.002462
5.160187 -0.526822 -0.016808
1.395270 5.168455 0.001904
-1.240447 5.353772 -0.007276
-2.494628 -5.847122 -0.003636
-4.768417 2.307787 0.002176
-1.424039 4.002364 0.000117
0.395629 2.227856 0.018059
-1.769235 1.047284 0.005906
2.376831 -1.478659 -0.013103
-0.110675 4.123358 0.009343
5.150761 -1.796013 -0.013575
-5.195489 4.105901 0.000510
-0.632873 5.631518 -0.012669
3.153773 -1.583189 -0.008528
4.203587 0.573596 0.012633
2.560821 4.619332 -0.005855
0.962119 5.368464 -0.006718
-1.219704 -1.454869 -0.005909
1.682555 -1.140501 -0.003445
2.489424 0.374885 0.013883
2.908711 3.909455 -0.012012
0.809405 4.972899 -0.012583
3.373447 4.284693 0.005358
-5.766180 -5.814741 -0.016131
1.615408 -2.004653 -0.003989
4.475440 -1.298838 0.010801
2.926614 -3.047433 -0.000369
1.553870 4.807407 -0.005126
4.345164 -1.602674 -0.007405
-0.218349 0.424917 -0.009450
-1.865629 -0.192617 -0.006236
5.574646 4.557782 0.000941
-2.225524 2.207099 0.011879
5.381322 -1.654532 0.009129
4.181879 3.568281 -0.006007
4.640961 -4.987638 -0.007652
5.075460 5.772427 0.006438
-3.103796 1.596811 -0.018373
-4.918749 1.228014 -0.004780
2.502539 2.947226 -0.003660
4.282331 -2.478830 -0.011430
-4.608663 3.803632 -0.010295
-5.691526 -3.202609 0.002964
-3.157304 3.301714 -0.016821
-0.694918 4.053390 -0.009521
2.014836 4.114742 -0.006902
3.433194 4.560807 0.000297
-2.686520 -1.734491 -0.014061
1.541078 0.994880 0.010203
3.333127 3.703167 -0.003578
-2.340369 -4.548306 -0.003113
2.895786 2.246209 -0.004132
-2.677218 -5.316604 -0.007210
-5.722457 -3.021029 -0.010253
-2.717757 -3.511669 0.010753
-5.393288 -3.955491 0.001418
-1.800874 -4.892848 -0.001680
-3.521101 -0.743128 0.009219
4.176945 4.458478 -0.007632
-1.139379 -4.488986 0.005593
-2.769631 2.097687 -0.000408
-1.112032 0.843882 -0.009411
2.841851 1.905597 0.006852
4.313468 -4.972145 -0.015395
-2.437235 -5.590903 0.005764
0.253541 1.376465 -0.009387
-2.952484 -5.334095 0.003360
-0.433824 -3.987591 0.012934
-3.665542 -1.424089 0.004911
5.340818 -1.679579 -0.006630
2.510908 -1.530381 -0.000985
-1.136899 -4.318713 -0.004333
-3.784884 3.247643 -0.012275
-0.848957 -2.576610 -0.011630
5.844724 4.537894 -0.000304
-2.828083 -0.788830 0.004551
0.803178 -4.006169 -0.018129
-0.872776 -2.591656 -0.001470
3.723750 -4.865395 0.004221
5.897099 -3.173316 0.000301
-2.026174 -5.092656 -0.010658
4.954224 3.937301 0.009395
-5.188531 0.338107 -0.012771
-1.313120 1.272813 0.005567
-1.969099 5.475156 0.014937
-3.384015 3.842410 -0.020905
-2.788104 1.793557 0.001699
-0.866463 0.310495 0.002244
0.264283 1.511732 0.001379
-5.184013 -5.286651 -0.008402
5.650580 -2.963302 -0.003927
-1.718701 -3.123288 -0.014602
1.747883 5.806917 0.000427
-1.167432 -2.144016 0.004403
-1.806070 -5.674760 -0.007424
-4.921766 -5.423424 -0.009985
-2.113062 5.812473 -0.005541
-4.305009 0.586822 -0.000982
-3.513989 -5.558619 -0.000308
4.044072 -4.472989 -0.001931
-4.378415 3.806542 -0.000241
-3.075098 -3.613068 -0.013791
5.318270 -3.668009 -0.027730
3.979809 -2.318838 0.005130
0.787940 -2.267932 0.013029
-1.929434 5.187410 -0.014844
4.892966 -3.901988 -0.007474
2.693165 -4.325286 0.002005
-2.407907 -5.150132 0.008412
1.774626 2.717785 0.005415
2.955839 3.292544 0.011591
-1.262636 -3.873657 -0.001483
-5.948323 -0.717175 0.003107
5.199482 -0.614968 0.003079
1.389904 5.000884 -0.005197
4.350309 2.877462 0.010827
1.108059 -3.218182 0.005150
2.984322 -0.988472 0.008629
2.475331 -3.319267 -0.004792
5.288326 -4.031416 0.009134
3.489135 4.684244 -0.011302
-4.175608 4.380510 0.002885
1.732384 1.242649 -0.026591
-2.951687 -2.059478 -0.010869
-3.178816 -0.703322 0.006238
1.774564 2.744632 -0.005396
2.468809 -1.838194 0.000716
-1.966305 3.161704 -0.016874
5.686380 -3.340566 0.014172
-1.046355 -2.686186 0.004849
5.695533 -5.802688 -0.001245
4.708547 3.209595 0.003079
-2.017720 2.165454 0.002218
-1.564201 1.642059 0.012864
-0.895775 4.980271 0.001105
-0.508659 3.747729 -0.015401
0.915157 -1.530661 -0.003498
5.600834 -3.655376 0.011568
4.898046 5.775559 0.004576
4.188988 1.324837 -0.005114
1.469251 5.141177 0.004974
-0.802629 3.892406 0.000143
3.295501 4.304220 0.004967
-0.711546 1.830460 -0.016520
-4.892800 -5.134955 -0.009781
-4.710365 2.824410 0.005521
-1.738587 4.900380 -0.003177
-5.049380 -3.931154 0.002443
4.035485 -0.978568 0.018162
-3.355706 3.371747 -0.004045
-3.186783 5.681450 0.001365
-2.700856 4.302495 -0.006445
-0.244830 5.223706 -0.007108
-2.444866 5.101380 -0.001728
-2.367199 -0.621945 -0.015202
1.591006 0.654002 -0.021572
2.050034 2.351851 0.012351
-2.786299 -5.894950 -0.002009
2.681854 1.203213 0.009988
0.760670 -0.051466 0.000199
5.141054 -2.435878 0.000460
4.944203 -3.984827 0.005558
2.334067 5.298150 0.006024
-4.149452 3.241666 -0.012756
-2.723371 -5.291613 0.010811
-0.825470 2.387686 -0.010480
-2.598641 5.403135 0.000993
-5.972776 -2.786630 0.023981
-1.900694 -1.549391 -0.000208
-2.403821 -5.743578 0.015297
-3.480544 -2.860314 -0.004386
2.069875 -1.472243 0.005009
2.668577 -0.690151 -0.000489
-1.911417 -4.092282 0.003092
-3.259896 4.817953 -0.009341
-0.538224 -2.237730 -0.009958
-3.379888 4.519344 0.002290
2.450322 2.333734 -0.016254
3.655301 -3.104339 -0.009232
2.772332 -5.142863 0.005282
1.978821 -2.133342 -0.006996
1.942071 -3.280563 -0.009664
-1.757957 2.042832 -0.011806
5.274000 -1.911540 0.000452
-3.970410 -4.504781 -0.004539
2.056219 4.731942 0.000479
-5.796407 -1.861082 -0.002820
-3.972699 5.455540 0.017090
-4.412531 -5.176733 -0.005245
3.216352 5.987609 -0.020097
3.285643 -4.624727 0.000153
-1.105577 0.240314 -0.000959
4.784835 3.040054 0.000544
-5.279723 -0.563526 -0.016648
3.343723 0.517926 0.010066
2.001194 5.608888 -0.001287
5.743748 4.042695 -0.001399
0.863104 -2.309035 -0.016419
-4.083733 -3.990193 0.003636
1.685971 3.274934 -0.001618
4.304335 4.968519 0.012193
-2.545664 -1.986316 -0.005032
-3.645257 0.527077 -0.013023
5.359616 3.091121 0.000273
-0.758319 -4.091507 -0.009880
4.113560 4.754673 0.003068
3.216822 -2.494277 -0.011528
-1.317037 1.002792 -0.002236
5.014544 -3.086389 -0.003187
-0.963431 -5.277947 -0.001312
-5.962683 -3.079612 -0.005986
3.708129 2.104284 -0.008873
-0.278956 -1.084854 -0.001558
-2.821039 3.192868 -0.006620
-0.147296 -5.159688 0.000506
1.526166 5.917784 -0.003625
-5.126268 5.965051 -0.022823
-4.805978 -2.307487 -0.001581
5.717690 5.665345 0.012522
-3.784362 2.643817 0.001968
1.351790 -1.223603 0.004839
3.404078 1.615412 0.003446
-3.298661 -0.117902 -0.005535
2.514117 1.458395 -0.013925
0.515647 2.850520 0.006877
-4.382884 -5.484913 0.009252
-5.605912 1.446563 0.004516
-0.786540 4.029730 0.003137
5.658082 -4.656043 0.002849
-1.453508 -0.965952 -0.001248
